<svg xmlns="http://www.w3.org/2000/svg" xmlns:xlink="http://www.w3.org/1999/xlink" viewBox="0 0 436.71 295.42"><defs><style>.cls-1,.cls-10,.cls-11,.cls-2,.cls-3,.cls-4,.cls-5,.cls-6,.cls-7,.cls-8,.cls-9{fill-rule:evenodd;}.cls-1{fill:url(#linear-gradient);}.cls-2{fill:#2a3448;}.cls-3{fill:#25054d;}.cls-4{fill:#1d2856;}.cls-5{fill:url(#linear-gradient-2);}.cls-6{fill:url(#linear-gradient-3);}.cls-7{fill:url(#linear-gradient-4);}.cls-8{fill:url(#linear-gradient-5);}.cls-9{fill:#fff;}.cls-10{fill:url(#linear-gradient-6);}.cls-11{fill:url(#linear-gradient-7);}</style><linearGradient id="linear-gradient" x1="-2556.1" y1="1482.46" x2="-2555.45" y2="1482.46" gradientTransform="matrix(385.91, 26.99, 18.14, -259.45, 959534.88, 453808.17)" gradientUnits="userSpaceOnUse"><stop offset="0" stop-color="#e9e9f9"/><stop offset="1" stop-color="#bdbded"/></linearGradient><linearGradient id="linear-gradient-2" x1="-2555.1" y1="1482.28" x2="-2554.45" y2="1482.28" gradientTransform="matrix(319.12, 22.31, 19.03, -272.14, 787393.8, 460512.46)" gradientUnits="userSpaceOnUse"><stop offset="0" stop-color="#cecef2"/><stop offset="1" stop-color="#1d2856"/></linearGradient><linearGradient id="linear-gradient-3" x1="2541.16" y1="489.81" x2="2541.25" y2="489.82" gradientTransform="matrix(0.47, 0.03, 0.01, -0.17, -938.06, 167.14)" gradientUnits="userSpaceOnUse"><stop offset="0" stop-color="#5e748e"/><stop offset="1" stop-color="#64759c"/></linearGradient><linearGradient id="linear-gradient-4" x1="-2555.39" y1="1482.87" x2="-2555.96" y2="1482.16" gradientTransform="matrix(385.89, 26.98, 18.14, -259.45, 959481.47, 453757.1)" gradientUnits="userSpaceOnUse"><stop offset="0" stop-color="#bdbded"/><stop offset="1" stop-color="#e6f6ff"/></linearGradient><linearGradient id="linear-gradient-5" x1="-2524.64" y1="1479.5" x2="-2525.2" y2="1478.74" gradientTransform="matrix(64.69, 4.52, 3.15, -45.04, 158893.7, 78171.61)" xlink:href="#linear-gradient-4"/><linearGradient id="linear-gradient-6" x1="-2526.24" y1="1477.89" x2="-2526.24" y2="1477.51" gradientTransform="matrix(64.69, 4.52, 3.15, -45, 159144.79, 77961.02)" gradientUnits="userSpaceOnUse"><stop offset="0.39" stop-color="#9575cd"/><stop offset="0.55" stop-color="#7e57c2"/></linearGradient><linearGradient id="linear-gradient-7" x1="-2541.64" y1="1481.84" x2="-2540.99" y2="1481.84" gradientTransform="matrix(119.67, 8.37, 6.55, -93.64, 294464.4, 160286.12)" xlink:href="#linear-gradient"/></defs><title>1</title><g id="Layer_2" data-name="Layer 2"><g id="Layer_1-2" data-name="Layer 1"><g id="Artboard"><g id="Group"><path id="Fill-1" class="cls-1" d="M182.31,143.72.91,256.73,73.61,295.4l147.53-91.87,14.93-9.26,9.37-5.87c1-.65,2-1.32,2.86-2h0c7.71-5.76,11.47-13.18,11.18-20.63h0a21.49,21.49,0,0,0-1.8-7.89h0a24.13,24.13,0,0,0-1.5-2.86h0a31.94,31.94,0,0,0-9.24-9.63h0c-7.91-5.61-18.28-8.81-28.95-9.56h0c-12.69-.89-25.8,1.7-35.68,7.86"/><polygon id="Fill-4" class="cls-2" points="148.07 163.98 362.36 25.78 436.71 66.57 221.14 203.71 148.07 163.98"/><polygon id="Fill-6" class="cls-3" points="361.51 0 309.55 33.55 147.22 138.23 220.28 177.93 308.76 121.63 435.84 40.79 361.51 0"/><polygon id="Fill-9" class="cls-4" points="147.19 138.2 148.07 163.98 221.14 203.71 220.27 177.93 147.19 138.2"/><polygon id="Fill-11" class="cls-5" points="307.03 122.75 292.08 132.25 256.18 155.08 220.28 177.93 220.56 185.66 221.07 201.92 221.13 203.53 221.14 203.71 236.03 194.25 248.25 186.45 248.29 186.43 277.64 167.76 277.67 167.74 280.74 165.78 323.76 138.44 326.97 136.4 329.68 134.68 342.78 126.33 351.27 120.93 352.11 120.4 436.71 66.57 435.84 40.79 307.03 122.75"/><path id="Fill-14" class="cls-4" d="M243.51,177.72l-.1,1.36a4.34,4.34,0,0,1-1.91,3.67l-2.8,1.83a4.17,4.17,0,0,1-4.36.13,3.92,3.92,0,0,1-1.21-1,4.08,4.08,0,0,1-.79-1.47,3.86,3.86,0,0,1-.13-.92l-.08-1a4.33,4.33,0,0,1,1.87-3.76l-1.55,1.28,4.91-3.09a4.47,4.47,0,0,1,2.23-.8,4,4,0,0,1,1,.07l2.11.87c1.54.39.7.85.78,2.84"/><path id="Fill-16" class="cls-6" d="M250.83,168.5l-.3-.13Z"/><path id="Fill-19" class="cls-7" d="M181.38,116,0,229.08l72.65,38.65L244.46,160.66c9.66-6,14.37-14.26,14.1-22.54h0c-.25-7.3-4.41-14.64-12.55-20.38h0c-7.92-5.61-18.29-8.81-29-9.56h0c-12.69-.89-25.79,1.7-35.67,7.86"/><path id="Fill-22" class="cls-4" d="M209.38,121.6c-13,.44-23.26,8.38-22.94,17.74h0c.31,9.36,11.1,16.6,24.09,16.16h0c13-.44,23.26-8.38,22.95-17.74h0c-.29-8.53-9.27-15.3-20.7-16.1h0a32.72,32.72,0,0,0-3.39-.06"/><path id="Fill-25" class="cls-8" d="M209.37,124c-11.62.41-20.9,7.26-20.64,15.32h0a12.48,12.48,0,0,0,6.08,9.75h0a28,28,0,0,0,30.88-1h0a12.51,12.51,0,0,0,5.36-10.15h0c-.32-7.3-8.35-13.12-18.52-13.83h0a30.09,30.09,0,0,0-3.17-.05"/><path id="Fill-28" class="cls-9" d="M365.11,23.2c-13,.44-23.26,8.38-22.95,17.74h0c.31,9.36,11.1,16.6,24.09,16.16h0c13-.44,23.26-8.38,22.95-17.74h0c-.29-8.53-9.27-15.3-20.7-16.1h0a32.65,32.65,0,0,0-3.39-.06"/><path id="Fill-31" class="cls-10" d="M365.09,25.6c-11.61.38-20.9,7.24-20.64,15.3h0a12.51,12.51,0,0,0,6.08,9.75h0a28,28,0,0,0,30.88-1h0a12.55,12.55,0,0,0,5.36-10.17h0c-.32-7.29-8.37-13.1-18.56-13.81h0a31.24,31.24,0,0,0-3.13-.06"/><polygon id="Fill-34" class="cls-11" points="0.93 256.77 73.61 295.42 72.68 267.7 0 229.05 0.93 256.77"/><path id="Fill-319" class="cls-3" d="M118.92,213.25c-.74,4.26-2.67,7.44-5.79,9.49a17.32,17.32,0,0,1-9.22,3.17,4.89,4.89,0,0,1-2.57-.51A2.57,2.57,0,0,1,100,224a3.62,3.62,0,0,1,0-2.24,4.77,4.77,0,0,1,1.22-2.23,5.54,5.54,0,0,1,2-1.42,7.42,7.42,0,0,1,2.78-.56,5,5,0,0,1,3,.72,2.73,2.73,0,0,1,1.25,1.8A7.27,7.27,0,0,0,113,217.2a12.2,12.2,0,0,0,1.39-3.83,6.28,6.28,0,0,0-1-4.75,8.57,8.57,0,0,0-4.62-3.12,23.67,23.67,0,0,0-7.18-1.07,22.86,22.86,0,0,0-7.48.92,11.14,11.14,0,0,0-7.72,7.83,8,8,0,0,0,.35,4.25l.69,3.13-1.67,0-14.4-15-6.83,19.78,20.28.67a10.25,10.25,0,0,0,4.77-1,5.14,5.14,0,0,0,2.72-3.25,4.12,4.12,0,0,0-.37-3.24,9.54,9.54,0,0,0-2.27-2.72c-.21-.12-.36-.23-.38-.34a.59.59,0,0,1-.06-.44,2,2,0,0,1,.65-.91,2.7,2.7,0,0,1,1.54-.46c.24,0,.57.13,1,.19a7.13,7.13,0,0,1,3.73,3.31,6.41,6.41,0,0,1,.4,4.63c-1.22,4.22-3.08,7.12-5.56,8.8a15.35,15.35,0,0,1-8.6,2.48l-20.86-.49L56.7,243.07l-3.76-.14,5-10.66-7.9-.52L46.8,234l-1.72-.14,3.4-7.09,2.31-2.52,10.2.83L69.82,199l2.8-2.25,10.89,16.59a10,10,0,0,1,.06-3,15.61,15.61,0,0,1,3-5.54A14.43,14.43,0,0,1,92,200.22a19.38,19.38,0,0,1,5.79-1.93,29.35,29.35,0,0,1,4.84-.37,23.62,23.62,0,0,1,9,2,11.6,11.6,0,0,1,6.16,5.44,12.94,12.94,0,0,1,1.18,7.92"/></g></g></g></g></svg>