<svg xmlns="http://www.w3.org/2000/svg" xmlns:xlink="http://www.w3.org/1999/xlink" viewBox="0 0 581.28 428.03"><defs><style>.cls-1{fill:#8b3fae;}.cls-2{fill:url(#Gradiente_sem_nome_20);}.cls-3{fill:#25054d;}.cls-4{fill:#ff4074;}.cls-5{fill:#001462;}.cls-6{fill:url(#Gradiente_sem_nome_31);}.cls-7{fill:#cb9eae;}.cls-8{fill:url(#Gradiente_sem_nome_31-2);}.cls-9{fill:url(#Gradiente_sem_nome_8);}.cls-10{fill:url(#Gradiente_sem_nome_8-2);}.cls-11{fill:url(#Gradiente_sem_nome_31-3);}.cls-12{fill:url(#linear-gradient);}.cls-13{fill:url(#Gradiente_sem_nome_4);}.cls-14{fill:#385fd4;}.cls-15{fill:url(#Gradiente_sem_nome_9);}.cls-16{fill:url(#Gradiente_sem_nome_9-2);}.cls-17{fill:url(#Gradiente_sem_nome_8-3);}.cls-18{fill:url(#Gradiente_sem_nome_8-4);}.cls-19{fill:url(#Gradiente_sem_nome_31-4);}.cls-20{fill:#fff;}</style><linearGradient id="Gradiente_sem_nome_20" x1="462.24" y1="459.79" x2="464.25" y2="203.37" gradientUnits="userSpaceOnUse"><stop offset="0" stop-color="#001462"/><stop offset="0.07" stop-color="#081e71"/><stop offset="0.25" stop-color="#193595"/><stop offset="0.44" stop-color="#2748b0"/><stop offset="0.62" stop-color="#3055c4"/><stop offset="0.81" stop-color="#365cd0"/><stop offset="1" stop-color="#385fd4"/></linearGradient><linearGradient id="Gradiente_sem_nome_31" x1="436.78" y1="124.08" x2="393.94" y2="154.28" gradientUnits="userSpaceOnUse"><stop offset="0" stop-color="#f6b3b5"/><stop offset="0.99" stop-color="#fad1d3"/></linearGradient><linearGradient id="Gradiente_sem_nome_31-2" x1="411.32" y1="51.99" x2="379.01" y2="90.62" xlink:href="#Gradiente_sem_nome_31"/><linearGradient id="Gradiente_sem_nome_8" x1="92.86" y1="323.87" x2="195.99" y2="323.87" gradientUnits="userSpaceOnUse"><stop offset="0" stop-color="#3c55b3"/><stop offset="1" stop-color="#2d1982"/></linearGradient><linearGradient id="Gradiente_sem_nome_8-2" x1="173.54" y1="303.37" x2="405.38" y2="303.37" xlink:href="#Gradiente_sem_nome_8"/><linearGradient id="Gradiente_sem_nome_31-3" x1="330.5" y1="173.43" x2="250.44" y2="205.04" xlink:href="#Gradiente_sem_nome_31"/><linearGradient id="linear-gradient" x1="286" y1="68.78" x2="274.77" y2="186.76" xlink:href="#Gradiente_sem_nome_31"/><linearGradient id="Gradiente_sem_nome_4" x1="274.55" y1="295.8" x2="324.43" y2="121.23" gradientUnits="userSpaceOnUse"><stop offset="0" stop-color="#8cc6ff"/><stop offset="1" stop-color="#f6b3b5"/></linearGradient><linearGradient id="Gradiente_sem_nome_9" x1="263.26" y1="366.35" x2="263.26" y2="137.86" gradientUnits="userSpaceOnUse"><stop offset="0" stop-color="#8cc6ff"/><stop offset="1" stop-color="#385fd4"/></linearGradient><linearGradient id="Gradiente_sem_nome_9-2" x1="315.34" y1="366.35" x2="315.34" y2="137.86" xlink:href="#Gradiente_sem_nome_9"/><linearGradient id="Gradiente_sem_nome_8-3" x1="366.09" y1="309.58" x2="435.8" y2="309.58" xlink:href="#Gradiente_sem_nome_8"/><linearGradient id="Gradiente_sem_nome_8-4" x1="378.64" y1="-142.23" x2="378.64" y2="748.9" xlink:href="#Gradiente_sem_nome_8"/><linearGradient id="Gradiente_sem_nome_31-4" x1="280.91" y1="423.55" x2="280.91" y2="374.35" xlink:href="#Gradiente_sem_nome_31"/></defs><title>2</title><g id="Layer_2" data-name="Layer 2"><g id="Layer_1-2" data-name="Layer 1"><path class="cls-1" d="M364.66,119.3V245.15s42,1.28,40.72,0,0-58.47,0-58.47Z"/><path class="cls-2" d="M447.66,258.57c3.47,23.56,1.3,50.4,0,60.54S416.5,419.88,416.5,419.88h72.81l20-96-26.61-73.35Z"/><path class="cls-3" d="M447.66,258.57c3.47,23.56,1.3,50.4,0,60.54s-37.12,101.53-37.12,101.53h78.77l20-96.78-26.61-73.35Z"/><path class="cls-3" d="M533.46,233.6c10.73,33.62,58.79,44.49,45.53,98.79-9.57,39.2-29.1,88.25-29.1,88.25H459s28.5-85.46,28.5-96.78-17.89-69.48-17.89-69.48Z"/><path class="cls-4" d="M379.36,90.83c-10.73,5.11-20.52,27.88-10.73,49.25s11.19,17.55,14.91,34.33,2.26,26.07,33,47,29.77,26.49,31.17,37.17,87.82,8.36,86.43-31.6.81-86.11-24.92-107.87S379.36,90.83,379.36,90.83Z"/><path class="cls-5" d="M368.63,41.35V161.3s43.55-23.37,43.16-46.23S392.1,41.35,392.1,41.35Z"/><path class="cls-6" d="M399.22,113.33s5.8,9.39,7.77,13.42-6.76,21.87-3.88,37.16,21.79,12.68,26,0c1.27-3.82,4.66-30.95,4.66-30.95V88.1Z"/><path class="cls-7" d="M407,126.75c12.24-13.71,24.91,44.34,4.84,47.29l.15,0,2.87.32a15.33,15.33,0,0,0,14.27-10.47c1.27-3.82,4.66-30.95,4.66-30.95V88.1l-34.56,25.22S405,122.71,407,126.75Z"/><path class="cls-8" d="M373.71,37.93c-6,36.9.59,70.92,18.39,75s43.3-15.43,43.3-32.6,17.2-61.9-2.37-72.11S377.51,14.41,373.71,37.93Z"/><path class="cls-3" d="M388.67,34.57s-9.29,7.81-16.11,11.86-5.15-19.35,8.06-30.34S411.13-4.27,418.15,2c0,0,22-6.08,35.33,16.38S467.76,61,472,66.62s11.23,9.13,8,19.65c0,0,23.4-4.68,26.91,11.46s2.34,21.36,2.34,21.36S501.9,113.42,487,108.2c0,0-10,7.91-19.64,7.91s-21.68,38.71-38.52,38.71l-.14-92.17S390.63,57.79,388.67,34.57Z"/><path class="cls-9" d="M175.15,230.64c-44.21,46-82.29,186.45-82.29,186.45h63.46L196,323.87Z"/><path class="cls-10" d="M405.38,238.25c-9.25-10.51-58.51-45.09-121.32-41.33-55.38,3.31-100.18,20.42-108.91,33.73-6.39,9.73,7.6,75.43,17.34,101.58a229.39,229.39,0,0,1,14,77.86s156.63-.91,157.55,0,19.47-57.79,21.9-87S382.88,261.67,405.38,238.25Z"/><path class="cls-11" d="M320.63,142.41s.78,48.68,0,63.21-23.3,27.61-31.66,28-26.88-12-29.79-32.7v-44Z"/><path class="cls-7" d="M320.92,168.86c-.1-14.11-.29-26.45-.29-26.45l-61.45,14.53v36c5.12,22.53,39.1,16.37,47.19-5C311,175.77,315,172.13,320.92,168.86Z"/><path class="cls-12" d="M242.89,123.5c2.31,35.67,16.84,70.19,39.88,66.55,28.57-4.52,37.24-47.84,36.11-71.46S304.29,80.22,283.81,80.2C264.33,80.18,240.93,93.3,242.89,123.5Z"/><path class="cls-13" d="M325.59,135.38c-1.53,7.11-5,12.51-7.73,12s-3.72-6.59-2.19-13.7,5-12.51,7.73-12S327.12,128.27,325.59,135.38Z"/><path class="cls-3" d="M243.35,129.08c-4.35-6.66-4.66-9.28-4.34-20.34s9.65-11.45,9.46-16.17,5.83-17.43,30.46-18.45,23.15,10.26,30.77,11,19.45,8.56,13.69,36.56c0,0-6.7.64-9.33,14.17a1.21,1.21,0,0,1-2.15.41,17.75,17.75,0,0,1-2.26-5.19c-1.84-6.76-9.21,3.4-10.54-10.09-1-9.61-24.4,8-41.79-7.56,0,0-2.58,3.44-10,3.22C243,116.51,243.35,129.08,243.35,129.08Z"/><path class="cls-14" d="M259.16,258.13s2,2.59,5.82-3.19,16.74-23.34,21.23-21.61l0,0c-9.11-1.89-24.41-13.73-27-32.4v-1.51c-7.25,1-14.19,2.24-20.79,3.64C236.55,213.34,244.28,246.73,259.16,258.13Z"/><path class="cls-14" d="M320.61,205.62c-.68,12.64-17.8,24.17-27.75,27.2h0c4.7-1.83,22,20.88,24.95,25.88s8.49-1.77,14-15.73c4-10.13,10.1-27.6,7.53-39.93a176.44,176.44,0,0,0-18.47-4.11C320.78,201.56,320.71,203.85,320.61,205.62Z"/><path class="cls-15" d="M259.18,200.9V190.31c-9.18,4-17.69,7.44-18.63,12.7-1.83,10.3,6.43,40.23,18.63,50.8,0,0,2,2.59,5.82-3.19s16.74-19,21.23-17.29l0,0C277.09,231.41,261.8,219.56,259.18,200.9Z"/><path class="cls-16" d="M336,199.1c-2.54-5.75-10.79-10.42-15-12.42,0,7.82-.12,14.78-.34,18.94-.68,12.64-17.8,24.17-27.75,27.2h0c4.7-1.83,22,16.56,24.95,21.56s6.69-.83,12.76-14.54C336.77,225.89,340.12,208.48,336,199.1Z"/><path class="cls-17" d="M435.8,380.91c0-40.37-11.76-121.27-30.41-142.66,0,0-29.2,15.62-38.43,65.12-2.76,14.79,1.94,57,3.15,74.89Z"/><path class="cls-18" d="M321.94,420.64h88.6c13.12,0,27.24-10.71,25.26-39.74s-49.47-25-65.69-2.65l-48.82,7.46Z"/><path class="cls-19" d="M277.3,418.87l4.19-3.93,12.74,4.52a20.62,20.62,0,0,0,6.89,1.19h25.29s12-2.56,12.36-16.69S327,385.71,321.71,385.71H294a20.21,20.21,0,0,1-4.14-.43l-19.72-4.12a12.14,12.14,0,0,0-8.53,1.36l-11.18,6.42a28.2,28.2,0,0,0-5.91,4.53L224.22,413.8a4,4,0,0,0,2.84,6.85h45.75A6.55,6.55,0,0,0,277.3,418.87Z"/><path class="cls-1" d="M512.27,124.18c-19-11-52.28,20.25-45.12,57.15S433.78,264,433.78,264,387.84,282.48,369.4,286a71.38,71.38,0,0,1,11.76,27.62c30.17-2.48,73.45-8.62,90.95-23.2,26.44-22,54.53-103.28,54.53-129.1C526.65,131.26,512.27,124.18,512.27,124.18Z"/><path class="cls-1" d="M364.6,286.54H305.2s-42.41,14.37-43.52,16.82-3.31,17.07,0,20.5,24.79,9.5,30.3,8.39,48.47-17.08,58.39-17.08c3.35,0,15.36-.32,30.78-1.59A71.38,71.38,0,0,0,369.4,286,27.34,27.34,0,0,1,364.6,286.54Z"/><path class="cls-3" d="M217.39,428h93.06a9.66,9.66,0,0,0,9.66-9.66h0a4.41,4.41,0,0,0-4.41-4.41H217.39a4.41,4.41,0,0,0-4.41,4.41v5.26A4.41,4.41,0,0,0,217.39,428Z"/><path class="cls-3" d="M52.68,428H247.06a11.36,11.36,0,0,0,11-14.37L223.71,288.77a18.62,18.62,0,0,0-18-13.69H11.37a11.36,11.36,0,0,0-11,14.37L34.72,414.34A18.63,18.63,0,0,0,52.68,428Z"/><path class="cls-20" d="M131.36,391c-7.43-.07-12.73-1.35-15.83-3.9s-4.31-5.17-3.94-8.07a4.45,4.45,0,0,1,1.21-2.64,6.1,6.1,0,0,1,2.45-1.67,10,10,0,0,1,3.61-.65,7.85,7.85,0,0,1,3.48.65,4.59,4.59,0,0,1,2.11,1.68,4.22,4.22,0,0,1,.68,2.67,4.46,4.46,0,0,1-1.48,3.1,7,7,0,0,1-3.17,1.6,8.83,8.83,0,0,0,4.57,2.17,30.74,30.74,0,0,0,6.46.7,18.76,18.76,0,0,0,8.26-1.71,11.32,11.32,0,0,0,5.39-5.22,17.16,17.16,0,0,0,1.6-7.89,17.69,17.69,0,0,0-1.81-8.15,10.53,10.53,0,0,0-5-5,15,15,0,0,0-7.06-1.54,17.21,17.21,0,0,0-6.31,1.77l-4.73,1.8.16-1.81,20.75-22.56-26,.79L114,359.77a6.14,6.14,0,0,0,1,4.62c.94,1.21,2.54,1.78,4.71,1.77a10.32,10.32,0,0,0,5-1.39A19.23,19.23,0,0,0,129,361.5a1.42,1.42,0,0,1,.53-.53,1.35,1.35,0,0,1,.67-.2,2.55,2.55,0,0,1,1.36.44,2,2,0,0,1,.67,1.55c0,.26-.2.66-.31,1.17a12.41,12.41,0,0,1-5.31,4.9,16.68,16.68,0,0,1-7.34,1.71c-6.53,0-10.82-.92-13.06-2.83s-2.91-4.52-2.37-7.77l3.76-22.61-13.22.41,1-4.17,13-.46,1.56-9.59L107.56,321l.38-2.17,8.06-.4,2.84,1.33-1.55,12.95L151,331.52l3.48,2.93-21.79,19.38a18.73,18.73,0,0,1,4.31-.92,20.78,20.78,0,0,1,8.24,1.84,16.92,16.92,0,0,1,7.38,5.18,19,19,0,0,1,3.66,6.4,24.07,24.07,0,0,1,1.12,5.49,17.36,17.36,0,0,1-2.62,10.13,17.16,17.16,0,0,1-9.4,6.92A42.14,42.14,0,0,1,131.36,391Z"/></g></g></svg>