<svg xmlns="http://www.w3.org/2000/svg" xmlns:xlink="http://www.w3.org/1999/xlink" viewBox="0 0 460.43 311.29"><defs><style>.cls-1{isolation:isolate;}.cls-2{opacity:0.63;mix-blend-mode:multiply;}.cls-3{fill:url(#linear-gradient);}.cls-4{fill:#fff;}.cls-5{fill:#d4aa8c;}.cls-6{fill:#341239;}.cls-7{fill:#ecd1bd;}.cls-8{fill:#1c1e1e;}.cls-9{fill:#5828b4;}.cls-10{fill:#ffd54d;}.cls-11{fill:#fdb037;}.cls-12{fill:#fcbd11;}.cls-13{fill:#ffdb53;}.cls-14{fill:#212121;}.cls-15{fill:#002d51;}.cls-16{fill:#2d1982;}.cls-17{fill:#5c6bc0;}.cls-18{fill:#ff4074;}.cls-19{fill:#6c40bf;}.cls-20{fill:#001462;}.cls-21{fill:#f1f1f1;}.cls-22{fill:#e69a24;}</style><linearGradient id="linear-gradient" y1="285.57" x2="460.43" y2="285.57" gradientUnits="userSpaceOnUse"><stop offset="0" stop-color="#fff"/><stop offset="1" stop-color="#b39ddb"/></linearGradient></defs><title>3</title><g class="cls-1"><g id="Layer_2" data-name="Layer 2"><g id="Layer_1-2" data-name="Layer 1"><g class="cls-2"><path class="cls-3" d="M211.23,259.87a369.11,369.11,0,0,0-40.43,1.89c-5.07.57-10,1.84-15.13,2.34-10.16,1-20.14,2.91-30.33,3.79-8.21.7-16.46,1.12-24.64,2a85.35,85.35,0,0,1-23.79-.74c-5.64-1-11.3-1.6-16.85-3.25a67.86,67.86,0,0,0-19.4-3.11c-9.21.07-18.19.08-27,3.33-3.1,1.14-6.88,3-9.24,5.41C-1,277-1.69,290.71,3.68,296.4c9,9.57,28.36,13.33,41,13.51,13.9.19,27.4-.85,41.32-1.47,12.93-.57,25.84-1.39,38.79-1.36,26.46.06,52.93,0,79.34-1.8,24.82-1.69,49.7-1.11,74.57-1.11,25.5,0,50.84.2,76.16,3.65,11,1.5,22.27,2,33.36,3.08,9.93.94,19.47,0,29.36-.89a69.2,69.2,0,0,0,24.1-6.56c6-2.9,16.62-11.91,18.45-18.84,5.13-19.41-72.36-18.95-84.26-18.9-13.31,0-26.73.49-40,0a92.94,92.94,0,0,1-16.57-2.55c-5.44-1.21-10.92-.9-16.43-1.41-23-2.13-46.05-1.82-69.13-1.82C226.26,259.91,218.75,259.84,211.23,259.87Z"/></g><path class="cls-4" d="M91.16,155.15c-.17,5-.32,10.2-3,14.34a78.47,78.47,0,0,0,14.69-2c.35-10.38,2.74-20.57,3.92-30.89a196.48,196.48,0,0,0,.94-26.81,132.52,132.52,0,0,0-1.89-21.66,45.49,45.49,0,0,0-4.84-14.41,1.35,1.35,0,0,0-.54-.64,1.3,1.3,0,0,0-.73,0c-4.31.58-3.53,1.45-3.25,5.06.23,2.92-.28,5.84-.42,8.75-.27,5.57-.65,11.13-1.09,16.69-.87,11.13-1.94,22.23-2.75,33.36C91.73,143,91.37,149.06,91.16,155.15Z"/><path class="cls-5" d="M315.2,64.44c.28,0,.55-.06.78-.07a18,18,0,0,1,4.94.42,2.13,2.13,0,0,1,.82.32,2.27,2.27,0,0,1,.48.55A44.36,44.36,0,0,0,327,71.22c1.31,1.35,3.31,3.48,2.2,5.5A5.39,5.39,0,0,1,328,78.38a4.48,4.48,0,0,1-1.49.72c-.41.13-1,.45-1.43.23s-1-1.34-1.25-1.75l-2.51-3.51c-.82-1.15-1.88-2.43-3.19-2.39a5.92,5.92,0,0,1-.85.05,2.4,2.4,0,0,1-.92-.38,17.56,17.56,0,0,1-3-2.25c-.84-.8-.68-1.66-.77-2.71C312.44,65.07,314,64.61,315.2,64.44Z"/><path class="cls-6" d="M345.78,102.56a23.11,23.11,0,0,1-8.18-4.85,94.9,94.9,0,0,1-17.4-20.17,26.21,26.21,0,0,1,8.68-7.26A149.15,149.15,0,0,0,345.3,84.62c2.83,2.13,5.65,3.56,8.95,2.58A138.81,138.81,0,0,0,375.62,79a14,14,0,0,1,4.77-1.66c3.14-.28,6.43,1.68,8.37,4.51a15.2,15.2,0,0,1,2.39,9.65,10.23,10.23,0,0,1-2.38,6.33c-1.58,1.67-3.89,2.37-6.13,2.94a101.77,101.77,0,0,1-31,2.88A23.32,23.32,0,0,1,345.78,102.56Z"/><path class="cls-7" d="M387,290.86l-4.07,0a99.28,99.28,0,0,1-1.57-15.2c1.93.93,4.5.17,5,3.66C386.56,280.43,386.73,290.86,387,290.86Z"/><path class="cls-8" d="M382.87,288.47a2.45,2.45,0,0,0-1.64,1.34,7.91,7.91,0,0,1-.66,1.27,2.34,2.34,0,0,1-1,.65,22.11,22.11,0,0,0-4.61,2,6.46,6.46,0,0,1-1.87.86,1.21,1.21,0,0,0-.56.26,1,1,0,0,0-.21.71,2.9,2.9,0,0,0,1.76,2.42c1.12.51,2.4.53,3.55,1a7.16,7.16,0,0,0,4.15.14c2.81-.63,5.36-2.19,7.85-3.63a1.3,1.3,0,0,0,.58-.55,2.41,2.41,0,0,0,.13-1.06c-.06-2.05-.11-5.18-2.17-5.09-.88,0-1.66.8-2.61.77C384.77,289.52,383.47,288.36,382.87,288.47Z"/><path class="cls-9" d="M362.22,219.81a23.84,23.84,0,0,0,.47,12.64l13.79,57.33,9.05-.71c1.36-.11,3.78-1.26,5.06-1.74a23.13,23.13,0,0,0,0-3.15c-2.38-23-6.1-40.48-5-60.86.27-5.13,3.17-8.54,5.64-13,8.37-15.12,10-27.83,13.8-37.78.24-.63-25-3.22-26.29-3.34-3.18-.32-5.89-.26-7.62,2.86-1.91,3.45-2.06,8.4-2.73,12.22q-1.49,8.4-2.94,16.8Q363.8,210.45,362.22,219.81Z"/><path class="cls-7" d="M418.68,291.17l-4.36.4a98.91,98.91,0,0,1-3.2-15.48c2.15.76,4.83-.29,5.74,3.24C417.16,280.48,418.39,291.2,418.68,291.17Z"/><path class="cls-8" d="M414,289.14a2.62,2.62,0,0,0-1.62,1.55,8.07,8.07,0,0,1-.58,1.38,2.53,2.53,0,0,1-1,.77,24.25,24.25,0,0,0-4.73,2.56,7.07,7.07,0,0,1-1.91,1.08,1.33,1.33,0,0,0-.57.32,1,1,0,0,0-.16.76,3,3,0,0,0,2.12,2.31c1.25.41,2.62.29,3.89.62a8,8,0,0,0,4.46-.28c2.95-.94,5.52-2.81,8-4.56a1.37,1.37,0,0,0,.57-.63,2.41,2.41,0,0,0,0-1.1c-.27-2.1-.63-5.31-2.83-5-.94.13-1.69,1-2.71,1.06C416.16,290,414.64,289,414,289.14Z"/><path class="cls-9" d="M399.3,246.83c3.23,13.34,7.67,26.51,8.54,40.2a2.88,2.88,0,0,0,.53,1.82,2.68,2.68,0,0,0,1.76.65,24.18,24.18,0,0,0,12-1.87c0-7.16-2-14.14-3.18-21.2-1.42-8.71-1.42-17.57-1.39-26.39.07-21.54,6.61-44.26,4.76-65.72-.35-4.06-7.08-7-8.68-10.8a55.79,55.79,0,0,1-25.8-.76c.33,4.41,1.31,8.32,2,12.61.92,5.64.92,11.56,1.41,17.25,1,11.63,2.25,23.26,4.14,34.79C396.47,233.93,397.74,240.41,399.3,246.83Z"/><path class="cls-6" d="M405.19,72.8a14.5,14.5,0,0,1,5,2.91c4.26,4,7.77,9.55,10.56,14.68a108.34,108.34,0,0,1,11.6,34.21c3.22,20,1.21,40.54-1.87,60.59Q393,174.95,354.94,167c2.72.57,10.95-14.85,12.16-17.18,3.16-6,6.81-13.71,7.19-20.71.67-12.39-2.51-24.68-1.39-37.06.43-4.71,0-8.9,3.17-12.63a23.55,23.55,0,0,1,13.39-7.66A32.46,32.46,0,0,1,405.19,72.8Z"/><path class="cls-4" d="M386.64,78.3a22.18,22.18,0,0,1,.08,3.11,52.34,52.34,0,0,1-1.37,8.2c-.57,2.33-1.29,4.63-1.77,7a61.18,61.18,0,0,0-.91,7.8c-1.2,17.19-1.07,34.68-5.81,51.25-1.11,3.87-2.48,7.69-3,11.69a3,3,0,0,0,.44,2.47,3.16,3.16,0,0,0,2,.74q8.29,1,16.59,1.93c-.5-6.86.7-13.71,1.45-20.54a160.49,160.49,0,0,0,.38-31.33c-.7-8.19-2-16.31-2.71-24.51-.38-4.7-1.19-9.5-.41-14.21.38-2.25,2.44-4.51,2.7-6.45.36-2.64-2.85-1.45-5-1C386.7,75,386.53,76.42,386.64,78.3Z"/><circle class="cls-10" cx="322.6" cy="136.53" r="69.85"/><circle class="cls-11" cx="322.6" cy="136.53" r="59.28"/><path class="cls-12" d="M353.61,85.94a59.29,59.29,0,0,1-81,82.46,59.29,59.29,0,1,0,81-82.46Z"/><path class="cls-13" d="M273.7,142a52.33,52.33,0,0,1,93.81-31.9,52.33,52.33,0,1,0-86.86,58A52.09,52.09,0,0,1,273.7,142Z"/><path class="cls-5" d="M386.45,77.22c.16.26,5.11-1,5.66-1.15,1.72-.36,2.47-1,2.38-2.94a15.4,15.4,0,0,1,.85-6c.56-1.58,1.67-2.81,2.29-4.35a21.54,21.54,0,0,0,1.22-4.21,31,31,0,0,0,.42-7.14c-.09-1.83-1-3.44-1.51-5.2a10.57,10.57,0,0,0-1.62-3.79c-1.5-1.91-4.11-2.54-6.53-2.71-6.9-.48-19.18,2.68-18.46,11.55a36.09,36.09,0,0,0,1.1,5.75c1,4,1.44,11.66,6.34,13,1.38.38,2.94.07,4.22.71C385.08,71.89,385.11,75.07,386.45,77.22Z"/><path class="cls-14" d="M409.74,37.13a14.88,14.88,0,0,1-5.15-3.21A11.56,11.56,0,0,0,399.28,31c-1.82-.28-3.63.3-5.46.35A41.08,41.08,0,0,1,388,30.7a17.5,17.5,0,0,0-14.88,5.47c-2.13,2.4-5.59,8-3.74,11.29a2.94,2.94,0,0,0,1.95,1.43c1.08.22,2.25-.32,3.3,0a3.76,3.76,0,0,1,1.73,1.37,13,13,0,0,0,4,3.46,11.3,11.3,0,0,0,5.1.58,2.17,2.17,0,0,0,1.11-.25c.47-.3.62-.89.87-1.39A2.71,2.71,0,0,1,390,51a1.83,1.83,0,0,1,1.57,2.29c-.39,1-1.67,1.28-2.73,1.52-.32.07-.71.23-.73.56a.8.8,0,0,0,.32.56l5,4.85c1,1,3.28,4.36,4.75,2.75,2.47-2.72,2.57-6.38,4.86-9a28.75,28.75,0,0,0,2.82-3.8c1.6-2.57,2.39-5.55,4.43-7.83.77-.86,1.75-1.53,2.53-2.39a7.72,7.72,0,0,0,2-5.28C414.13,37.09,411.7,37.67,409.74,37.13Z"/><path class="cls-5" d="M316.69,69.23a1.61,1.61,0,0,0,.64-.53L318.75,67a2.57,2.57,0,0,1,1.4,1.5c.15.42.26,1,.68,1.06s.88-.53,1-1.06.17-.83.23-1.25a1.74,1.74,0,0,0-.11-1.14,1.7,1.7,0,0,0-.91-.63,15.92,15.92,0,0,0-4.42-.91c-1.11-.09-2.87-.47-3.81.31a1.64,1.64,0,0,0-.22,2.38C313.21,68,315.76,69.56,316.69,69.23Z"/><path class="cls-15" d="M391.82,76.54a2,2,0,0,1,1.26.82,1.76,1.76,0,0,1-.66,2.07c-.61.5-1.38.78-2,1.3-1.37,1.19-1.48,3.25-1.49,5.07q-.18,30-2.35,60l-4.38,1.81A32.53,32.53,0,0,1,380.28,137a50.31,50.31,0,0,1,.95-8c1.72-10.16,3.11-20.37,4.37-30.6.63-5.06,1.29-10.13,1.82-15.21.17-1.67-.35-3.66-.1-5.2C387.68,75.65,389.57,75.87,391.82,76.54Z"/><path class="cls-5" d="M348,140.39q-.07-.43-.13-.86a1.31,1.31,0,0,1,0-.52,1.29,1.29,0,0,1,.25-.44,20.71,20.71,0,0,1,4.12-3.76c.57-.43.6-.49,1.31-.32s1.59.48,2.37.75c1.12,0,2.24,0,3.35-.07,2.82-.26,8.5-3.8,10.53-.83a5.39,5.39,0,0,1,.93,1.83,4.48,4.48,0,0,1,0,1.66c-.07.43-.07,1.12-.44,1.38a7.41,7.41,0,0,1-2.12.33l-4.26.66c-1.39.22-3,.59-3.57,1.77a5.91,5.91,0,0,1-.34.78,2.4,2.4,0,0,1-.76.65,17.56,17.56,0,0,1-3.38,1.71c-1.09.39-1.79-.13-2.77-.53s-2.16-.22-3.2-.54-1.38-1.18-1.6-2.21Q348.15,141.12,348,140.39Z"/><path class="cls-6" d="M400.36,131.18a23.11,23.11,0,0,1-8,5.12,94.9,94.9,0,0,1-25.85,6.47,26.21,26.21,0,0,1-2.58-11,149.15,149.15,0,0,0,20.2-8.2c3.18-1.57,5.71-3.44,6.33-6.83a138.83,138.83,0,0,0,2.25-22.79,14,14,0,0,1,.66-5c1.16-2.93,4.4-5,7.79-5.44a15.2,15.2,0,0,1,9.69,2.21,10.23,10.23,0,0,1,4.58,5c.78,2.17.37,4.54-.13,6.8a101.77,101.77,0,0,1-11.37,29A23.32,23.32,0,0,1,400.36,131.18Z"/><path class="cls-16" d="M280.58,32.34A72,72,0,0,0,230.8,4.25a77.58,77.58,0,0,0-31.81,3,80.23,80.23,0,0,0-19.76,9.23L173.65,3.61,172.08,0l-1.18,3.76-9.35,29.89-.62,2,2.07-.07,31.31-1.08,4.12-.14-3.28-2.49-9.57-7.27A68.52,68.52,0,0,1,222,14a67.48,67.48,0,0,1,7.64.44,61.82,61.82,0,0,1,42.8,24.12l.88,1.17,1.17-.88,5.82-4.4.5-.37.08-.63.08-.62Z"/><path class="cls-16" d="M160.85,249.31A72.54,72.54,0,0,0,211,277.62a78.19,78.19,0,0,0,32.06-3A80.86,80.86,0,0,0,263,265.31l5.63,13,1.58,3.64,1.19-3.79L280.81,248l.62-2-2.08.07-31.55,1.09-4.15.14,3.3,2.51,9.64,7.33a69.05,69.05,0,0,1-36.7,10.66,68,68,0,0,1-7.7-.44,62.31,62.31,0,0,1-43.13-24.31l-.89-1.18-1.18.89-5.87,4.44-.5.37-.08.63-.08.63Z"/><path class="cls-7" d="M178.45,62a2.93,2.93,0,0,0-.48-.17c-1.55-.39-2.6.81-4,.85-.63,0-2.12-1.15-2.46-.16-.12.37-.65,1.57-1.1,2.8-.72.82-1.4,1.68-2.2,2.44-2,1.9-8.49,3.55-7.4,7.2a6.24,6.24,0,0,0,.87,2A5.36,5.36,0,0,0,163,78.16c.39.26.95.76,1.39.68s1.24-1,1.62-1.33l3.26-2.68c1.07-.88,2.4-1.81,3.71-1.36a6.65,6.65,0,0,0,.85.32,2.36,2.36,0,0,0,1-.09,16.17,16.17,0,0,0,3.54-1.27c2-1,2.39-4.51,2.76-6.45a3.31,3.31,0,0,0,0-1.46,3.52,3.52,0,0,0-1.54-1.76A7.05,7.05,0,0,0,178.45,62Z"/><path class="cls-17" d="M138.71,94.57A19.79,19.79,0,0,0,144,94.5a17.71,17.71,0,0,0,4-1.42A84.31,84.31,0,0,0,169.69,78.6a31.33,31.33,0,0,0-7.23-9.9,135.06,135.06,0,0,1-19.52,9,16.34,16.34,0,0,1-4.24,1.12,17.42,17.42,0,0,1-6.22-1L108.84,71c-4.75-1.38-9.69-2.77-14.58-2-13.56,2-13,19.43-.51,22.33C107.75,94.56,124.34,93.48,138.71,94.57Z"/><path class="cls-7" d="M11.65,271.19a37.66,37.66,0,0,0,3.38,3.4,74,74,0,0,0,12.25-10.92c-3.17-.54-3.67-3.35-7.49-.58C18.54,264,13.78,269.93,11.65,271.19Z"/><path class="cls-8" d="M17.7,273a2.45,2.45,0,0,1,.76,2.3,6.52,6.52,0,0,0-.15,1.57,3.69,3.69,0,0,0,.66,1.37c1.63,2.45,6,7.58-.05,7.91-5.49.3-9.62-7.51-11.86-12.14a1.73,1.73,0,0,1-.29-1,2.36,2.36,0,0,1,.44-1c1.25-1.77,2.77-4,5.07-2.6,1,.61,1.06,1.85,2.11,2.49C15.26,272.47,16.93,272.36,17.7,273Z"/><path class="cls-18" d="M39.16,180.38C37.93,191,53.87,202.17,50.65,210.74c-6.73,17.93-20.47,33-31.8,46.93-.81,1-6.05,6.52-7.2,7.78,2.42,3.46,6,5.86,9.24,8.83,16.19-12.25,45.24-34.95,53-45.38,10.59-14.17,12.82-40.75,17.89-59.11.84-3,2.1-7.42.18-10.32-1.48-2.23-3.67-3.27-6.46-4.09-7.49-2.18-17.65-6.61-25-2.25C52.5,157.88,40.11,172.19,39.16,180.38Z"/><path class="cls-7" d="M117.89,277c1.64.34,3.28.17,4.92.35a80.54,80.54,0,0,0,2.42-17.27c-2.87,1.89-5.05.11-6.16,5C118.72,266.61,118.8,274.52,117.89,277Z"/><path class="cls-8" d="M123.85,274.28a2.58,2.58,0,0,1,2.1,1.3,11.77,11.77,0,0,0,.87,1.35,2.88,2.88,0,0,0,1.39.6c2.87.71,9.58,1.73,5.21,6-4,3.88-12.23.7-17-1.3a1.84,1.84,0,0,1-.87-.53,2.36,2.36,0,0,1-.34-1.07c-.25-2.14-.6-5,2.09-5.43,1.15-.19,2.11.7,3.33.48C121.63,275.49,122.82,274.28,123.85,274.28Z"/><path class="cls-18" d="M75.14,190.1c7.87,7.73,30.38,13.4,34,22.3,1.47,3.57,5.12,30.91,5.85,49.49.05,1.33-1.27,9-1.28,10.75,4.19,1.18,9.39-.14,13.91.17,3.3-21.41,7.2-63,7.2-63-4.47-18.72-26.07-40.2-38.05-57.07-2-2.79-4.31-6.62-7.87-7.09-2.73-.36-4.89.59-7.35,2.16C75,152,55.15,158.75,53.69,167.13,52.1,176.29,69.1,184.16,75.14,190.1Z"/><path class="cls-19" d="M78.52,72.62c-6.85,6-17.16,11.54-21.27,19.93-9.95,20.29-16,42.08-19.13,64.35l-2.76,19.53c-.9,6.41-.68,7.89,4.55,8.36,10.58,1,22-2.51,32.19-5.24a25.83,25.83,0,0,0,7.47-2.92c3.4-2.2,5.8-5.9,9.54-7.45a19.47,19.47,0,0,1,5.61-1.12c4.08-.4,8.65-.66,11.8,2,1.84,1.54,2.77,4,4.65,5.41,1.31-1.8-.51-7.38-.83-9.62a86.29,86.29,0,0,1-1-10.34,193.49,193.49,0,0,1,.91-21.08c1.08-12.22,1.64-24.5,2.64-36.7.72-8.73,2.53-15.57-3.41-23-3.24-4-9.17-11-14.53-10.9C89.28,64,82.56,69.06,78.52,72.62Z"/><path class="cls-7" d="M110.12,61.18c-2,1.88-4.48,3.1-6.73,4.64a15.32,15.32,0,0,0-4.76,5.39c-1,1.61-2.11,2.71-4.29,2.16-4.12-1-1.7-3.8-1.64-6.5.07-3.09-1.23-6.08-1.77-9.09-1.56-8.68,5.2-21.85,15.43-21.09C117.54,37.51,116.14,55.48,110.12,61.18Z"/><path class="cls-14" d="M96.81,46.22a2.81,2.81,0,0,0-1.12,3.48c.33.63.95,1.07,1.33,1.68,1.12,1.77-.18,4.13-1.82,5.44s-3.69,2.21-4.8,4c-5.57-4.53-9.84-11.09-10.23-18.26A18.05,18.05,0,0,1,85.8,28.45c4.52-4.12,9.09-3.89,15-4.39a20.53,20.53,0,0,1,6.7.15c2,.5,3.48,1.93,5.35,2.57,3.09,1.06,8.25,0,10.66-2.32,1.48-1.39,2.35-3.52,4.22-4.32a4.35,4.35,0,0,1,5.13,1.74,6,6,0,0,1,.25,5.64c-.53,1.17-1.35,2.18-1.86,3.35-1.05,2.48-.56,5.45-1.78,7.85s-4.15,3.83-6.86,4.71-5.87,1.7-7.91,4c.37-1.53-2.08-4.95-3.7-5.3-2.1-.45-5.42,1.94-7.57,2.45S98.64,45,96.81,46.22Z"/><path class="cls-20" d="M97.55,87.58C94.9,91,92.89,95.2,93.41,99.49c.55,4.59,3.92,8.7,3.49,13.3-.2,2.07-1.15,4-1.74,6s-.74,4.32.51,6c1,1.3,2.72,2.08,3.12,3.65,3-3.91,6.11-8,7.13-12.81a17.49,17.49,0,0,0-1.05-10.38c-1.37-3.23-3.72-6.28-3.57-9.79.14-3.27,2.38-5.88,4.08-8.5,1.94-3,0-7.62-1.35-10.64-.65-1.44-1.64-3-3.2-3.23a5.32,5.32,0,0,0-1.4,0,4.42,4.42,0,0,0-1.63.38,1.51,1.51,0,0,0-.87,1.33,2.11,2.11,0,0,1,2.24.86c1.13,1.48,1.56,4.68,1.29,6.5C100.15,84.2,98.82,86,97.55,87.58Z"/><circle class="cls-10" cx="148.39" cy="131.06" r="69.3" transform="translate(10.2 272.84) rotate(-87.19)"/><circle class="cls-11" cx="148.39" cy="131.06" r="58.81" transform="translate(10.2 272.84) rotate(-87.19)"/><path class="cls-12" d="M181.59,82.43A58.82,58.82,0,0,1,97.34,160.2a58.82,58.82,0,1,0,84.25-77.77Z"/><path class="cls-13" d="M99.67,134.06a51.92,51.92,0,0,1,94.51-27,51.92,51.92,0,1,0-88.89,53.23A51.68,51.68,0,0,1,99.67,134.06Z"/><path class="cls-7" d="M111.41,163.51a3,3,0,0,0,.13-.49c.27-1.58-1-2.54-1.15-4-.07-.63,1-2.2,0-2.48-.37-.1-1.61-.53-2.87-.89-.87-.66-1.78-1.28-2.59-2-2-1.87-4.17-8.23-7.71-6.86a6.21,6.21,0,0,0-1.94,1,5.37,5.37,0,0,0-1.07,1.44c-.23.41-.69,1-.57,1.44s1.11,1.17,1.45,1.52L98,155.3c1,1,2,2.27,1.63,3.6a6.69,6.69,0,0,0-.25.87,2.38,2.38,0,0,0,.16,1,16.25,16.25,0,0,0,1.53,3.44c1.17,1.91,4.67,2.06,6.62,2.28a3.28,3.28,0,0,0,1.45-.06,3.52,3.52,0,0,0,1.64-1.67A7.08,7.08,0,0,0,111.41,163.51Z"/><path class="cls-21" d="M97.54,156.91a.81.81,0,0,0,.42-.18,26.64,26.64,0,0,0,6.1-5.64l-2.42-2.55a.55.55,0,0,0-.21-.16c-.17-.06-.35.06-.49.18l-4.64,3.79c-.69.57-1.94,1.33-1.58,2.33A6.89,6.89,0,0,0,97.54,156.91Z"/><path class="cls-19" d="M76.06,126.21a19.92,19.92,0,0,0,.46,5.27,17.79,17.79,0,0,0,1.71,3.86,78.92,78.92,0,0,0,15.37,20c3.59-2,6.45-5.52,9-8.75a115.1,115.1,0,0,1-9.46-17.44A16.43,16.43,0,0,1,91.7,125a17.53,17.53,0,0,1,.54-6.3L97.3,94.6c1-4.85,2-9.89.94-14.72C95.19,66.47,77.95,68.36,76,81,73.77,95.26,76.08,111.77,76.06,126.21Z"/><path class="cls-21" d="M100.33,145.87c-.51-.29-1.37-.06-1.41.59a.87.87,0,0,0,.91.87c.76-.05,1.21-1,.53-1.44Z"/><path class="cls-21" d="M98.56,143.47c-.51-.29-1.37-.06-1.41.59a.87.87,0,0,0,.91.87c.76-.05,1.21-1,.53-1.44Z"/><path class="cls-22" d="M330,171.24q-6.91,0-10.08-3.33a10.27,10.27,0,0,1-3.17-7.17,4.76,4.76,0,0,1,.55-2.37,4.1,4.1,0,0,1,1.51-1.51,5.27,5.27,0,0,1,4.71,0,4,4,0,0,1,1.5,1.51,4.66,4.66,0,0,1,.57,2.37,4.53,4.53,0,0,1-.81,2.77,3.76,3.76,0,0,1-1.92,1.4,5.23,5.23,0,0,0,3,1.89,15,15,0,0,0,4.12.59,9.19,9.19,0,0,0,5.19-1.55,9.07,9.07,0,0,0,3.39-4.59,19.93,19.93,0,0,0,1.11-6.87,18.84,18.84,0,0,0-1.21-7.14,8.81,8.81,0,0,0-3.5-4.44,9.3,9.3,0,0,0-5-1.44,9.59,9.59,0,0,0-4.37,1.48l-3.24,1.62v-1.62l14.55-19.52H316.77v20.25a7.25,7.25,0,0,0,1.11,4.14,3.82,3.82,0,0,0,3.39,1.62,5.67,5.67,0,0,0,3.35-1.18,12.09,12.09,0,0,0,2.8-2.88,1,1,0,0,1,.36-.48.75.75,0,0,1,.49-.18,1.68,1.68,0,0,1,.95.4,2,2,0,0,1,.51,1.37,8,8,0,0,1-.18,1,9.76,9.76,0,0,1-3.46,4.29,8.58,8.58,0,0,1-4.85,1.47q-6.55,0-9.07-2.58a9.67,9.67,0,0,1-2.5-7.06v-20.2H299.41v-3.76h10.3V111l-2.36-2.36v-1.92h6.85l2.57,1.33v11.53l26.64-.08,2.65,2.66-16.33,16.41a11,11,0,0,1,3.09-.75,13.37,13.37,0,0,1,6,1.7,12.26,12.26,0,0,1,5.14,4.59,16.19,16.19,0,0,1,2.32,5.54,23.32,23.32,0,0,1,.55,4.74,19.82,19.82,0,0,1-2,8.78,12.88,12.88,0,0,1-6,6A19.58,19.58,0,0,1,330,171.24Z"/><path class="cls-22" d="M155.52,165.49q-6.91,0-10.08-3.33a10.27,10.27,0,0,1-3.17-7.17,4.76,4.76,0,0,1,.55-2.37,4.1,4.1,0,0,1,1.51-1.51,5.27,5.27,0,0,1,4.71,0,4,4,0,0,1,1.5,1.51,4.66,4.66,0,0,1,.57,2.37,4.53,4.53,0,0,1-.81,2.77,3.76,3.76,0,0,1-1.92,1.4,5.23,5.23,0,0,0,3,1.89,15,15,0,0,0,4.12.59,9.19,9.19,0,0,0,5.19-1.55,9.07,9.07,0,0,0,3.39-4.59,19.93,19.93,0,0,0,1.11-6.87,18.84,18.84,0,0,0-1.21-7.14,8.81,8.81,0,0,0-3.5-4.44,9.3,9.3,0,0,0-5-1.44,9.59,9.59,0,0,0-4.37,1.48l-3.24,1.62v-1.62l14.55-19.52H142.27v20.25a7.25,7.25,0,0,0,1.11,4.14,3.82,3.82,0,0,0,3.39,1.62,5.67,5.67,0,0,0,3.35-1.18,12.09,12.09,0,0,0,2.8-2.88,1,1,0,0,1,.36-.48.75.75,0,0,1,.49-.18,1.68,1.68,0,0,1,.95.4,2,2,0,0,1,.51,1.37,8,8,0,0,1-.18,1,9.76,9.76,0,0,1-3.46,4.29,8.58,8.58,0,0,1-4.85,1.47q-6.55,0-9.07-2.58a9.67,9.67,0,0,1-2.5-7.06v-20.2H124.91v-3.76h10.3v-8.58l-2.36-2.36V101h6.85l2.57,1.33v11.53l26.64-.08,2.65,2.66-16.33,16.41a11,11,0,0,1,3.09-.75,13.37,13.37,0,0,1,6,1.7,12.26,12.26,0,0,1,5.14,4.59,16.19,16.19,0,0,1,2.32,5.54,23.32,23.32,0,0,1,.55,4.74,19.82,19.82,0,0,1-2,8.78,12.88,12.88,0,0,1-6,6A19.58,19.58,0,0,1,155.52,165.49Z"/></g></g></g></svg>