<svg xmlns="http://www.w3.org/2000/svg" xmlns:xlink="http://www.w3.org/1999/xlink" viewBox="0 0 399.99 351.87"><defs><style>.cls-1{fill:#231f20;opacity:0.1;}.cls-2{fill:#ffd54d;}.cls-3{fill:#d19e00;}.cls-4{fill:#f7f7f7;}.cls-4,.cls-6,.cls-8{opacity:0.2;}.cls-5{fill:#d6a300;}.cls-6{fill:#fcfcfc;}.cls-7{fill:#d9a600;}.cls-14,.cls-8{fill:#fff;}.cls-9{fill:url(#Gradiente_sem_nome_140);}.cls-10{fill:#2d1982;}.cls-11{fill:url(#linear-gradient);}.cls-12{fill:#9575cd;}.cls-13{opacity:0.5;}.cls-15{fill:#ffdb05;}.cls-16{fill:#d6b60b;}.cls-17{fill:#ecbd0c;}.cls-18{fill:#ffcc05;}.cls-19{fill:#f0f1f1;}.cls-20{fill:#fcc902;}</style><linearGradient id="Gradiente_sem_nome_140" x1="35.28" y1="186.41" x2="306.56" y2="186.41" gradientUnits="userSpaceOnUse"><stop offset="0" stop-color="#8b3fae"/><stop offset="1" stop-color="#3f02a8"/></linearGradient><linearGradient id="linear-gradient" x1="35.27" y1="174.23" x2="132.01" y2="174.23" gradientUnits="userSpaceOnUse"><stop offset="0.39" stop-color="#9575cd"/><stop offset="0.55" stop-color="#7e57c2"/></linearGradient></defs><title>4</title><g id="Layer_2" data-name="Layer 2"><g id="Layer_1-2" data-name="Layer 1"><path class="cls-1" d="M347.79,298.58c7.37-2.93,11.41-6.1,11.41-9.41,0-14.79-80.41-26.79-179.6-26.79S0,274.38,0,289.17,80.41,316,179.6,316c17.64,0,34.69-.38,50.79-1.09-3.16,2.88-4.88,6-4.88,9.19,0,15.36,39.06,27.81,87.24,27.81S400,339.42,400,324.06C400,312.67,378.52,302.88,347.79,298.58Z"/><circle class="cls-2" cx="106.52" cy="98.72" r="56.03" transform="translate(-17.17 22.62) rotate(-11.22)"/><path class="cls-3" d="M62.09,107.53a45.3,45.3,0,1,1,53.25,35.62A45.35,45.35,0,0,1,62.09,107.53Zm81.85-16.24a38.15,38.15,0,1,0-30,44.84A38.19,38.19,0,0,0,143.94,91.29Z"/><circle class="cls-4" cx="106.52" cy="98.72" r="38.15" transform="translate(-17.17 22.62) rotate(-11.22)"/><path class="cls-3" d="M119,109.81l-2.28-11.49,1.9-.38a12.65,12.65,0,0,0,3.9-1.19,1.68,1.68,0,0,0,.6-1.89A1.79,1.79,0,0,0,122,93.44a4.6,4.6,0,0,0-2.54,0q-2.7.54-3.57,1.83a42.92,42.92,0,0,0-3,7,47.18,47.18,0,0,1-2.87,6.78,11.14,11.14,0,0,1-3.45,3.48,16.76,16.76,0,0,1-6.2,2.37q-6.14,1.22-10.22-1t-6.08-8l-4.32.86-1-5.29,4.46-.89a14.06,14.06,0,0,1,1.94-8.75q2.4-4.05,10.08-5.58l2.25-.45,2.28,11.49-2.81.56a27.06,27.06,0,0,0-5.69,1.5,1.63,1.63,0,0,0-.78,1.94,2,2,0,0,0,1.13,1.58,4,4,0,0,0,2.43.11,20.29,20.29,0,0,0,5.42-1.64q1.56-.87,2.89-4.42a81.68,81.68,0,0,1,3.43-8.11,13.07,13.07,0,0,1,3.72-4.14,14.56,14.56,0,0,1,6.1-2.64q5.15-1,8.65,1.31t5.35,8l3.67-.73,1,5.29-3.67.73q.37,5.45-2,8.67t-7.45,4.23Q120.47,109.63,119,109.81Z"/><circle class="cls-2" cx="160.48" cy="63.07" r="56.03" transform="translate(52.27 197.32) rotate(-72.59)"/><path class="cls-5" d="M117.25,49.52a45.3,45.3,0,1,1,29.67,56.78A45.35,45.35,0,0,1,117.25,49.52Zm79.62,25a38.15,38.15,0,1,0-47.82,25A38.19,38.19,0,0,0,196.88,74.49Z"/><circle class="cls-6" cx="160.48" cy="63.07" r="38.15" transform="translate(52.27 197.32) rotate(-72.58)"/><path class="cls-7" d="M186.36,73.76q-2.33,4.88-5.75,6a8,8,0,0,1-6.14-.18A3.73,3.73,0,0,1,173,78.39a3.21,3.21,0,0,1-.56-1.58A4.13,4.13,0,0,1,174,73.48a3.16,3.16,0,0,1,1.58-.55,3.65,3.65,0,0,1,1.87.39,3.55,3.55,0,0,1,1.69,1.51,2.94,2.94,0,0,1,.35,1.83,4.1,4.1,0,0,0,2.35-1.5,11.74,11.74,0,0,0,1.81-2.72,7.2,7.2,0,0,0,.65-4.2,7.11,7.11,0,0,0-2.1-3.94,15.61,15.61,0,0,0-4.48-3.1,14.76,14.76,0,0,0-5.46-1.55,6.9,6.9,0,0,0-4.32,1,7.29,7.29,0,0,0-2.72,3.08,7.51,7.51,0,0,0-.42,3.59l.06,2.84-1.15-.55-8.9-16.87L148,67l14.32,6.83a5.68,5.68,0,0,0,3.3.61,3,3,0,0,0,2.29-1.85,4.44,4.44,0,0,0,.29-2.76,9.47,9.47,0,0,0-1.09-3,.79.79,0,0,1-.22-.42.58.58,0,0,1,0-.4,1.32,1.32,0,0,1,.6-.53,1.58,1.58,0,0,1,1.14.1,6.28,6.28,0,0,1,.65.47,7.65,7.65,0,0,1,1.87,3.89,6.72,6.72,0,0,1-.59,3.93q-2.21,4.63-4.88,5.55a7.57,7.57,0,0,1-5.83-.61L145.62,72l-3.46,7.25L139.5,78,143,70.69l-6.07-2.89-2.46.87L133.09,68l2.31-4.84,1.81-1.37,8.16,3.89,8.93-18.86,2.78-1,6.1,17.08a8.6,8.6,0,0,1,.51-2.43,10.48,10.48,0,0,1,3.22-3.65,9.61,9.61,0,0,1,5-2.09,12.69,12.69,0,0,1,4.7.23,18.27,18.27,0,0,1,3.54,1.21,15.53,15.53,0,0,1,5.53,4.39,10.09,10.09,0,0,1,2.24,6.32A15.34,15.34,0,0,1,186.36,73.76Z"/><circle class="cls-2" cx="228.06" cy="62.57" r="62.56" transform="translate(64.2 233.09) rotate(-61.48)"/><path class="cls-7" d="M203.91,107a50.58,50.58,0,1,1,68.59-20.3A50.64,50.64,0,0,1,203.91,107Zm44.48-81.87A42.59,42.59,0,1,0,265.48,82.9,42.64,42.64,0,0,0,248.39,25.15Z"/><circle class="cls-8" cx="228.06" cy="62.57" r="42.59" transform="translate(64.2 233.09) rotate(-61.48)"/><path class="cls-7" d="M209.63,87.58q-4.61-4.49-4.57-8.78a9.58,9.58,0,0,1,2.55-6.85,4.43,4.43,0,0,1,1.91-1.22,3.82,3.82,0,0,1,2,0,4.92,4.92,0,0,1,3.14,3.06,3.76,3.76,0,0,1,0,2,4.34,4.34,0,0,1-1.16,2A4.22,4.22,0,0,1,211.18,79a3.5,3.5,0,0,1-2.19-.31,4.88,4.88,0,0,0,.79,3.23A14,14,0,0,0,212.15,85a8.57,8.57,0,0,0,4.48,2.34,8.46,8.46,0,0,0,5.25-.86,18.58,18.58,0,0,0,5.21-3.86,17.56,17.56,0,0,0,3.84-5.55,8.22,8.22,0,0,0,.55-5.24A8.67,8.67,0,0,0,229,67.61a8.94,8.94,0,0,0-3.88-1.85l-3.22-1L223,63.66l22.41-3.57L231.94,47,218.77,60.49a6.76,6.76,0,0,0-2,3.49A3.56,3.56,0,0,0,218,67.27a5.28,5.28,0,0,0,3,1.39,11.27,11.27,0,0,0,3.75-.1.94.94,0,0,1,.56-.09.69.69,0,0,1,.44.2,1.57,1.57,0,0,1,.37.89,1.88,1.88,0,0,1-.55,1.25,7.47,7.47,0,0,1-.78.56,9.1,9.1,0,0,1-5.1.62,8,8,0,0,1-4.2-2.17q-4.37-4.26-4.38-7.63a9,9,0,0,1,2.92-6.34l13.14-13.49-6.85-6.67,2.45-2.51,6.88,6.7,5.58-5.73,0-3.11,1.25-1.29L241,34.19l.85,2.56-7.5,7.7,17.84,17.27,0,3.5-21.59.34a10.23,10.23,0,0,1,2.55,1.51,12.47,12.47,0,0,1,2.88,5,11.43,11.43,0,0,1,.45,6.41,15.1,15.1,0,0,1-2.05,5.21,21.74,21.74,0,0,1-2.71,3.53,18.48,18.48,0,0,1-7.06,4.55,12,12,0,0,1-8,.11A18.25,18.25,0,0,1,209.63,87.58Z"/><rect class="cls-9" x="35.28" y="81.96" width="271.28" height="208.9" rx="21.76" ry="21.76"/><path class="cls-10" d="M306.56,103.72c0-13.33-11.37-21.8-20.59-21.8L57,82a21.82,21.82,0,0,0-21.76,21.76v2.34H306.56Z"/><path class="cls-10" d="M35.28,265.9v3.2A21.82,21.82,0,0,0,57,290.86H284.8a21.82,21.82,0,0,0,21.76-21.76v-3.2Z"/><path class="cls-11" d="M35.27,197.07H132V171.25a19.86,19.86,0,0,0-19.86-19.86H35.27Z"/><rect class="cls-10" x="15.51" y="157.05" width="116.78" height="57.09" rx="17.3" ry="17.3"/><circle class="cls-12" cx="97.26" cy="184.88" r="20.76"/><g class="cls-13"><path class="cls-14" d="M232.16,104.52a.88.88,0,0,0-.62-.26h-9.38a.89.89,0,0,0,0,1.78h9.38a.88.88,0,0,0,.59-1.52Z"/><path class="cls-14" d="M194.06,104.29h-9.38a.88.88,0,1,0,0,1.76h9.38a.88.88,0,1,0,0-1.76Z"/><path class="cls-14" d="M212.82,104.29h-9.38a.88.88,0,1,0,0,1.76h9.38a.88.88,0,1,0,0-1.76Z"/><path class="cls-14" d="M137.81,104.29h-9.38a.88.88,0,1,0,0,1.76h9.38a.88.88,0,1,0,0-1.76Z"/><path class="cls-14" d="M175.31,104.29h-9.38a.88.88,0,1,0,0,1.76h9.38a.88.88,0,1,0,0-1.76Z"/><path class="cls-14" d="M44.09,104.29H35.27V106h8.82a.88.88,0,0,0,0-1.76Z"/><path class="cls-14" d="M62.79,104.29H53.42a.88.88,0,1,0,0,1.76h9.38a.88.88,0,1,0,0-1.76Z"/><path class="cls-14" d="M119.05,104.29h-9.38a.88.88,0,1,0,0,1.76h9.38a.88.88,0,1,0,0-1.76Z"/><path class="cls-14" d="M81.55,104.29H72.17a.88.88,0,1,0,0,1.76h9.38a.88.88,0,1,0,0-1.76Z"/><path class="cls-14" d="M100.3,104.29H90.92a.88.88,0,1,0,0,1.76h9.38a.88.88,0,1,0,0-1.76Z"/><path class="cls-14" d="M156.56,104.29h-9.38a.88.88,0,1,0,0,1.76h9.38a.88.88,0,1,0,0-1.76Z"/><path class="cls-14" d="M269,104.26h-9.38a.88.88,0,1,0,0,1.76H269a.88.88,0,1,0,0-1.76Z"/><path class="cls-14" d="M250.29,104.26h-9.38a.88.88,0,1,0,0,1.76h9.38a.88.88,0,1,0,0-1.76Z"/><path class="cls-14" d="M287.8,104.26h-9.38a.88.88,0,1,0,0,1.76h9.38a.88.88,0,1,0,0-1.76Z"/><path class="cls-14" d="M306.55,104.26h-9.38a.88.88,0,1,0,0,1.76h9.38Z"/></g><g class="cls-13"><path class="cls-14" d="M136.9,265.82h-9.24a.88.88,0,0,0,0,1.76h9.24a.88.88,0,0,0,0-1.76Z"/><path class="cls-14" d="M173.86,265.82h-9.24a.88.88,0,0,0,0,1.76h9.24a.88.88,0,0,0,0-1.76Z"/><path class="cls-14" d="M44.5,265.82H35.26v1.76H44.5a.88.88,0,0,0,0-1.76Z"/><path class="cls-14" d="M63,265.82H53.74a.88.88,0,0,0,0,1.76H63a.88.88,0,0,0,0-1.76Z"/><path class="cls-14" d="M118.42,265.82h-9.24a.88.88,0,0,0,0,1.76h9.24a.88.88,0,0,0,0-1.76Z"/><path class="cls-14" d="M81.46,265.82H72.22a.88.88,0,0,0,0,1.76h9.24a.88.88,0,0,0,0-1.76Z"/><path class="cls-14" d="M99.94,265.82H90.7a.88.88,0,0,0,0,1.76h9.24a.88.88,0,0,0,0-1.76Z"/><path class="cls-14" d="M155.38,265.82h-9.24a.88.88,0,0,0,0,1.76h9.24a.88.88,0,0,0,0-1.76Z"/></g><polygon class="cls-7" points="368.65 308.87 368.66 181.37 249.75 181.07 249.8 311.29 368.65 308.87"/><path class="cls-7" d="M309.23,272.22c-32.84.05-59.42,12.16-59.42,27.1s26.58,27.06,59.42,27.11,59.42-12.16,59.42-27.11S342.06,272.27,309.23,272.22Z"/><path class="cls-15" d="M309.23,276.74c-27.36,0-49.51,9-49.51,20.17s22.15,20.13,49.51,20.16,49.5-9,49.5-20.16S336.59,276.77,309.23,276.74Z"/><path class="cls-16" d="M309.23,317.46l0-.39v-.4h0c.78,0,1.55,0,2.32,0v.79C310.79,317.46,310,317.46,309.23,317.46Zm-2.44,0-2.39-.07,0-.79,2.37.07Zm7.17-.07,0-.79,2.37-.12,0,.79ZM302,317.24l-2.38-.17.06-.79,2.37.17Zm16.72-.16-.06-.79q1.19-.09,2.36-.21l.08.78C320.32,316.95,319.53,317,318.73,317.08Zm-21.48-.22c-.8-.08-1.59-.17-2.38-.27l.1-.78c.78.1,1.56.19,2.36.26Zm26.24-.25-.1-.78c.79-.1,1.58-.2,2.35-.31l.11.78C325.08,316.4,324.29,316.51,323.49,316.6Zm-31-.33c-.8-.12-1.59-.24-2.36-.37l.13-.78,2.35.37Zm35.71-.36-.13-.78c.79-.13,1.56-.27,2.33-.42l.15.78Zm-40.43-.45c-.79-.15-1.57-.32-2.34-.49l.17-.77,2.32.48Zm45.12-.47-.17-.77c.78-.18,1.55-.36,2.31-.55l.19.77C334.48,314.64,333.7,314.83,332.91,315Zm-49.79-.57c-.79-.2-1.56-.41-2.31-.62L281,313c.75.21,1.51.42,2.29.62Zm54.43-.59-.21-.76c.77-.22,1.53-.44,2.27-.68l.24.75C339.1,313.38,338.34,313.62,337.55,313.84Zm-59-.72q-1.16-.37-2.27-.77l.27-.74q1.1.39,2.24.76Zm63.6-.74-.27-.74c.76-.27,1.5-.55,2.21-.84l.3.73C343.63,311.81,342.89,312.1,342.12,312.38ZM274,311.48c-.75-.3-1.49-.63-2.2-1l.33-.71c.7.33,1.43.64,2.16.94Zm72.55-.92-.33-.71c.73-.34,1.44-.69,2.12-1l.37.7C348,309.86,347.3,310.22,346.56,310.56Zm-76.9-1.11c-.73-.38-1.43-.79-2.09-1.2l.42-.67c.64.4,1.33.8,2,1.17Zm81.14-1.14-.41-.67c.69-.42,1.35-.86,1.95-1.31l.47.64C352.18,307.41,351.51,307.87,350.8,308.31Zm-85.23-1.41a24.05,24.05,0,0,1-1.87-1.53l.53-.59a23.15,23.15,0,0,0,1.81,1.49Zm89.11-1.47-.53-.58a18.09,18.09,0,0,0,1.62-1.67l.6.51A18.52,18.52,0,0,1,354.68,305.43ZM262,303.61a12.81,12.81,0,0,1-1.4-2l.68-.39a13,13,0,0,0,1.32,1.89Zm95.76-1.92-.69-.39a9.76,9.76,0,0,0,.9-2.09l.76.22A10.61,10.61,0,0,1,357.79,301.69Zm-98.12-2.36a9,9,0,0,1-.34-2.42l.79,0v0a8.12,8.12,0,0,0,.31,2.21ZM359.13,297h-.39l-.4-.07a8.06,8.06,0,0,0-.3-2.17l.76-.21a8.92,8.92,0,0,1,.32,2.37Zm-98.69-2.34-.75-.22a10.39,10.39,0,0,1,1-2.27l.69.39A10.06,10.06,0,0,0,260.44,294.65Zm96.73-2a12.48,12.48,0,0,0-1.3-1.9l.61-.5a13.07,13.07,0,0,1,1.39,2Zm-94.51-2-.6-.51a17.69,17.69,0,0,1,1.69-1.75l.53.58A18.49,18.49,0,0,0,262.66,290.67Zm91.61-1.61c-.55-.51-1.15-1-1.8-1.49l.47-.63a24.22,24.22,0,0,1,1.87,1.54Zm-88.18-1.54-.47-.64c.62-.46,1.29-.91,2-1.35l.41.67C267.34,286.63,266.68,287.07,266.08,287.52Zm84.44-1.26c-.64-.4-1.33-.79-2-1.18l.37-.69c.73.39,1.43.79,2.09,1.21ZM270.07,285l-.37-.69c.69-.37,1.41-.72,2.15-1.07l.34.72C271.45,284.32,270.74,284.68,270.07,285Zm76.29-1c-.7-.33-1.42-.65-2.17-.95l.3-.73c.75.3,1.49.63,2.2,1Zm-72-1-.3-.73c.73-.3,1.47-.58,2.24-.86l.27.74C275.8,282.46,275.07,282.75,274.35,283Zm67.64-.81c-.73-.26-1.48-.52-2.24-.77l.25-.75c.77.25,1.53.51,2.26.77Zm-63.19-.79-.24-.76c.75-.24,1.52-.47,2.3-.69l.22.76Q279.91,281.08,278.8,281.43Zm58.68-.66q-1.12-.32-2.29-.61l.2-.77c.79.2,1.56.41,2.31.62Zm-54.12-.64-.19-.76c.77-.19,1.54-.38,2.33-.55l.17.77C284.89,279.76,284.12,279.94,283.36,280.13Zm49.53-.52c-.76-.17-1.53-.34-2.32-.49l.15-.77q1.19.23,2.34.49ZM288,279.1l-.15-.77c.77-.15,1.56-.29,2.35-.43l.13.78C289.53,278.81,288.76,279,288,279.1Zm40.24-.4c-.77-.13-1.55-.26-2.34-.37l.12-.78,2.36.37Zm-35.56-.39-.12-.78c.78-.12,1.57-.22,2.37-.32l.1.79C294.23,278.09,293.44,278.2,292.67,278.31Zm30.87-.3c-.78-.1-1.57-.19-2.36-.27l.08-.78c.8.08,1.59.17,2.38.27Zm-26.16-.28-.08-.79,2.38-.22.07.79Zm21.43-.21-2.37-.17,0-.78,2.39.17Zm-16.7-.17,0-.79,2.39-.12,0,.79C303.68,277.26,302.9,277.3,302.11,277.35Zm12-.11-2.37-.07,0-.79,2.39.07Zm-7.22-.07,0-.79c.79,0,1.59,0,2.39,0h.1v.79h-.1C308.44,277.14,307.64,277.14,306.86,277.16Z"/><path class="cls-16" d="M316.3,291.63c-.14-2.45-2.56-3.8-5.39-3.8-1.17,0-2.78.57-2.77,1.71,0,3.44,16.43,2.63,17.31,10.95.63,6-5.78,8.24-11.19,8.24-.55,0-1.09,0-1.6-.08l.08,2.64H309.8l-.05-3.25a11.81,11.81,0,0,1-5-3l-.53,3.06h-7.94l.55-9.65h8c0,3.1,3.65,3.64,5.49,3.71,1.54,0,3.72-.3,3.66-1.87-.12-2.85-16.6-1.65-16.13-10.47.25-4.72,5.85-6.77,9.69-6.77a16.87,16.87,0,0,1,1.77.09l0-2.2h2.47l.09,2.66a7.42,7.42,0,0,1,4.08,2.59l.24-2.59H323l.81,8Z"/><path class="cls-17" d="M357.82,312.06A59.72,59.72,0,0,1,347,317.17a91,91,0,0,1-10.83,3.14q-5.16,1.17-10.83,1.89c-3.49.44-7.11.74-10.83.89-1.74.07-3.5.11-5.29.11s-3.72,0-5.54-.12c-3.72-.16-7.34-.46-10.83-.91-3.77-.48-7.39-1.13-10.83-1.91a89.82,89.82,0,0,1-10.83-3.18,58.89,58.89,0,0,1-10.82-5.17c-5.35-3.33-9.06-7.23-10.57-11.46v14.51c1.73,4,5.41,7.66,10.57,10.88a61.21,61.21,0,0,0,10.82,5.23A89.63,89.63,0,0,0,282,334.33a110,110,0,0,0,10.83,2c3.5.47,7.11.8,10.83,1q2.74.12,5.54.13t5.29-.12c3.71-.16,7.33-.48,10.83-.94a109.75,109.75,0,0,0,10.83-2A90.29,90.29,0,0,0,347,331.15,61.73,61.73,0,0,0,357.82,326c5.29-3.26,9.07-7,10.83-11V300.44C367.11,304.74,363.3,308.69,357.82,312.06Z"/><path class="cls-7" d="M309.23,253.08c-32.84,0-59.42,12.16-59.42,27.11s26.58,27.05,59.42,27.1,59.42-9.08,59.42-27.1C368.65,265.25,342.06,253.13,309.23,253.08Z"/><path class="cls-15" d="M309.23,257.07c-27.36,0-49.51,9-49.51,20.16s22.15,20.13,49.51,20.16,49.5-9,49.5-20.16S336.59,257.11,309.23,257.07Z"/><path class="cls-16" d="M309.23,297.79l0-.4V297h0l2.32,0v.79Zm-2.44,0-2.39-.07,0-.79,2.37.07Zm7.17-.07,0-.79c.79,0,1.59-.07,2.37-.12l0,.79C315.56,297.63,314.76,297.67,314,297.7ZM302,297.57l-2.38-.17.06-.79,2.37.17Zm16.72-.16-.06-.79,2.36-.22.08.79Zm-21.48-.23q-1.19-.12-2.38-.27l.1-.78,2.36.26Zm26.24-.25-.1-.79,2.35-.31.11.78Q324.69,296.79,323.49,296.94Zm-31-.33c-.8-.12-1.59-.24-2.36-.37l.13-.78c.78.13,1.56.26,2.35.37Zm35.71-.36-.13-.78c.79-.13,1.56-.28,2.33-.43l.15.78Zm-40.43-.44c-.79-.16-1.57-.32-2.34-.49l.17-.77c.76.17,1.54.33,2.32.49Zm45.12-.47-.17-.77q1.18-.26,2.31-.55l.19.77C334.48,295,333.7,295.16,332.91,295.33Zm-49.79-.57c-.79-.2-1.56-.41-2.31-.62l.22-.76q1.12.32,2.29.61Zm54.43-.59-.21-.76c.77-.22,1.53-.45,2.27-.68l.24.75C339.1,293.71,338.34,293.95,337.55,294.17Zm-59-.72q-1.16-.37-2.27-.77l.27-.74c.73.26,1.48.52,2.24.76Zm63.6-.74-.27-.74c.76-.27,1.5-.55,2.21-.84l.3.73C343.63,292.15,342.89,292.43,342.12,292.71ZM274,291.81c-.75-.3-1.49-.62-2.2-1l.33-.72c.7.33,1.43.65,2.16.95Zm72.55-.92-.33-.71c.73-.34,1.44-.69,2.12-1l.37.7C348,290.19,347.3,290.55,346.56,290.89Zm-76.9-1.11c-.73-.39-1.43-.79-2.09-1.2l.42-.67c.64.4,1.33.8,2,1.18Zm81.14-1.15-.41-.67c.69-.43,1.35-.87,1.95-1.31l.47.64C352.18,287.75,351.51,288.2,350.8,288.64Zm-85.23-1.41a22.48,22.48,0,0,1-1.87-1.53l.53-.58A22.77,22.77,0,0,0,266,286.6Zm89.11-1.47-.53-.59a18,18,0,0,0,1.62-1.67l.6.51A18,18,0,0,1,354.68,285.76ZM262,283.94a13.41,13.41,0,0,1-1.4-2l.68-.39a13,13,0,0,0,1.32,1.9ZM357.79,282l-.69-.39a9.8,9.8,0,0,0,.9-2.09l.76.22A10.66,10.66,0,0,1,357.79,282Zm-98.12-2.36a9,9,0,0,1-.34-2.42l.79,0v0a8.09,8.09,0,0,0,.31,2.21Zm99.46-2.34h-.39l-.4-.07a8,8,0,0,0-.3-2.16l.76-.21a8.93,8.93,0,0,1,.32,2.38ZM260.44,275l-.75-.22a10.28,10.28,0,0,1,1-2.27l.69.39A10.12,10.12,0,0,0,260.44,275Zm96.73-2a12.84,12.84,0,0,0-1.3-1.89l.61-.5a13.12,13.12,0,0,1,1.39,2Zm-94.51-2-.6-.51a17.67,17.67,0,0,1,1.69-1.75l.53.58A17.25,17.25,0,0,0,262.66,271Zm91.61-1.61c-.55-.5-1.15-1-1.8-1.49l.47-.64c.67.5,1.3,1,1.87,1.54Zm-88.18-1.54-.47-.64c.62-.45,1.29-.91,2-1.35l.41.67C267.34,267,266.68,267.4,266.08,267.85Zm84.44-1.26c-.64-.4-1.33-.8-2-1.18l.37-.69c.73.39,1.43.79,2.09,1.21Zm-80.44-1.22-.37-.7c.69-.36,1.41-.72,2.15-1.07l.34.72C271.45,264.65,270.74,265,270.07,265.36Zm76.29-1c-.7-.33-1.42-.65-2.17-.95l.3-.73q1.13.46,2.2,1Zm-72-1-.3-.73c.73-.29,1.47-.58,2.24-.85l.27.74C275.8,262.79,275.07,263.08,274.35,263.37Zm67.64-.81c-.73-.26-1.48-.52-2.24-.77L340,261c.77.25,1.53.51,2.26.78Zm-63.19-.79-.24-.75q1.13-.36,2.3-.69l.22.76Q279.91,261.41,278.8,261.76Zm58.68-.66q-1.12-.32-2.29-.62l.2-.76c.79.2,1.56.41,2.31.62Zm-54.12-.64-.19-.76c.77-.19,1.54-.38,2.33-.55l.17.77C284.89,260.09,284.12,260.28,283.36,260.46Zm49.53-.52c-.76-.17-1.53-.33-2.32-.49l.15-.77c.79.16,1.57.32,2.34.49ZM288,259.44l-.15-.78,2.35-.43.13.78C289.53,259.14,288.76,259.29,288,259.44Zm40.24-.41-2.34-.37.12-.79,2.36.38Zm-35.56-.39-.12-.78q1.17-.17,2.37-.32l.1.78C294.23,258.42,293.44,258.53,292.67,258.64Zm30.87-.3-2.36-.27.08-.78c.8.08,1.59.17,2.38.27Zm-26.16-.28-.08-.79,2.38-.22.07.79Zm21.43-.21c-.78-.06-1.57-.12-2.37-.17l0-.79,2.39.17Zm-16.7-.17,0-.79,2.39-.12,0,.79Zm12-.11-2.37-.07,0-.79,2.39.07Zm-7.22-.08,0-.79,2.39,0h.1v.79h-.1Z"/><path class="cls-16" d="M316.3,269.29c-.14-2.45-2.56-3.8-5.39-3.8-1.17,0-2.78.58-2.77,1.72,0,3.44,16.43,2.62,17.31,10.94.63,6-5.78,8.24-11.19,8.24-.55,0-1.09,0-1.6-.08l.08,2.63H309.8l-.05-3.25a11.74,11.74,0,0,1-5-3l-.53,3.06h-7.94l.55-9.66h8c0,3.11,3.65,3.63,5.49,3.71,1.54,0,3.72-.3,3.66-1.87-.12-2.84-16.6-1.65-16.13-10.47.25-4.71,5.85-6.77,9.69-6.77.59,0,1.18,0,1.77.09l0-2.2h2.47l.09,2.66a7.4,7.4,0,0,1,4.08,2.6l.24-2.6H323l.81,8Z"/><path class="cls-17" d="M357.82,294.53A59.79,59.79,0,0,1,347,299.64a90.57,90.57,0,0,1-10.83,3.14c-3.44.78-7.05,1.42-10.83,1.89-3.49.44-7.11.74-10.83.89q-2.61.11-5.29.11t-5.54-.12c-3.72-.16-7.34-.47-10.83-.91-3.77-.48-7.39-1.13-10.83-1.91a89.63,89.63,0,0,1-10.83-3.18,58.71,58.71,0,0,1-10.82-5.17c-5.35-3.33-9.06-7.23-10.57-11.46v14.51c1.73,4,5.41,7.66,10.57,10.88a61.17,61.17,0,0,0,10.82,5.23A89.32,89.32,0,0,0,282,316.79a110,110,0,0,0,10.83,2c3.5.47,7.11.79,10.83,1,1.83.08,3.67.13,5.54.13s3.54,0,5.29-.12c3.71-.16,7.33-.47,10.83-.94,3.77-.49,7.38-1.16,10.83-2A90.72,90.72,0,0,0,347,313.62a61.66,61.66,0,0,0,10.83-5.17c5.29-3.26,9.07-7,10.83-11V282.72C367.11,287,363.3,291.16,357.82,294.53Z"/><path class="cls-7" d="M309.23,238.22c-32.84,0-59.42,12.16-59.42,27.1s26.58,27.05,59.42,27.1,59.42-12.16,59.42-27.1S342.06,238.26,309.23,238.22Z"/><path class="cls-15" d="M309.23,242.74c-27.36,0-49.51,9-49.51,20.16s22.15,20.13,49.51,20.17,49.5-9.05,49.5-20.17S336.59,242.77,309.23,242.74Z"/><path class="cls-16" d="M309.23,283.46l0-.39v-.4h0l2.32,0v.79Zm-2.44,0-2.39-.07,0-.79,2.37.07Zm7.17-.07,0-.79,2.37-.12,0,.79ZM302,283.24l-2.38-.17.06-.79,2.37.17Zm16.72-.16-.06-.79,2.36-.21.08.78Zm-21.48-.22-2.38-.27.1-.79,2.36.27Zm26.24-.26-.1-.78,2.35-.31.11.78C325.08,282.4,324.29,282.51,323.49,282.6Zm-31-.33c-.8-.12-1.59-.24-2.36-.37l.13-.78c.78.14,1.56.26,2.35.37Zm35.71-.36-.13-.78c.79-.13,1.56-.28,2.33-.42l.15.78Q329.41,281.71,328.22,281.92Zm-40.43-.44c-.79-.16-1.57-.32-2.34-.49l.17-.77c.76.17,1.54.33,2.32.49Zm45.12-.47-.17-.77c.78-.18,1.55-.36,2.31-.55l.19.77C334.48,280.64,333.7,280.83,332.91,281Zm-49.79-.57c-.79-.2-1.56-.4-2.31-.62L281,279c.75.21,1.51.42,2.29.61Zm54.43-.59-.21-.76c.77-.21,1.53-.44,2.27-.68l.24.75Q338.73,279.5,337.55,279.83Zm-59-.72c-.77-.25-1.53-.51-2.27-.77l.27-.74q1.1.39,2.24.76Zm63.6-.74-.27-.74c.76-.27,1.5-.56,2.21-.85l.3.73C343.63,277.82,342.89,278.1,342.12,278.37ZM274,277.48c-.75-.3-1.49-.63-2.2-1l.33-.72c.7.33,1.43.64,2.16.95Zm72.55-.91-.33-.72c.73-.34,1.44-.69,2.12-1l.37.7C348,275.86,347.3,276.22,346.56,276.57Zm-76.9-1.12c-.73-.39-1.43-.79-2.09-1.2l.42-.67c.64.4,1.33.8,2,1.17Zm81.14-1.15-.41-.67c.69-.42,1.35-.87,1.95-1.31l.47.64C352.18,273.42,351.51,273.87,350.8,274.31Zm-85.23-1.41a24,24,0,0,1-1.87-1.54l.53-.58a22.4,22.4,0,0,0,1.81,1.49Zm89.11-1.47-.53-.58a18.25,18.25,0,0,0,1.62-1.67l.6.51A18.4,18.4,0,0,1,354.68,271.43ZM262,269.61a13.14,13.14,0,0,1-1.4-2l.68-.39a12.91,12.91,0,0,0,1.32,1.9Zm95.76-1.92-.69-.39a9.75,9.75,0,0,0,.9-2.09l.76.22A10.62,10.62,0,0,1,357.79,267.69Zm-98.12-2.36a8.94,8.94,0,0,1-.34-2.42l.79,0v0a8.14,8.14,0,0,0,.31,2.21ZM359.13,263h-.39l-.4-.08a8,8,0,0,0-.3-2.16l.76-.21a9,9,0,0,1,.32,2.38Zm-98.69-2.33-.75-.22a10.26,10.26,0,0,1,1-2.27l.69.39A10.11,10.11,0,0,0,260.44,260.65Zm96.73-2a12.61,12.61,0,0,0-1.3-1.89l.61-.5a13.15,13.15,0,0,1,1.39,2Zm-94.51-2-.6-.51a17.67,17.67,0,0,1,1.69-1.75l.53.58A17.73,17.73,0,0,0,262.66,256.67Zm91.61-1.61c-.55-.5-1.15-1-1.8-1.49l.47-.64c.67.51,1.3,1,1.87,1.54Zm-88.18-1.54-.47-.63c.62-.46,1.29-.91,2-1.35l.41.67C267.34,252.63,266.68,253.07,266.08,253.51Zm84.44-1.26c-.64-.4-1.33-.8-2-1.18l.37-.7c.73.39,1.43.8,2.09,1.2ZM270.07,251l-.37-.7c.69-.36,1.41-.73,2.15-1.07l.34.72C271.45,250.32,270.74,250.67,270.07,251Zm76.29-1c-.7-.33-1.42-.65-2.17-1l.3-.73q1.13.46,2.2,1Zm-72-1-.3-.73c.73-.29,1.47-.58,2.24-.86l.27.74C275.8,248.47,275.07,248.75,274.35,249Zm67.64-.81c-.73-.26-1.48-.52-2.24-.76l.25-.75c.77.25,1.53.51,2.26.77Zm-63.19-.79-.24-.75q1.13-.36,2.3-.69l.22.76Q279.91,247.07,278.8,247.43Zm58.68-.66q-1.12-.32-2.29-.62l.2-.77c.79.2,1.56.41,2.31.62Zm-54.12-.64-.19-.76c.77-.19,1.54-.38,2.33-.55l.17.77C284.89,245.76,284.12,245.94,283.36,246.14Zm49.53-.53c-.76-.17-1.53-.33-2.32-.49l.15-.77c.79.15,1.57.32,2.34.49Zm-44.89-.5-.15-.78,2.35-.43.13.78C289.53,244.81,288.76,245,288,245.11Zm40.24-.41c-.77-.13-1.55-.25-2.34-.37l.12-.78,2.36.37Zm-35.56-.39-.12-.78q1.17-.17,2.37-.32l.1.78Zm30.87-.3-2.36-.27.08-.78,2.38.27Zm-26.16-.28-.08-.79,2.38-.22.07.79Zm21.43-.21-2.37-.17,0-.79c.81,0,1.6.1,2.39.17Zm-16.7-.17,0-.79,2.39-.12,0,.79Zm12-.11-2.37-.07,0-.79,2.39.08Zm-7.22-.08,0-.79,2.39,0h.1v.79h-.1C308.44,243.14,307.64,243.14,306.86,243.16Z"/><path class="cls-16" d="M316.3,257.63c-.14-2.45-2.56-3.8-5.39-3.8-1.17,0-2.78.58-2.77,1.71,0,3.44,16.43,2.62,17.31,10.94.63,6-5.78,8.24-11.19,8.24-.55,0-1.09,0-1.6-.08l.08,2.64H309.8l-.05-3.25a11.76,11.76,0,0,1-5-3l-.53,3.06h-7.94l.55-9.65h8c0,3.1,3.65,3.63,5.49,3.71,1.54,0,3.72-.31,3.66-1.88-.12-2.84-16.6-1.65-16.13-10.46.25-4.72,5.85-6.77,9.69-6.77a17,17,0,0,1,1.77.09l0-2.21h2.47l.09,2.66a7.41,7.41,0,0,1,4.08,2.59l.24-2.59H323l.81,8Z"/><path class="cls-17" d="M357.82,278.06A59.42,59.42,0,0,1,347,283.17a89.22,89.22,0,0,1-10.83,3.14c-3.44.78-7.05,1.42-10.83,1.89-3.49.44-7.11.74-10.83.89q-2.61.11-5.29.11t-5.54-.12c-3.72-.16-7.34-.46-10.83-.91-3.77-.48-7.39-1.13-10.83-1.92a89.54,89.54,0,0,1-10.83-3.17,58.79,58.79,0,0,1-10.82-5.18c-5.35-3.33-9.06-7.23-10.57-11.46v14.5c1.73,4,5.41,7.66,10.57,10.88a61.18,61.18,0,0,0,10.82,5.23A90.35,90.35,0,0,0,282,300.33c3.44.82,7.06,1.49,10.83,2,3.5.47,7.11.8,10.83,1,1.83.08,3.67.12,5.54.12s3.54,0,5.29-.11c3.71-.16,7.33-.48,10.83-.94,3.77-.49,7.38-1.16,10.83-2A90.31,90.31,0,0,0,347,297.15,62.19,62.19,0,0,0,357.82,292c5.29-3.25,9.07-7,10.83-11v-14.5C367.11,270.74,363.3,274.69,357.82,278.06Z"/><path class="cls-7" d="M309.23,224.42c-32.84,0-59.42,12.16-59.42,27.11s26.58,27.06,59.42,27.1,59.42-12.16,59.42-27.1S342.06,224.47,309.23,224.42Z"/><path class="cls-15" d="M309.23,228.94c-27.36,0-49.51,9-49.51,20.16s22.15,20.13,49.51,20.17,49.5-9,49.5-20.17S336.59,229,309.23,228.94Z"/><path class="cls-16" d="M309.23,269.67l0-.4v-.39h0l2.32,0v.79Zm-2.44,0-2.39-.07,0-.79,2.37.07Zm7.17-.07,0-.79,2.37-.12,0,.79ZM302,269.45l-2.38-.17.06-.79,2.37.17Zm16.72-.16-.06-.79,2.36-.22.08.78Zm-21.48-.23c-.8-.07-1.59-.17-2.38-.27l.1-.78,2.36.26Zm26.24-.25-.1-.78c.79-.1,1.58-.2,2.35-.32l.11.78Zm-31-.33c-.8-.11-1.59-.24-2.36-.37l.13-.78,2.35.37Zm35.71-.36-.13-.78,2.33-.42.15.77C329.8,267.84,329,268,328.22,268.12Zm-40.43-.45c-.79-.15-1.57-.31-2.34-.49l.17-.77c.76.17,1.54.33,2.32.49Zm45.12-.47-.17-.77c.78-.17,1.55-.36,2.31-.55l.19.77C334.48,266.85,333.7,267,332.91,267.2Zm-49.79-.58c-.79-.2-1.56-.4-2.31-.62l.22-.76q1.12.32,2.29.62Zm54.43-.59-.21-.76q1.16-.33,2.27-.68l.24.75C339.1,265.58,338.34,265.82,337.55,266Zm-59-.72c-.77-.25-1.53-.51-2.27-.77l.27-.75q1.1.39,2.24.76Zm63.6-.74-.27-.75c.76-.27,1.5-.55,2.21-.85l.3.73C343.63,264,342.89,264.3,342.12,264.58ZM274,263.69c-.75-.31-1.49-.63-2.2-1l.33-.72c.7.33,1.43.64,2.16.94Zm72.55-.92-.33-.72c.73-.34,1.44-.69,2.12-1l.37.7C348,262.06,347.3,262.42,346.56,262.77Zm-76.9-1.11c-.73-.39-1.43-.79-2.09-1.2l.42-.67c.64.4,1.33.8,2,1.18Zm81.14-1.15-.41-.67c.69-.43,1.35-.87,1.95-1.31l.47.64C352.18,259.62,351.51,260.07,350.8,260.5Zm-85.23-1.4a23.07,23.07,0,0,1-1.87-1.54l.53-.58c.54.5,1.15,1,1.81,1.49Zm89.11-1.47-.53-.58a18.23,18.23,0,0,0,1.62-1.67l.6.51A18.53,18.53,0,0,1,354.68,257.63ZM262,255.81a13.14,13.14,0,0,1-1.4-2l.68-.38a13.14,13.14,0,0,0,1.32,1.89Zm95.76-1.92-.69-.39a9.8,9.8,0,0,0,.9-2.09l.76.22A10.62,10.62,0,0,1,357.79,253.89Zm-98.12-2.36a8.94,8.94,0,0,1-.34-2.42l.79,0v0a8.08,8.08,0,0,0,.31,2.21Zm99.46-2.34h-.39l-.4-.08a8,8,0,0,0-.3-2.16l.76-.21a8.93,8.93,0,0,1,.32,2.37Zm-98.69-2.33-.75-.22a10.22,10.22,0,0,1,1-2.27l.69.39A10,10,0,0,0,260.44,246.85Zm96.73-2a12.46,12.46,0,0,0-1.3-1.9l.61-.5a13.26,13.26,0,0,1,1.39,2Zm-94.51-2-.6-.51a18.06,18.06,0,0,1,1.69-1.75l.53.58A18.28,18.28,0,0,0,262.66,242.87Zm91.61-1.61q-.83-.76-1.8-1.49l.47-.63c.67.5,1.3,1,1.87,1.54Zm-88.18-1.55-.47-.63c.62-.46,1.29-.91,2-1.35l.41.67C267.34,238.83,266.68,239.28,266.08,239.72Zm84.44-1.26c-.64-.4-1.33-.8-2-1.18l.37-.7c.73.39,1.43.8,2.09,1.2Zm-80.44-1.22-.37-.7c.69-.37,1.41-.73,2.15-1.07l.34.72C271.45,236.52,270.74,236.88,270.07,237.23Zm76.29-1c-.7-.33-1.42-.65-2.17-.95l.3-.73q1.13.46,2.2,1Zm-72-1-.3-.73c.73-.3,1.47-.58,2.24-.86l.27.75C275.8,234.67,275.07,235,274.35,235.24Zm67.64-.81c-.73-.26-1.48-.52-2.24-.77l.25-.75c.77.25,1.53.51,2.26.77Zm-63.19-.8-.24-.75q1.13-.36,2.3-.69l.22.76C280.3,233.17,279.54,233.39,278.8,233.63Zm58.68-.65q-1.12-.32-2.29-.62l.2-.77c.79.2,1.56.41,2.31.62Zm-54.12-.64-.19-.77c.77-.2,1.54-.38,2.33-.55l.17.77C284.89,232,284.12,232.15,283.36,232.34Zm49.53-.53-2.32-.49.15-.77q1.19.23,2.34.49Zm-44.89-.5-.15-.78c.77-.15,1.56-.29,2.35-.42l.13.78C289.53,231,288.76,231.16,288,231.31Zm40.24-.41c-.77-.13-1.55-.26-2.34-.37l.12-.78c.8.11,1.58.24,2.36.37Zm-35.56-.39-.12-.78c.78-.12,1.57-.22,2.37-.32l.1.78Zm30.87-.3c-.78-.1-1.57-.19-2.36-.27l.08-.79c.8.08,1.59.17,2.38.27Zm-26.16-.28-.08-.78c.79-.08,1.58-.15,2.38-.22l.07.79Zm21.43-.21-2.37-.16,0-.79,2.39.17Zm-16.7-.17,0-.79c.79-.05,1.58-.09,2.39-.12l0,.79Zm12-.11c-.79,0-1.58-.05-2.37-.07l0-.79c.8,0,1.6,0,2.39.07Zm-7.22-.08,0-.79,2.39,0h.1v.79h-.1Z"/><path class="cls-16" d="M316.3,243.83c-.14-2.45-2.56-3.8-5.39-3.8-1.17,0-2.78.58-2.77,1.72,0,3.44,16.43,2.63,17.31,10.94.63,6-5.78,8.24-11.19,8.24-.55,0-1.09,0-1.6-.08l.08,2.64H309.8l-.05-3.25a11.73,11.73,0,0,1-5-3l-.53,3.06h-7.94l.55-9.65h8c0,3.1,3.65,3.63,5.49,3.71,1.54,0,3.72-.3,3.66-1.87-.12-2.84-16.6-1.65-16.13-10.46.25-4.72,5.85-6.77,9.69-6.77.59,0,1.18,0,1.77.09l0-2.2h2.47l.09,2.66a7.43,7.43,0,0,1,4.08,2.6l.24-2.6H323l.81,8Z"/><path class="cls-17" d="M357.82,261.6A60,60,0,0,1,347,266.71a90.77,90.77,0,0,1-10.83,3.14c-3.44.78-7.05,1.42-10.83,1.89-3.49.44-7.11.73-10.83.89-1.74.07-3.5.11-5.29.11s-3.72,0-5.54-.12c-3.72-.16-7.34-.47-10.83-.92-3.77-.48-7.39-1.13-10.83-1.91a88.81,88.81,0,0,1-10.83-3.17,59.2,59.2,0,0,1-10.82-5.17c-5.35-3.34-9.06-7.24-10.57-11.46v14.51c1.73,4,5.41,7.66,10.57,10.88a61.18,61.18,0,0,0,10.82,5.23A90.45,90.45,0,0,0,282,283.86c3.44.81,7.06,1.49,10.83,2,3.5.47,7.11.8,10.83,1q2.74.12,5.54.13t5.29-.12c3.71-.16,7.33-.48,10.83-.94,3.77-.5,7.38-1.16,10.83-2A90.4,90.4,0,0,0,347,280.69a62.06,62.06,0,0,0,10.83-5.17c5.29-3.26,9.07-7,10.83-11V250C367.11,254.27,363.3,258.23,357.82,261.6Z"/><path class="cls-7" d="M309.23,204.75c-32.84,0-59.42,12.16-59.42,27.11s26.58,27.05,59.42,27.1,59.42-12.16,59.42-27.1S342.06,204.8,309.23,204.75Z"/><path class="cls-15" d="M309.23,209.27c-27.36,0-49.51,9-49.51,20.16s22.15,20.13,49.51,20.17,49.5-9.05,49.5-20.17S336.59,209.31,309.23,209.27Z"/><path class="cls-16" d="M309.23,250l0-.39v-.4h0l2.32,0V250Zm-2.44,0-2.39-.07,0-.79,2.37.07Zm7.17-.07,0-.79,2.37-.12,0,.79ZM302,249.78l-2.38-.17.06-.79,2.37.17Zm16.72-.16-.06-.78,2.36-.21.08.79C320.32,249.48,319.53,249.55,318.73,249.61Zm-21.48-.22-2.38-.27.1-.78,2.36.26Zm26.24-.26-.1-.78c.79-.09,1.58-.2,2.35-.31l.11.78C325.08,248.94,324.29,249,323.49,249.14Zm-31-.33-2.36-.37.13-.78c.78.14,1.56.26,2.35.37Zm35.71-.36-.13-.78c.79-.13,1.56-.27,2.33-.42l.15.78C329.8,248.17,329,248.32,328.22,248.45ZM287.79,248l-2.34-.49.17-.77c.76.17,1.54.33,2.32.49Zm45.12-.47-.17-.77q1.18-.26,2.31-.54l.19.76C334.48,247.18,333.7,247.36,332.91,247.53ZM283.12,247c-.79-.2-1.56-.41-2.31-.62l.22-.76c.75.22,1.51.42,2.29.62Zm54.43-.59-.21-.76c.77-.22,1.53-.45,2.27-.68l.24.75Q338.73,246,337.55,246.37Zm-59-.72q-1.16-.37-2.27-.77l.27-.75c.73.27,1.48.52,2.24.77Zm63.6-.74-.27-.74c.76-.27,1.5-.55,2.21-.84l.3.73C343.63,244.35,342.89,244.63,342.12,244.91ZM274,244c-.75-.3-1.49-.63-2.2-1l.33-.72c.7.32,1.43.64,2.16.94Zm72.55-.92-.33-.71c.73-.34,1.44-.69,2.12-1l.37.7C348,242.4,347.3,242.75,346.56,243.1ZM269.66,242c-.73-.39-1.43-.79-2.09-1.2l.42-.67c.64.4,1.33.8,2,1.17Zm81.14-1.15-.41-.67c.69-.43,1.35-.87,1.95-1.31l.47.64C352.18,240,351.51,240.4,350.8,240.84Zm-85.23-1.41a23.81,23.81,0,0,1-1.87-1.53l.53-.58A23.25,23.25,0,0,0,266,238.8ZM354.68,238l-.53-.58a18,18,0,0,0,1.62-1.67l.6.51A18.44,18.44,0,0,1,354.68,238ZM262,236.14a13.13,13.13,0,0,1-1.4-2l.68-.38a13.28,13.28,0,0,0,1.32,1.89Zm95.76-1.92-.69-.39a9.74,9.74,0,0,0,.9-2.09l.76.22A10.61,10.61,0,0,1,357.79,234.22Zm-98.12-2.36a8.92,8.92,0,0,1-.34-2.42l.79,0v0a8.07,8.07,0,0,0,.31,2.21Zm99.46-2.34h-.39l-.4-.07a8,8,0,0,0-.3-2.17l.76-.21a9,9,0,0,1,.32,2.38Zm-98.69-2.34-.75-.22a10.32,10.32,0,0,1,1-2.27l.69.39A10.12,10.12,0,0,0,260.44,227.18Zm96.73-2a12.47,12.47,0,0,0-1.3-1.89l.61-.5a13.26,13.26,0,0,1,1.39,2Zm-94.51-2-.6-.51a18.33,18.33,0,0,1,1.69-1.75l.53.58A17.66,17.66,0,0,0,262.66,223.21Zm91.61-1.61c-.55-.5-1.15-1-1.8-1.49l.47-.63A23.67,23.67,0,0,1,354.8,221Zm-88.18-1.54-.47-.63c.62-.46,1.29-.91,2-1.35l.41.67C267.34,219.16,266.68,219.61,266.08,220.05Zm84.44-1.26c-.64-.4-1.33-.8-2-1.18l.37-.7c.73.39,1.43.8,2.09,1.21Zm-80.44-1.22-.37-.7c.69-.37,1.41-.72,2.15-1.07l.34.71C271.45,216.85,270.74,217.21,270.07,217.56Zm76.29-1c-.7-.32-1.42-.64-2.17-.94l.3-.74c.75.31,1.49.63,2.2,1Zm-72-1-.3-.73c.73-.29,1.47-.58,2.24-.86l.27.74C275.8,215,275.07,215.28,274.35,215.57Zm67.64-.81c-.73-.27-1.48-.52-2.24-.77l.25-.75c.77.24,1.53.51,2.26.77ZM278.8,214l-.24-.75c.75-.24,1.52-.47,2.3-.69l.22.76C280.3,213.5,279.54,213.73,278.8,214Zm58.68-.66q-1.12-.32-2.29-.62l.2-.77c.79.2,1.56.4,2.31.62Zm-54.12-.64-.19-.77c.77-.2,1.54-.38,2.33-.56l.17.77C284.89,212.3,284.12,212.48,283.36,212.67Zm49.53-.53c-.76-.17-1.53-.33-2.32-.48l.15-.78,2.34.49Zm-44.89-.5-.15-.77q1.16-.23,2.35-.43l.13.78C289.53,211.35,288.76,211.49,288,211.64Zm40.24-.41c-.77-.13-1.55-.25-2.34-.37l.12-.78c.8.11,1.58.24,2.36.37Zm-35.56-.39-.12-.78q1.17-.17,2.37-.32l.1.78Zm30.87-.3c-.78-.1-1.57-.19-2.36-.27l.08-.79c.8.08,1.59.17,2.38.27Zm-26.16-.28-.08-.79,2.38-.21.07.79Zm21.43-.21-2.37-.17,0-.79,2.39.17Zm-16.7-.17,0-.79,2.39-.12,0,.79Zm12-.11-2.37-.07,0-.79,2.39.07Zm-7.22-.07,0-.79,2.39,0h.1v.79h-.1Z"/><path class="cls-16" d="M316.3,224.16c-.14-2.44-2.56-3.8-5.39-3.8-1.17,0-2.78.58-2.77,1.72,0,3.44,16.43,2.62,17.31,10.94.63,6-5.78,8.24-11.19,8.24-.55,0-1.09,0-1.6-.08l.08,2.63H309.8l-.05-3.25a11.73,11.73,0,0,1-5-3l-.53,3.06h-7.94l.55-9.65h8c0,3.1,3.65,3.63,5.49,3.71,1.54,0,3.72-.31,3.66-1.88-.12-2.84-16.6-1.65-16.13-10.46.25-4.72,5.85-6.77,9.69-6.77a17.52,17.52,0,0,1,1.77.09l0-2.21h2.47l.09,2.66a7.41,7.41,0,0,1,4.08,2.6l.24-2.6H323l.81,8Z"/><path class="cls-17" d="M357.82,244.6A59.87,59.87,0,0,1,347,249.71a89.74,89.74,0,0,1-10.83,3.14c-3.44.78-7.05,1.42-10.83,1.89-3.49.44-7.11.74-10.83.89q-2.61.11-5.29.11c-1.87,0-3.72,0-5.54-.12-3.72-.16-7.34-.47-10.83-.91-3.77-.48-7.39-1.13-10.83-1.91a89.73,89.73,0,0,1-10.83-3.18,58.89,58.89,0,0,1-10.82-5.17c-5.35-3.34-9.06-7.24-10.57-11.46v14.51c1.73,4,5.41,7.66,10.57,10.88a61.05,61.05,0,0,0,10.82,5.23A90,90,0,0,0,282,266.86c3.44.81,7.06,1.49,10.83,2,3.5.47,7.11.8,10.83,1q2.74.12,5.54.13t5.29-.12c3.71-.16,7.33-.48,10.83-.94,3.77-.5,7.38-1.16,10.83-2A89.77,89.77,0,0,0,347,263.68a61.85,61.85,0,0,0,10.83-5.17c5.29-3.26,9.07-7,10.83-11V233C367.11,237.27,363.3,241.23,357.82,244.6Z"/><path class="cls-7" d="M309.23,188.28c-32.84,0-59.42,12.17-59.42,27.1s26.58,27.06,59.42,27.11,59.42-12.16,59.42-27.11S342.06,188.33,309.23,188.28Z"/><path class="cls-15" d="M309.23,192.81c-27.36,0-49.51,9-49.51,20.17s22.15,20.13,49.51,20.17,49.5-9,49.5-20.17S336.59,192.84,309.23,192.81Z"/><path class="cls-16" d="M309.23,233.53l0-.39v-.4h0l2.32,0v.79Zm-2.44,0-2.39-.07,0-.79,2.37.07Zm7.17-.07,0-.79,2.37-.12,0,.79ZM302,233.31l-2.38-.17.06-.79,2.37.17Zm16.72-.16-.06-.79,2.36-.22.08.78C320.32,233,319.53,233.08,318.73,233.15Zm-21.48-.23c-.8-.08-1.59-.17-2.38-.27l.1-.78c.78.1,1.56.18,2.36.26Zm26.24-.25-.1-.78,2.35-.31.11.78C325.08,232.47,324.29,232.57,323.49,232.67Zm-31-.33c-.8-.11-1.59-.24-2.36-.37l.13-.78c.78.13,1.56.25,2.35.37Zm35.71-.36-.13-.78c.79-.13,1.56-.27,2.33-.42l.15.78C329.8,231.71,329,231.85,328.22,232Zm-40.43-.44c-.79-.15-1.57-.32-2.34-.49l.17-.77c.76.17,1.54.33,2.32.49Zm45.12-.47-.17-.77c.78-.17,1.55-.36,2.31-.55l.19.77C334.48,230.71,333.7,230.89,332.91,231.07Zm-49.79-.57c-.79-.2-1.56-.4-2.31-.62l.22-.76c.75.21,1.51.42,2.29.62Zm54.43-.6-.21-.76q1.16-.32,2.27-.68l.24.75Q338.73,229.57,337.55,229.9Zm-59-.72q-1.16-.37-2.27-.77l.27-.75c.73.27,1.48.52,2.24.76Zm63.6-.74-.27-.75c.76-.27,1.5-.56,2.21-.85l.3.73C343.63,227.88,342.89,228.17,342.12,228.45Zm-68.11-.9c-.75-.3-1.49-.62-2.2-1l.33-.71c.7.33,1.43.64,2.16.94Zm72.55-.92-.33-.71c.73-.34,1.44-.69,2.12-1l.37.7C348,225.93,347.3,226.29,346.56,226.63Zm-76.9-1.11c-.73-.38-1.43-.79-2.09-1.2l.42-.67c.64.4,1.33.8,2,1.17Zm81.14-1.14-.41-.67c.69-.43,1.35-.87,1.95-1.31l.47.64C352.18,223.48,351.51,223.94,350.8,224.37ZM265.57,223a22.5,22.5,0,0,1-1.87-1.54l.53-.58a22.87,22.87,0,0,0,1.81,1.48Zm89.11-1.47-.53-.58a18.17,18.17,0,0,0,1.62-1.67l.6.51A18.52,18.52,0,0,1,354.68,221.5ZM262,219.68a13,13,0,0,1-1.4-2l.68-.39a12.81,12.81,0,0,0,1.32,1.89Zm95.76-1.92-.69-.39a9.82,9.82,0,0,0,.9-2.09l.76.22A10.72,10.72,0,0,1,357.79,217.75Zm-98.12-2.36a9,9,0,0,1-.34-2.42l.79,0v0a8.11,8.11,0,0,0,.31,2.21Zm99.46-2.35h-.39l-.4-.07a8,8,0,0,0-.3-2.16l.76-.21a9,9,0,0,1,.32,2.38Zm-98.69-2.33-.75-.22a10.32,10.32,0,0,1,1-2.27l.69.39A10,10,0,0,0,260.44,210.72Zm96.73-2a12.48,12.48,0,0,0-1.3-1.9l.61-.5a13.18,13.18,0,0,1,1.39,2Zm-94.51-2-.6-.51a17.85,17.85,0,0,1,1.69-1.75l.53.58A17.65,17.65,0,0,0,262.66,206.74Zm91.61-1.61c-.55-.5-1.15-1-1.8-1.49l.47-.63a23.42,23.42,0,0,1,1.87,1.54Zm-88.18-1.54-.47-.63c.62-.46,1.29-.91,2-1.35l.41.67C267.34,202.7,266.68,203.14,266.08,203.58Zm84.44-1.26c-.64-.4-1.33-.8-2-1.18l.37-.7c.73.39,1.43.79,2.09,1.2Zm-80.44-1.23-.37-.7c.69-.36,1.41-.73,2.15-1.07l.34.72C271.45,200.39,270.74,200.74,270.07,201.09Zm76.29-1c-.7-.33-1.42-.65-2.17-.95l.3-.73q1.13.46,2.2,1Zm-72-1-.3-.73c.73-.3,1.47-.58,2.24-.86l.27.75C275.8,198.53,275.07,198.82,274.35,199.11Zm67.64-.81c-.73-.26-1.48-.52-2.24-.76l.25-.75c.77.25,1.53.5,2.26.77Zm-63.19-.8-.24-.75q1.13-.36,2.3-.69l.22.76Q279.91,197.14,278.8,197.5Zm58.68-.66c-.75-.22-1.51-.42-2.29-.62l.2-.77c.79.2,1.56.4,2.31.62Zm-54.12-.64-.19-.77c.77-.19,1.54-.38,2.33-.55l.17.77C284.89,195.83,284.12,196,283.36,196.2Zm49.53-.52c-.76-.17-1.53-.33-2.32-.49l.15-.77q1.19.23,2.34.49ZM288,195.17l-.15-.77,2.35-.43.13.78C289.53,194.88,288.76,195,288,195.17Zm40.24-.41c-.77-.13-1.55-.26-2.34-.37l.12-.78,2.36.37Zm-35.56-.39-.12-.78,2.37-.32.1.78C294.23,194.16,293.44,194.26,292.67,194.38Zm30.87-.31-2.36-.27.08-.78c.8.08,1.59.17,2.38.27Zm-26.16-.28-.08-.79,2.38-.21.07.78Zm21.43-.21-2.37-.17,0-.79,2.39.17Zm-16.7-.17,0-.79,2.39-.12,0,.79Zm12-.12-2.37-.07,0-.79,2.39.07Zm-7.22-.08,0-.79,2.39,0h.1v.79h-.1Z"/><path class="cls-16" d="M316.3,207.69c-.14-2.44-2.56-3.8-5.39-3.8-1.17,0-2.78.58-2.77,1.72,0,3.44,16.43,2.62,17.31,10.94.63,6-5.78,8.24-11.19,8.24-.55,0-1.09,0-1.6-.08l.08,2.63H309.8l-.05-3.25a11.81,11.81,0,0,1-5-3l-.53,3.06h-7.94l.55-9.65h8c0,3.1,3.65,3.63,5.49,3.71,1.54,0,3.72-.31,3.66-1.87-.12-2.85-16.6-1.65-16.13-10.47.25-4.72,5.85-6.77,9.69-6.77a16.28,16.28,0,0,1,1.77.09l0-2.21h2.47l.09,2.66a7.41,7.41,0,0,1,4.08,2.6l.24-2.6H323l.81,8Z"/><path class="cls-17" d="M357.82,228.13A59.72,59.72,0,0,1,347,233.24a90.9,90.9,0,0,1-10.83,3.14c-3.44.78-7.05,1.42-10.83,1.89-3.49.44-7.11.74-10.83.89-1.74.07-3.5.11-5.29.11s-3.72,0-5.54-.12c-3.72-.16-7.34-.47-10.83-.92-3.77-.48-7.39-1.13-10.83-1.91a89.21,89.21,0,0,1-10.83-3.18A59.15,59.15,0,0,1,260.39,228c-5.35-3.34-9.06-7.23-10.57-11.46V231c1.73,4,5.41,7.66,10.57,10.88a61.09,61.09,0,0,0,10.82,5.23A90.65,90.65,0,0,0,282,250.4c3.44.82,7.06,1.49,10.83,2,3.5.47,7.11.79,10.83,1q2.74.12,5.54.13t5.29-.12c3.71-.16,7.33-.48,10.83-.94,3.77-.5,7.38-1.16,10.83-2A89.67,89.67,0,0,0,347,247.22,61.41,61.41,0,0,0,357.82,242c5.29-3.25,9.07-7,10.83-11V216.51C367.11,220.81,363.3,224.76,357.82,228.13Z"/><path class="cls-7" d="M309.23,171.29c-32.84,0-59.42,12.16-59.42,27.1s26.58,27.06,59.42,27.11,59.42-12.16,59.42-27.11S342.06,171.33,309.23,171.29Z"/><path class="cls-15" d="M309.23,175.81c-27.36,0-49.51,9-49.51,20.16s22.15,20.13,49.51,20.16,49.5-9,49.5-20.16S336.59,175.84,309.23,175.81Z"/><path class="cls-16" d="M309.23,216.53l0-.4v-.39h0l2.32,0v.79Zm-2.44,0-2.39-.07,0-.79,2.37.08Zm7.17-.07,0-.79,2.37-.12,0,.79ZM302,216.31l-2.38-.17.06-.79,2.37.17Zm16.72-.16-.06-.79,2.36-.21.08.78Zm-21.48-.23-2.38-.27.1-.79c.78.1,1.56.19,2.36.27Zm26.24-.25-.1-.79c.79-.09,1.58-.2,2.35-.31l.11.78C325.08,215.47,324.29,215.58,323.49,215.67Zm-31-.33-2.36-.37.13-.78c.78.13,1.56.26,2.35.37Zm35.71-.36-.13-.78c.79-.13,1.56-.27,2.33-.42l.15.78Zm-40.43-.44c-.79-.16-1.57-.32-2.34-.49l.17-.77c.76.17,1.54.33,2.32.49Zm45.12-.47-.17-.77q1.18-.26,2.31-.55l.19.77C334.48,213.71,333.7,213.89,332.91,214.07Zm-49.79-.57c-.79-.2-1.56-.4-2.31-.62l.22-.76c.75.21,1.51.42,2.29.62Zm54.43-.59-.21-.76q1.16-.33,2.27-.68l.24.76C339.1,212.45,338.34,212.68,337.55,212.9Zm-59-.72q-1.16-.37-2.27-.77l.27-.74c.73.27,1.48.52,2.24.77Zm63.6-.74-.27-.75c.76-.27,1.5-.55,2.21-.84l.3.73C343.63,210.88,342.89,211.16,342.12,211.44Zm-68.11-.9c-.75-.31-1.49-.62-2.2-1l.33-.71c.7.32,1.43.64,2.16.94Zm72.55-.92-.33-.72c.73-.34,1.44-.69,2.12-1l.37.7C348,208.93,347.3,209.29,346.56,209.63Zm-76.9-1.11c-.73-.39-1.43-.79-2.09-1.2l.42-.67c.64.4,1.33.8,2,1.18Zm81.14-1.15-.41-.67c.69-.42,1.35-.87,1.95-1.31l.47.64C352.18,206.48,351.51,206.94,350.8,207.37ZM265.57,206a23.08,23.08,0,0,1-1.87-1.54l.53-.58c.54.5,1.15,1,1.81,1.48Zm89.11-1.47-.53-.58a18.34,18.34,0,0,0,1.62-1.67l.6.51A18.38,18.38,0,0,1,354.68,204.5ZM262,202.68a13.24,13.24,0,0,1-1.4-2l.68-.39a13.1,13.1,0,0,0,1.32,1.9Zm95.76-1.92-.69-.39a9.9,9.9,0,0,0,.9-2.09l.76.22A10.72,10.72,0,0,1,357.79,200.76Zm-98.12-2.36a9,9,0,0,1-.34-2.43l.79,0v0a8.15,8.15,0,0,0,.31,2.21Zm99.46-2.35h-.39l-.4-.08a8,8,0,0,0-.3-2.16l.76-.21a9,9,0,0,1,.32,2.37Zm-98.69-2.34-.75-.22a10.32,10.32,0,0,1,1-2.27l.69.39A10.14,10.14,0,0,0,260.44,193.71Zm96.73-2a12.43,12.43,0,0,0-1.3-1.9l.61-.5a13.29,13.29,0,0,1,1.39,2Zm-94.51-2-.6-.51a17.54,17.54,0,0,1,1.69-1.75l.53.58A17.94,17.94,0,0,0,262.66,189.74Zm91.61-1.61a23.08,23.08,0,0,0-1.8-1.49l.47-.64c.67.5,1.3,1,1.87,1.54Zm-88.18-1.54-.47-.64c.62-.46,1.29-.91,2-1.35l.41.67C267.34,185.7,266.68,186.14,266.08,186.58Zm84.44-1.26c-.64-.4-1.33-.8-2-1.18l.37-.7c.73.39,1.43.8,2.09,1.2Zm-80.44-1.23-.37-.69c.69-.36,1.41-.72,2.15-1.07l.34.71C271.45,183.39,270.74,183.74,270.07,184.09Zm76.29-1c-.7-.33-1.42-.65-2.17-.94l.3-.73q1.13.46,2.2,1Zm-72-1-.3-.73c.73-.3,1.47-.58,2.24-.86l.27.74C275.8,181.53,275.07,181.82,274.35,182.11Zm67.64-.81c-.73-.26-1.48-.52-2.24-.76l.25-.75c.77.25,1.53.51,2.26.78Zm-63.19-.79-.24-.75c.75-.24,1.52-.47,2.3-.69l.22.76C280.3,180,279.54,180.26,278.8,180.5Zm58.68-.66q-1.12-.32-2.29-.62l.2-.77c.79.2,1.56.41,2.31.62Zm-54.12-.64-.19-.77c.77-.19,1.54-.38,2.33-.55l.17.77C284.89,178.83,284.12,179,283.36,179.2Zm49.53-.52q-1.14-.26-2.32-.49l.15-.77q1.19.23,2.34.49Zm-44.89-.5-.15-.78,2.35-.43.13.78C289.53,177.88,288.76,178,288,178.17Zm40.24-.41c-.77-.13-1.55-.26-2.34-.37l.12-.79c.8.12,1.58.24,2.36.38Zm-35.56-.38-.12-.78c.78-.11,1.57-.22,2.37-.32l.1.78Zm30.87-.31-2.36-.27.08-.78,2.38.27Zm-26.16-.28-.08-.78c.79-.08,1.58-.15,2.38-.22l.07.78Zm21.43-.2-2.37-.17,0-.79,2.39.17Zm-16.7-.17,0-.79,2.39-.12,0,.79Zm12-.11-2.37-.08,0-.79,2.39.07Zm-7.22-.08,0-.79,2.39,0h.1v.79h-.1Z"/><path class="cls-16" d="M316.3,190.69c-.14-2.45-2.56-3.8-5.39-3.8-1.17,0-2.78.58-2.77,1.72,0,3.44,16.43,2.62,17.31,10.94.63,6-5.78,8.24-11.19,8.24-.55,0-1.09,0-1.6-.08l.08,2.64H309.8l-.05-3.24a11.79,11.79,0,0,1-5-3l-.53,3.06h-7.94l.55-9.65h8c0,3.1,3.65,3.63,5.49,3.71,1.54,0,3.72-.3,3.66-1.87-.12-2.84-16.6-1.65-16.13-10.46.25-4.72,5.85-6.77,9.69-6.77a16.89,16.89,0,0,1,1.77.09l0-2.21h2.47l.09,2.66a7.39,7.39,0,0,1,4.08,2.6l.24-2.6H323l.81,8Z"/><path class="cls-17" d="M357.82,211.13A60,60,0,0,1,347,216.24a90.25,90.25,0,0,1-10.83,3.14c-3.44.78-7.05,1.41-10.83,1.89-3.49.44-7.11.74-10.83.89-1.74.07-3.5.11-5.29.11s-3.72,0-5.54-.12c-3.72-.16-7.34-.47-10.83-.91-3.77-.48-7.39-1.13-10.83-1.92a89.54,89.54,0,0,1-10.83-3.18A59,59,0,0,1,260.39,211c-5.35-3.33-9.06-7.24-10.57-11.46V214c1.73,4,5.41,7.66,10.57,10.88a61.05,61.05,0,0,0,10.82,5.23A89.63,89.63,0,0,0,282,233.39c3.44.82,7.06,1.49,10.83,2,3.5.47,7.11.79,10.83,1q2.74.12,5.54.13t5.29-.12c3.71-.16,7.33-.48,10.83-.94,3.77-.49,7.38-1.16,10.83-2A90.72,90.72,0,0,0,347,230.22,61.7,61.7,0,0,0,357.82,225c5.29-3.25,9.07-7,10.83-11V199.51C367.11,203.8,363.3,207.76,357.82,211.13Z"/><path class="cls-18" d="M309.23,154.29c-32.84,0-59.42,12.16-59.42,27.1s26.58,27.06,59.42,27.11,59.42-12.16,59.42-27.11S342.06,154.33,309.23,154.29Z"/><path class="cls-8" d="M309.23,158.81c-27.36,0-49.51,9-49.51,20.16s22.15,20.13,49.51,20.16,49.5-9,49.5-20.16S336.59,158.84,309.23,158.81Z"/><path class="cls-17" d="M357.82,194.13A59.72,59.72,0,0,1,347,199.24a90.06,90.06,0,0,1-10.83,3.14q-5.16,1.17-10.83,1.89c-3.49.44-7.11.74-10.83.89q-2.61.11-5.29.11t-5.54-.12c-3.72-.16-7.34-.47-10.83-.91-3.77-.48-7.39-1.13-10.83-1.92a89,89,0,0,1-10.83-3.18A58.67,58.67,0,0,1,260.39,194c-5.35-3.33-9.06-7.23-10.57-11.46V197c1.73,4,5.41,7.66,10.57,10.88a61.25,61.25,0,0,0,10.82,5.23A90.34,90.34,0,0,0,282,216.4c3.44.82,7.06,1.49,10.83,2,3.5.47,7.11.8,10.83,1q2.74.12,5.54.13t5.29-.12c3.71-.16,7.33-.48,10.83-.94,3.77-.49,7.38-1.16,10.83-2A90.4,90.4,0,0,0,347,213.22,61.54,61.54,0,0,0,357.82,208c5.29-3.25,9.07-7,10.83-11v-14.5C367.11,186.8,363.3,190.76,357.82,194.13Z"/><path class="cls-7" d="M309.31,200.76h0c-24.05,0-49.62-7.44-49.62-21.11s25.56-21.08,49.62-21.11,49.62,7.43,49.62,21.11S333.36,200.73,309.31,200.76Zm0-36.35c-25.78,0-43.75,8.06-43.75,15.24s18,15.21,43.75,15.24,43.75-8.06,43.75-15.24S335.09,164.44,309.3,164.41Z"/><path class="cls-7" d="M293,186.4a5.09,5.09,0,0,1,1.55-4.32,7.73,7.73,0,0,1,3.68-2.06,2.8,2.8,0,0,1,1.24-.05,1.55,1.55,0,0,1,.84.41,1.45,1.45,0,0,1,.42.85,1.47,1.47,0,0,1-.17,1,2,2,0,0,1-.71.76,3.68,3.68,0,0,1-1.23.5,3,3,0,0,1-1.52,0,1.43,1.43,0,0,1-.85-.6,2.73,2.73,0,0,0-.92,1.4,4.29,4.29,0,0,0-.16,1.68,2.59,2.59,0,0,0,1.11,1.87,5.27,5.27,0,0,0,2.82.84,15.87,15.87,0,0,0,4-.34,14,14,0,0,0,3.86-1.28,4.39,4.39,0,0,0,2-1.9,3,3,0,0,0,.23-2.17,3.56,3.56,0,0,0-1.2-1.57l-1.08-1.1.81-.19,11.71,3.53-2.86-8.14L306.9,178a4.73,4.73,0,0,0-2,.92,1.55,1.55,0,0,0-.58,1.52,1.83,1.83,0,0,0,.87,1.19,6.45,6.45,0,0,0,1.72.77.57.57,0,0,1,.27.08.27.27,0,0,1,.13.16.58.58,0,0,1-.12.43,1.31,1.31,0,0,1-.68.37c-.12,0-.32,0-.56.05a4.88,4.88,0,0,1-2.54-.86,2.7,2.7,0,0,1-1.1-1.74,4.65,4.65,0,0,1,.77-3.88,6.22,6.22,0,0,1,3.23-1.84l9.37-2.53-1.12-4.11,1.59-.49,1.23,4.15,3.74-1.1.65-1.25.82-.25,1.09,2.78-.15,1.21L318.36,175l4.19,10.81-.93,1.38-11-4.66a4,4,0,0,1,.74,1.15,4.23,4.23,0,0,1-.22,2.58,5.11,5.11,0,0,1-1.91,2.58,11,11,0,0,1-2.89,1.56,20.2,20.2,0,0,1-2.69.76,16.72,16.72,0,0,1-5.31.17,6.57,6.57,0,0,1-3.93-1.72A5.07,5.07,0,0,1,293,186.4Z"/><path class="cls-19" d="M202.77,234.07q-10.7,0-15.63-5.16a15.92,15.92,0,0,1-4.91-11.11,7.37,7.37,0,0,1,.86-3.67,6.35,6.35,0,0,1,2.34-2.35,8.17,8.17,0,0,1,7.3,0,6.25,6.25,0,0,1,2.33,2.35,7.22,7.22,0,0,1,.89,3.67,7,7,0,0,1-1.25,4.3,5.82,5.82,0,0,1-3,2.17,8.11,8.11,0,0,0,4.69,2.92,23.23,23.23,0,0,0,6.39.92,14.24,14.24,0,0,0,8-2.41,14.06,14.06,0,0,0,5.25-7.11A30.89,30.89,0,0,0,217.83,208,29.19,29.19,0,0,0,216,196.9a13.66,13.66,0,0,0-5.42-6.88,14.42,14.42,0,0,0-7.81-2.23,14.86,14.86,0,0,0-6.77,2.3l-5,2.52v-2.52l22.55-30.25H182.24v31.39a11.23,11.23,0,0,0,1.72,6.42,5.92,5.92,0,0,0,5.25,2.52,8.78,8.78,0,0,0,5.19-1.83,18.73,18.73,0,0,0,4.34-4.47,1.56,1.56,0,0,1,.56-.75,1.16,1.16,0,0,1,.75-.28,2.61,2.61,0,0,1,1.47.62,3.13,3.13,0,0,1,.8,2.12,12.42,12.42,0,0,1-.28,1.56,15.13,15.13,0,0,1-5.36,6.65,13.29,13.29,0,0,1-7.52,2.28q-10.15,0-14.06-4a15,15,0,0,1-3.88-10.94V159.84H155.33V154h16v-13.3l-3.66-3.66v-3h10.61l4,2.06V154l41.28-.13,4.11,4.12-25.31,25.44a17,17,0,0,1,4.78-1.16,20.72,20.72,0,0,1,9.25,2.64,19,19,0,0,1,8,7.11,25.1,25.1,0,0,1,3.59,8.58,36.14,36.14,0,0,1,.86,7.34,30.72,30.72,0,0,1-3.12,13.61,20,20,0,0,1-9.38,9.38A30.34,30.34,0,0,1,202.77,234.07Z"/><circle class="cls-20" cx="218.45" cy="287.92" r="56.03" transform="translate(-142.77 299.59) rotate(-54.66)"/><path class="cls-5" d="M181.49,261.71a45.3,45.3,0,1,1,10.75,63.16A45.35,45.35,0,0,1,181.49,261.71ZM249.57,310A38.15,38.15,0,1,0,196.38,319,38.19,38.19,0,0,0,249.57,310Z"/><circle class="cls-6" cx="218.45" cy="287.92" r="38.15" transform="translate(-142.77 299.59) rotate(-54.66)"/><path class="cls-7" d="M241.14,304.6q-3.95,3.94-7.66,3.86a8.3,8.3,0,0,1-5.9-2.29,3.84,3.84,0,0,1-1-1.67,3.31,3.31,0,0,1,0-1.73,4.26,4.26,0,0,1,2.69-2.69,3.26,3.26,0,0,1,1.72,0,3.76,3.76,0,0,1,1.68,1,3.66,3.66,0,0,1,1.12,2,3,3,0,0,1-.29,1.9,4.23,4.23,0,0,0,2.81-.65,12.11,12.11,0,0,0,2.7-2,7.43,7.43,0,0,0,2.08-3.85,7.33,7.33,0,0,0-.68-4.56,16.1,16.1,0,0,0-3.29-4.56A15.22,15.22,0,0,0,232.3,286a7.12,7.12,0,0,0-4.53-.54,7.52,7.52,0,0,0-3.7,2.05,7.75,7.75,0,0,0-1.65,3.34l-.92,2.78-.93-.93-2.83-19.46-11.52,11.51,11.56,11.57a5.85,5.85,0,0,0,3,1.73,3.09,3.09,0,0,0,2.86-1,4.58,4.58,0,0,0,1.24-2.59,9.76,9.76,0,0,0,0-3.25.81.81,0,0,1-.07-.48.6.6,0,0,1,.17-.38,1.36,1.36,0,0,1,.77-.31,1.63,1.63,0,0,1,1.08.49,6.47,6.47,0,0,1,.47.68,7.89,7.89,0,0,1,.48,4.43,6.93,6.93,0,0,1-1.93,3.61q-3.74,3.74-6.66,3.71a7.81,7.81,0,0,1-5.46-2.61l-11.54-11.55-5.86,5.86-2.15-2.15,5.89-5.88-4.9-4.9h-2.7l-1.1-1.1,3.91-3.91,2.23-.71,6.59,6.59,15.18-15.26h3l0,18.71a8.87,8.87,0,0,1,1.34-2.19,10.8,10.8,0,0,1,4.38-2.43,9.91,9.91,0,0,1,5.56-.31,13.08,13.08,0,0,1,4.49,1.84,18.84,18.84,0,0,1,3,2.39,16,16,0,0,1,3.86,6.17,10.4,10.4,0,0,1,0,6.91A15.81,15.81,0,0,1,241.14,304.6Z"/></g></g></svg>