<svg xmlns="http://www.w3.org/2000/svg" viewBox="0 0 128.49 130.36"><defs><style>.cls-1{fill:#f0f1f1;}</style></defs><title>dashed line</title><g id="Layer_2" data-name="Layer 2"><g id="Layer_1-2" data-name="Layer 1"><path class="cls-1" d="M87.63,103.22c-1.14.19-2.31.34-3.48.47A4.11,4.11,0,0,1,83,95.55l.27,0c1-.11,2.06-.25,3.07-.42a4.11,4.11,0,1,1,1.31,8.12Z"/><path class="cls-1" d="M107.12,96.82a58,58,0,0,1-6.29,2.86,4.11,4.11,0,1,1-3-7.67,49.59,49.59,0,0,0,5.38-2.45,4.18,4.18,0,0,1,5.59,1.7A4.11,4.11,0,0,1,107.12,96.82Z"/><path class="cls-1" d="M54,62.74a4.11,4.11,0,0,1,4.15,4.09,39.46,39.46,0,0,0,.46,5.76,4.13,4.13,0,0,1-8.17,1.25,47.58,47.58,0,0,1-.55-7A4.17,4.17,0,0,1,54,62.74Z"/><path class="cls-1" d="M73.55,38.3A28.27,28.27,0,0,0,69,41.52a4.12,4.12,0,1,1-5.41-6.21,36.53,36.53,0,0,1,5.9-4.16,4.12,4.12,0,1,1,4.07,7.15Z"/><path class="cls-1" d="M86.27,109.72c1.69,1.09,3.45,2.13,5.23,3.09a4.1,4.1,0,0,1,1.66,5.57,4.14,4.14,0,0,1-5.6,1.67c-2-1.06-3.92-2.21-5.79-3.42a4.1,4.1,0,0,1-1.22-5.69A4.18,4.18,0,0,1,86.27,109.72Z"/><path class="cls-1" d="M59.85,55.54A4.13,4.13,0,0,1,52,53a41.38,41.38,0,0,1,2.75-6.53,4.18,4.18,0,0,1,6-1.5,4.14,4.14,0,0,1,1.34,5.32A33.16,33.16,0,0,0,59.85,55.54Z"/><path class="cls-1" d="M57.43,81.36a4.13,4.13,0,0,1,4.45,2.3,42.64,42.64,0,0,0,2.89,5.06,4.13,4.13,0,0,1-6.92,4.5,51.54,51.54,0,0,1-3.44-6,4.13,4.13,0,0,1,3-5.81Z"/><path class="cls-1" d="M76.92,108.17a4.14,4.14,0,0,1-5.83.31c-1.67-1.5-3.29-3.08-4.82-4.69A4.1,4.1,0,0,1,66.44,98a4.18,4.18,0,0,1,5.84.16c1.38,1.46,2.84,2.88,4.35,4.23A4.1,4.1,0,0,1,76.92,108.17Z"/><path class="cls-1" d="M112.59,88.6a4.1,4.1,0,0,1,0-5.82,29.43,29.43,0,0,0,3.58-4.31,4.19,4.19,0,0,1,5.73-1.13A4.1,4.1,0,0,1,123,83.05a37.66,37.66,0,0,1-4.58,5.53A4.14,4.14,0,0,1,112.59,88.6Z"/><path class="cls-1" d="M89.86,34.57a36.49,36.49,0,0,0-5.41.22l-.32,0a4.11,4.11,0,0,1-1.23-8.13l.21,0,.42-.05a44.65,44.65,0,0,1,6.64-.27,4.11,4.11,0,1,1-.3,8.22Z"/><path class="cls-1" d="M128.24,69.46a4.13,4.13,0,0,1-8.19-1,24.31,24.31,0,0,0,.06-5.45,4.13,4.13,0,0,1,8.22-.8A32.6,32.6,0,0,1,128.24,69.46Z"/><path class="cls-1" d="M122.48,54.06a4.14,4.14,0,0,1-5.54-1.84,33.52,33.52,0,0,0-3-4.85,4.1,4.1,0,0,1,.9-5.75,4.18,4.18,0,0,1,5.77.88,41.7,41.7,0,0,1,3.69,6A4.11,4.11,0,0,1,122.48,54.06Z"/><path class="cls-1" d="M100.52,117.54a4.12,4.12,0,0,1,2.09.17c1.9.67,3.86,1.27,5.82,1.8a4.12,4.12,0,1,1-2.16,7.94c-2.16-.58-4.32-1.25-6.42-2a4.11,4.11,0,0,1,.67-7.93Z"/><path class="cls-1" d="M105.83,39.58a30.38,30.38,0,0,0-5-2.64,4.1,4.1,0,0,1-2.2-5.39,4.18,4.18,0,0,1,5.41-2.2,38.6,38.6,0,0,1,6.32,3.37,4.1,4.1,0,0,1,1.16,5.7A4.14,4.14,0,0,1,105.83,39.58Z"/><path class="cls-1" d="M122.91,130.34c-1.15-.1-2.3-.22-3.43-.35a4.11,4.11,0,1,1,1-8.17c1,.12,2.09.23,3.14.32a4.11,4.11,0,1,1-.71,8.2Z"/><path class="cls-1" d="M10.75,8.33a4.13,4.13,0,0,1-8-2.12c.3-1.11.62-2.22,1-3.32A4.18,4.18,0,0,1,8.91.18a4.11,4.11,0,0,1,2.72,5.15C11.31,6.32,11,7.33,10.75,8.33Z"/><path class="cls-1" d="M8.61,19.79c-.2,1.93-.32,3.88-.35,5.8A4.13,4.13,0,0,1,0,25.46C0,23.31.17,21.12.4,19a4.17,4.17,0,0,1,4.53-3.68A4.11,4.11,0,0,1,8.61,19.79Z"/><path class="cls-1" d="M4.33,33.75a4.17,4.17,0,0,1,3.46,1.06c1.12,1,1.24,2.4,1.49,3.82s.55,2.84.89,4.25a4.13,4.13,0,0,1-8,2c-.38-1.57-.72-3.17-1-4.76s-.56-2.86.19-4.23A4.16,4.16,0,0,1,4.33,33.75Z"/><path class="cls-1" d="M8.44,51.74a4.17,4.17,0,0,1,5.42,2.15c.76,1.77,1.61,3.54,2.52,5.25A4.13,4.13,0,0,1,9.09,63c-1-1.91-2-3.88-2.81-5.85A4.11,4.11,0,0,1,8.44,51.74Z"/><path class="cls-1" d="M34.92,91.77l-1.45-1c-1.29-.9-2.58-1.87-3.84-2.87A4.1,4.1,0,0,1,29,82.13a4.18,4.18,0,0,1,5.81-.63c1.11.89,2.25,1.74,3.4,2.54l1.29.88a4.1,4.1,0,0,1,1.15,5.7A4.14,4.14,0,0,1,34.92,91.77Z"/><path class="cls-1" d="M26,79.28a4.14,4.14,0,0,1-5.83-.34c-1.43-1.61-2.82-3.29-4.13-5a4.11,4.11,0,0,1,.81-5.76,4.18,4.18,0,0,1,5.78.8c1.17,1.55,2.42,3.06,3.71,4.51A4.1,4.1,0,0,1,26,79.28Z"/><path class="cls-1" d="M55,96.92a4.14,4.14,0,0,1-5.33,2.39c-1.08-.41-2.17-.85-3.24-1.31a4.1,4.1,0,0,1-2.13-5.41,4.18,4.18,0,0,1,5.44-2.13c.95.41,1.91.8,2.88,1.17A4.1,4.1,0,0,1,55,96.92Z"/></g></g></svg>