<?xml version="1.0" encoding="UTF-8"?>
<svg width="761px" height="618px" viewBox="0 0 761 618" version="1.1" xmlns="http://www.w3.org/2000/svg" xmlns:xlink="http://www.w3.org/1999/xlink">
    <title>3410936C-FC2D-494F-B160-54E7E3C7C6FD</title>
    <g id="Page-1" stroke="none" stroke-width="1" fill="none" fill-rule="evenodd" opacity="0.0360571949">
        <g id="Landing---VD" transform="translate(-340.000000, -2082.000000)" fill="#A5CEFF" fill-rule="nonzero">
            <g id="Features-with-photo-1" transform="translate(140.000000, 1892.000000)">
                <g id="Content">
                    <path d="M232.371198,695.394088 C219.051794,669.669136 251.399568,645.846187 259.01456,622.978802 C266.624997,599.158135 260.91603,576.288469 243.791408,558.185218 C224.763038,536.268835 199.073827,521.976435 200.025701,489.578502 C200.975297,463.851269 215.248852,444.794734 239.986189,434.313185 C266.629551,422.880632 292.314208,416.209933 302.780267,385.718566 C311.342578,361.897899 317.051545,336.170665 327.517604,312.347717 C349.401596,265.659664 392.215429,233.261732 444.545725,236.12158 C470.234936,237.072582 494.972273,245.649847 520.661484,246.60085 C548.252165,247.554132 579.641234,242.789999 606.284596,234.215015 C651.002177,219.922614 695.719758,195.148663 743.292962,190.38453 C768.030298,187.524681 797.524728,200.875202 810.844132,221.826899 C826.067283,244.696565 826.067283,272.328083 839.386687,295.197748 C865.075898,342.839084 920.261816,369.5196 915.504723,430.502334 C913.600975,452.418716 905.990538,472.428533 912.649101,495.295918 C919.309942,521.023152 940.24206,541.986252 951.657716,565.806919 C963.075649,591.534153 964.027523,616.308103 954.513338,642.988619 C949.756245,656.327737 943.095405,667.76257 939.290186,681.101688 C936.434564,695.394088 939.290186,708.735487 937.386438,722.074605 C929.776001,778.293205 878.406688,810.691137 825.119964,807.824447 C771.83324,804.957757 717.608305,805.920162 664.326135,801.156029 C622.461899,796.389614 581.551813,795.438612 539.687577,793.532047 C509.241273,792.578764 477.843096,791.625481 448.348667,786.861347 C435.981137,784.957062 422.659456,781.143931 410.291926,783.050497 C388.407934,785.910345 368.427689,789.721196 345.5941,789.721196 C318.001141,789.721196 268.526468,794.485329 247.594349,772.568947 C232.371198,754.465695 241.885383,746.841713 250.449971,729.694025 C263.769375,700.155941 232.371198,710.635211 229.517853,688.721109 L232.371198,695.394088 Z" id="Path"></path>
                </g>
            </g>
        </g>
    </g>
</svg>