<?xml version="1.0" encoding="UTF-8"?>
<svg width="263px" height="43px" viewBox="0 0 263 43" version="1.1" xmlns="http://www.w3.org/2000/svg" xmlns:xlink="http://www.w3.org/1999/xlink">
    <title>Group 7</title>
    <g id="Page-1" stroke="none" stroke-width="1" fill="none" fill-rule="evenodd">
        <g id="Landing---VD" transform="translate(-140.000000, -57.000000)" fill="#FFFFFF">
            <g id="header_18">
                <g id="nav_1">
                    <g id="Group-7" transform="translate(140.000000, 57.000000)">
                        <path d="M3.84,29.24 C5.96,26.44 7.8,22.72 9.52,18.96 C12.76,18.56 16.48,18.64 19.2,18.68 L19.8,18.68 C17.92,23.92 16.92,27.24 17,29.24 L19.28,29.24 C19,27.36 21.64,20.2 23.28,15.84 C25.24,10.52 26.48,7.16 26.48,5.52 C26.48,2.88 24.28,0.96 21.28,0.96 C15.28,0.96 11.8,8.56 8.08,16.64 C8.04,16.68 8,16.76 8,16.84 C5.28,17.24 2.92,18 1.48,19.4 C0.52,20.36 0.04,21.48 0.04,22.8 L2.36,22.8 C2.36,22.12 2.6,21.56 3.08,21.04 C3.88,20.28 5.2,19.76 6.8,19.4 C4.96,23.24 3.04,26.92 0.84,29.24 L3.84,29.24 Z M10.64,16.52 C13.76,9.84 17,3.24 21.28,3.24 C23,3.24 24.16,4.16 24.16,5.52 C24.16,6.84 22.64,11 21.12,15.04 L20.64,16.4 C20.2,16.4 19.72,16.36 19.24,16.36 C16.6,16.36 13.52,16.28 10.64,16.52 Z M29.88,29.24 C31.48,29.24 33.2,27.68 34.8,25.52 C36.6,25.4 40.88,24.84 41.96,20.32 L39.72,19.8 C39.32,21.48 38.32,22.48 36.44,22.96 C38.48,19.4 40.12,15.24 40.64,12.88 L38.12,12.88 C37.12,17.76 32.24,26.96 29.88,26.96 C29.56,26.96 29.44,26.88 29.44,26.88 C29.04,26.28 30.4,23.08 31.04,21.56 C32.4,18.4 33.56,15.64 32.48,14 C32.12,13.48 31.44,12.88 30.04,12.88 C27.76,12.88 25.88,15.36 25.28,17.72 L24.64,19.88 L26.88,20.52 L27.48,18.28 C27.88,16.68 29.16,15.16 30.04,15.16 C30.4,15.16 30.56,15.24 30.56,15.24 C31,15.88 29.64,19 28.96,20.68 C27.6,23.8 26.44,26.48 27.52,28.16 C27.88,28.64 28.52,29.24 29.88,29.24 Z M45.12,29.4 C47.32,29.4 49.2,28 50.6,26.36 C51.16,28.8 53,29.24 54.16,29.24 C58.04,29.24 61.8,22.56 62.32,20.32 L60.08,19.8 C59.64,21.76 56.32,26.96 54.16,26.96 L54.03712,26.9593126 C53.4517333,26.9496889 52.72,26.8053333 52.72,24.64 C52.72,23.32 54.76,16.8 56.04,13.12 L53.6,13.12 C53.32,13.96 52.96,15.12 52.56,16.4 C51.48,14.44 49.56,13.04 46.92,13.04 C42.4,13.04 39.16,19.08 39.16,23.16 C39.16,26.84 41.6,29.4 45.12,29.4 Z M45.12,27.12 C42.88,27.12 41.44,25.56 41.44,23.16 C41.44,20.12 43.96,15.32 46.92,15.32 C50.36,15.32 51.28,18.56 51.32,20.52 C51.24,20.76 51.16,21.04 51.12,21.28 L51.08,21.24 C50.68,22.6 47.96,27.12 45.12,27.12 Z M62.6,29.2 C66.52,29.2 69.84,22.12 70.24,20.32 L68,19.8 C67.56,21.76 64.56,26.92 62.6,26.92 C61.64,26.92 61.2,26.2 61.2,24.84 C61.2,23.36 65.2,10.04 68,1.04 L65.64,1.04 C65.6,1.2 65.52,1.36 65.48,1.52 C64.88,3.04 60.92,10.2 42.48,7.88 L42.2,10.16 C44.72,10.48 47.08,10.64 49.28,10.64 C55.16,10.64 59.84,9.52 63.28,7.28 C63.48,7.16 63.64,7 63.84,6.88 C61.64,14.08 58.92,23.36 58.92,24.84 C58.92,28.04 60.88,29.2 62.6,29.2 Z M73.36,29.4 C75.56,29.4 77.44,28 78.84,26.36 C79.4,28.8 81.24,29.24 82.4,29.24 C86.28,29.24 90.04,22.56 90.56,20.32 L88.32,19.8 C87.88,21.76 84.56,26.96 82.4,26.96 L82.27712,26.9593126 C81.6917333,26.9496889 80.96,26.8053333 80.96,24.64 C80.96,23.32 83,16.8 84.28,13.12 L81.84,13.12 C81.56,13.96 81.2,15.12 80.8,16.4 C79.72,14.44 77.8,13.04 75.16,13.04 C70.64,13.04 67.4,19.08 67.4,23.16 C67.4,26.84 69.84,29.4 73.36,29.4 Z M73.36,27.12 C71.12,27.12 69.68,25.56 69.68,23.16 C69.68,20.12 72.2,15.32 75.16,15.32 C78.6,15.32 79.52,18.56 79.56,20.52 C79.48,20.76 79.4,21.04 79.36,21.28 L79.32,21.24 C78.92,22.6 76.2,27.12 73.36,27.12 Z M100.2,29.24 C104.08,29.24 107.96,22.16 108.4,20.32 L106.16,19.8 C105.76,21.56 102.24,26.96 100.2,26.96 C99.28,26.96 98.8,26.24 98.8,24.84 C98.8,23.2 99.52,21.52 100.04,20.4 C100.12,20.24 100.16,20.08 100.24,19.92 C101.24,17.52 101.32,15.68 100.48,14.4 C99.8,13.4 98.64,12.84 97.2,12.84 C95.36,12.84 93.48,14.16 91.88,15.84 L92.76,12.84 L90.36,12.84 C87.44,22.84 87.4,23.08 87.36,23.28 L85.64,29.2 L88,29.2 L89.72,23.32 C90.8,20.6 94.56,15.16 97.2,15.16 C97.56,15.16 98.28,15.2 98.56,15.64 C98.76,15.92 99.08,16.8 98.12,19.04 C98.08,19.16 98,19.32 97.92,19.48 C97.4,20.72 96.48,22.72 96.48,24.84 C96.48,28.08 98.48,29.24 100.2,29.24 Z M111.28,29.2 C116.72,29.2 120.2,22.2 120.64,20.32 L118.44,19.8 C118,21.64 114.84,26.88 111.28,26.88 C109.2,26.88 107.92,25.6 107.92,23.48 C107.92,19.48 110.52,15.08 112.88,15.08 C113.2,15.08 113.84,15.44 113.84,16.08 C113.84,17.12 113.36,18.44 113.2,18.68 L114.16,19.32 L115.08,20 C115.44,19.48 116.12,17.6 116.12,16.08 C116.12,14.12 114.44,12.8 112.88,12.8 C108.88,12.8 105.64,18.64 105.64,23.48 C105.64,26.84 107.96,29.2 111.28,29.2 Z M130.2,29.2 C134,29.2 137.8,22.48 138.32,20.32 L136.08,19.8 C135.64,21.64 132.24,26.92 130.2,26.92 L130.086643,26.9192359 C129.588752,26.9096845 128.8,26.7807407 128.8,25.04 C128.8,23.4 129.56,21.72 130.04,20.64 C130.12,20.44 130.2,20.28 130.24,20.12 C131.28,17.64 131.36,15.72 130.48,14.4 C129.84,13.44 128.72,12.88 127.36,12.88 C125.44,12.88 123.48,14.36 121.8,16.24 L125.76,2.4 C125.92,2.04 126,1.8 126,1.76 L125.96,1.76 L126.2,0.96 L123.8,0.96 L123.64,1.52 C122.92,3.2 118.84,10.12 100.68,7.84 L100.4,10.12 C102.92,10.44 105.28,10.6 107.48,10.6 C113.36,10.6 118.04,9.48 121.48,7.2 L122.16,6.72 L117.36,23.56 L115.72,29.16 L118.12,29.16 L119.52,24.2 C120.24,21.68 124.6,15.16 127.36,15.16 C127.76,15.16 128.32,15.28 128.6,15.68 C128.8,15.96 129.12,16.92 128.16,19.24 L127.96,19.72 C127.4,20.92 126.52,22.92 126.52,25.04 C126.52,27.64 127.88,29.2 130.2,29.2 Z M141.12,29.24 C146.52,29.24 149.88,22.28 150.36,20.32 L148.12,19.8 C147.72,21.48 144.76,26.96 141.12,26.96 C139.04,26.96 137.76,25.64 137.76,23.56 C137.76,23.08 137.8,22.64 137.88,22.2 C138.72,22.88 139.8,23.36 140.84,23.36 C143.8,23.36 146.52,20.2 146.52,16.72 C146.52,14.24 144.28,12.88 142.72,12.88 C139.56,12.88 135.48,18.04 135.48,23.56 C135.48,26.88 137.8,29.24 141.12,29.24 Z M140.84,21.08 C139.8,21.08 138.8,20.04 138.6,19.52 C139.72,16.88 141.72,15.16 142.72,15.16 C143.16,15.16 144.24,15.64 144.24,16.72 C144.24,18.92 142.56,21.08 140.84,21.08 Z M168.88,30.56 C176.28,30.56 181.16,24.92 182.52,19.8 L180.16,19.8 C178.64,24.16 173.88,28.28 168.88,28.28 C165.52,28.28 163.44,25.44 163.44,20.84 C163.44,13.48 168.88,3.24 174.24,3.24 C175.96,3.24 177.04,3.88 177.6,5.16 C178,6.08 178,7.2 177.88,8.16 L180.2,8.16 C180.32,6.88 180.2,5.48 179.72,4.28 C178.8,2.16 176.88,0.96 174.24,0.96 C167.04,0.96 161.16,13 161.16,20.84 C161.16,26.76 164.2,30.56 168.88,30.56 Z M185.52,29.4 C187.72,29.4 189.6,28 191,26.36 C191.56,28.8 193.4,29.24 194.56,29.24 C198.44,29.24 202.2,22.56 202.72,20.32 L200.48,19.8 C200.04,21.76 196.72,26.96 194.56,26.96 L194.43712,26.9593126 C193.851733,26.9496889 193.12,26.8053333 193.12,24.64 C193.12,23.32 195.16,16.8 196.44,13.12 L194,13.12 C193.72,13.96 193.36,15.12 192.96,16.4 C191.88,14.44 189.96,13.04 187.32,13.04 C182.8,13.04 179.56,19.08 179.56,23.16 C179.56,26.84 182,29.4 185.52,29.4 Z M185.52,27.12 C183.28,27.12 181.84,25.56 181.84,23.16 C181.84,20.12 184.36,15.32 187.32,15.32 C190.76,15.32 191.68,18.56 191.72,20.52 C191.64,20.76 191.56,21.04 191.52,21.28 L191.48,21.24 C191.08,22.6 188.36,27.12 185.52,27.12 Z M196.32,42.44 L200.76,27 C201.56,28.16 202.84,29.08 204.76,29.08 C207.2,29.08 209.08,27.96 210.48,26.36 C212.8,25.52 215.44,23.56 216.24,20.32 L214,19.8 C213.76,20.72 213.32,21.52 212.76,22.16 C213.2,20.72 213.44,19.2 213.44,17.88 C213.44,14.84 211.76,13 208.92,13 C207.56,13 205.8,13.84 204.2,15.12 L204.84,12.88 L202.44,12.88 L200.36,20.2 C200.28,20.4 200.2,20.6 200.16,20.8 L193.96,42.44 L196.32,42.44 Z M204.76,26.8 C202.28,26.8 201.92,24 201.88,23.16 L202.52,20.88 C203.72,17.76 207.4,15.28 208.92,15.28 C209.96,15.28 211.16,15.6 211.16,17.88 C211.16,20.8 209.6,26.8 204.76,26.8 Z M219.28,9.6 L220.28,6.64 L217.88,6.64 L216.88,9.6 L219.28,9.6 Z M217.32,29.24 C221.16,29.24 225,22.48 225.52,20.32 L223.28,19.8 C222.84,21.68 219.48,26.96 217.32,26.96 C216.08,26.96 215.28,26 215.28,24.56 C215.28,23.2 217.4,16.52 218.68,12.88 L216.24,12.88 C215.28,15.68 212.96,22.72 212.96,24.56 C212.96,27.28 214.8,29.24 217.32,29.24 Z M226.56,29.2 C230.4,29.2 234.2,22.48 234.72,20.32 L232.52,19.8 C232.04,21.68 228.68,26.92 226.56,26.92 C225.32,26.92 224.52,26 224.52,24.52 C224.52,23.2 228.52,10.24 228.92,8.88 L232.64,8.88 L233.4,6.6 L229.6,6.6 C230.08,5.04 230.56,3.48 231,2.04 C231.08,1.84 231.12,1.72 231.12,1.68 C231.2,1.44 231.28,1.2 231.36,0.96 L228.96,0.96 C228.96,1 228.92,1.04 228.92,1.12 L228.914358,1.13548224 C228.76728,1.560128 225.8312,10.2688 205.8,7.76 L205.52,10.04 C208.04,10.36 210.4,10.52 212.6,10.52 C218.48,10.52 223.16,9.4 226.6,7.12 C226.8,7 227.04,6.84 227.2,6.72 C226,10.8 224.48,15.8 224.04,17.4 C223.12,20.28 222.24,23.4 222.24,24.52 C222.24,27.24 224.04,29.2 226.56,29.2 Z M237.88,29.4 C240.08,29.4 241.96,28 243.36,26.36 C243.92,28.8 245.76,29.24 246.92,29.24 C250.8,29.24 254.56,22.56 255.08,20.32 L252.84,19.8 C252.4,21.76 249.08,26.96 246.92,26.96 L246.79712,26.9593126 C246.211733,26.9496889 245.48,26.8053333 245.48,24.64 C245.48,23.32 247.52,16.8 248.8,13.12 L246.36,13.12 C246.08,13.96 245.72,15.12 245.32,16.4 C244.24,14.44 242.32,13.04 239.68,13.04 C235.16,13.04 231.92,19.08 231.92,23.16 C231.92,26.84 234.36,29.4 237.88,29.4 Z M237.88,27.12 C235.64,27.12 234.2,25.56 234.2,23.16 C234.2,20.12 236.72,15.32 239.68,15.32 C243.12,15.32 244.04,18.56 244.08,20.52 C244,20.76 243.92,21.04 243.88,21.28 L243.84,21.24 C243.44,22.6 240.72,27.12 237.88,27.12 Z M255.36,29.2 C259.28,29.2 262.6,22.12 263,20.32 L260.76,19.8 C260.32,21.76 257.32,26.92 255.36,26.92 C254.4,26.92 253.96,26.2 253.96,24.84 C253.96,23.36 257.96,10.04 260.76,1.04 L258.4,1.04 C258.36,1.2 258.28,1.36 258.24,1.52 C257.64,3.04 253.68,10.2 235.24,7.88 L234.96,10.16 C237.48,10.48 239.84,10.64 242.04,10.64 C247.92,10.64 252.6,9.52 256.04,7.28 C256.24,7.16 256.4,7 256.6,6.88 C254.4,14.08 251.68,23.36 251.68,24.84 C251.68,28.04 253.64,29.2 255.36,29.2 Z" id="AvalancheCapital" fill-rule="nonzero"></path>
                        <circle id="Oval" cx="155.5" cy="18.5" r="2.5"></circle>
                    </g>
                </g>
            </g>
        </g>
    </g>
</svg>