<?xml version="1.0" encoding="UTF-8"?>
<svg width="503px" height="343px" viewBox="0 0 503 343" version="1.1" xmlns="http://www.w3.org/2000/svg" xmlns:xlink="http://www.w3.org/1999/xlink">
    <!-- Generator: sketchtool 62 (101010) - https://sketch.com -->
    <title>A9DAF2C9-8246-4AD2-9AFD-AA6337B9D0C9</title>
    <desc>Created with sketchtool.</desc>
    <defs>
        <linearGradient x1="50.0019333%" y1="100%" x2="50.0019333%" y2="-0.00248366987%" id="linearGradient-1">
            <stop stop-color="#808080" stop-opacity="0.25" offset="0%"></stop>
            <stop stop-color="#808080" stop-opacity="0.12" offset="54%"></stop>
            <stop stop-color="#808080" stop-opacity="0.1" offset="100%"></stop>
        </linearGradient>
        <linearGradient x1="50.0197803%" y1="99.9899581%" x2="50.0197803%" y2="0.00209562802%" id="linearGradient-2">
            <stop stop-color="#808080" stop-opacity="0.25" offset="0%"></stop>
            <stop stop-color="#808080" stop-opacity="0.12" offset="54%"></stop>
            <stop stop-color="#808080" stop-opacity="0.1" offset="100%"></stop>
        </linearGradient>
    </defs>
    <g id="Page-1" stroke="none" stroke-width="1" fill="none" fill-rule="evenodd">
        <g id="Landing---VD2" transform="translate(-265.000000, -1293.000000)">
            <g id="features_17" transform="translate(0.000000, 930.000000)">
                <g id="bg_image" transform="translate(-0.000694, 0.332828)">
                    <g id="undraw_filing_system_b5d2" transform="translate(265.000694, 362.667172)">
                        <path d="M49.0390672,261.09553 C46.8918782,265.700564 49.9650112,270.6706 48.8989243,275.425635 C47.5525518,281.425678 39.8346837,286.095712 31.5212085,289.075734 C23.2077333,292.055755 13.9232682,293.865769 5.82000731,297.075792 C2.31643558,298.460802 -1.33728923,301.015821 0.48456807,303.365838 C1.11521098,304.180844 2.29641517,304.750848 3.45259384,305.285852 C27.0566571,316.165931 56.2313995,322.075974 85.3811163,321.885972 C116.212548,321.680971 146.403326,314.885921 177.209731,315.665927 C216.940235,316.665934 255.369412,330.196033 294.659466,326.296004 C311.336468,324.630992 326.822255,319.910958 343.063812,316.960936 C366.948161,312.625905 392.068771,312.190902 416.803987,310.765891 C435.377922,309.695884 456.604562,306.920863 465.478609,296.490788 C471.89515,288.950733 469.202405,278.99066 460.16319,272.605614 C451.123975,266.220568 436.684254,263.490548 423.345656,264.730557 C416.173344,265.395562 409.046078,267.120574 401.873766,266.435569 C397.709521,266.035566 393.865602,264.845558 390.06673,263.675549 C360.681773,254.575483 330.24074,245.495417 297.622487,244.175407 C244.568401,242.010392 195.393269,260.450526 143.705575,268.425584 C135.657371,269.665593 126.918462,270.6206 119.315711,268.540585 C111.307547,266.345569 106.05219,261.160531 98.0290102,258.975515 C94.2201273,257.935507 89.9758004,257.635505 86.2319837,256.505497 C75.941493,253.395474 80.726371,249.120443 66.4418085,252.005464 C58.9792007,253.525475 51.4415164,255.960493 49.0390672,261.09553 Z" id="Path" fill="#FE4D85" fill-rule="nonzero" opacity="0.1"></path>
                        <path d="M55.1159479,104 C55.1159479,104 82.8065577,131.815512 67.1834123,173.08982 C51.560267,214.364128 94,283 94,283 C94,283 93.5431248,282.93515 92.7038649,282.785497 C35.8030387,272.698882 7.54630098,207.365354 39.1700103,158.84285 C50.9246146,140.779729 60.5785861,119.6138 55.1159479,104 Z" id="Path" fill="#FE4D85" fill-rule="nonzero"></path>
                        <path d="M55.1159479,104 C55.1159479,104 82.8065577,131.815512 67.1834123,173.08982 C51.560267,214.364128 94,283 94,283 C94,283 93.5431248,282.93515 92.7038649,282.785497 C35.8030387,272.698882 7.54630098,207.365354 39.1700103,158.84285 C50.9246146,140.779729 60.5785861,119.6138 55.1159479,104 Z" id="Path" fill="#000000" fill-rule="nonzero" opacity="0.1"></path>
                        <path d="M54.5162724,104 C54.5162724,104 70.4026188,138.095951 54.5162724,165.911462 C38.629926,193.726974 51.7911685,271.785999 94,283" id="Path" stroke="#535461"></path>
                        <path d="M5,215.347951 C5,215.347951 36.8531574,210.285352 39.7566356,238.78184 C42.6601137,267.278329 101,271.231454 101,271.231454 C101,271.231454 100.619544,271.491331 99.9036867,271.956111 C51.7359858,303.516147 5.68582156,292.066575 12.6241331,250.146452 C15.2072274,234.548847 14.9919695,218.906264 5,215.347951 Z" id="Path" fill="#FE4D85" fill-rule="nonzero"></path>
                        <path d="M5,215.347951 C5,215.347951 36.8531574,210.285352 39.7566356,238.78184 C42.6601137,267.278329 101,271.231454 101,271.231454 C101,271.231454 100.619544,271.491331 99.9036867,271.956111 C51.7359858,303.516147 5.68582156,292.066575 12.6241331,250.146452 C15.2072274,234.548847 14.9919695,218.906264 5,215.347951 Z" id="Path" fill="#F5F5F5" fill-rule="nonzero" opacity="0.2"></path>
                        <path d="M5,216 C5,216 29.724618,221.446088 27.6921833,244.009169 C25.6597487,266.57225 64.4061636,293.616798 101,272.179108" id="Path" stroke="#535461"></path>
                        <polygon id="Path" fill="#FE4D85" fill-rule="nonzero" points="339 282 76 282 76 119 109.634335 119 123.471945 135.959538 339 135.959538"></polygon>
                        <polygon id="Path" fill="#000000" fill-rule="nonzero" opacity="0.1" points="339 282 76 282 76 119 109.634335 119 123.471945 135.959538 339 135.959538"></polygon>
                        <polygon id="Rectangle" fill="#F1F1F4" fill-rule="nonzero" transform="translate(217.847146, 163.691096) rotate(-19.885165) translate(-217.847146, -163.691096) " points="155.048967 66.1280484 280.525508 66.2050134 280.645324 261.254143 155.168783 261.177178"></polygon>
                        <polygon id="Rectangle" fill="#FFFFFF" fill-rule="nonzero" transform="translate(165.991353, 103.552329) rotate(-19.885165) translate(-165.991353, -103.552329) " points="148.26206 99.3769014 183.715529 99.3986479 183.720645 107.727757 148.267176 107.70601"></polygon>
                        <polygon id="Rectangle" fill="#FFFFFF" fill-rule="nonzero" transform="translate(199.670463, 115.767190) rotate(-19.650000) translate(-199.670463, -115.767190) " points="160.724145 111.924939 238.612136 111.972241 238.616781 119.609441 160.72879 119.562139"></polygon>
                        <polygon id="Rectangle" fill="#FFFFFF" fill-rule="nonzero" transform="translate(205.168815, 131.134029) rotate(-19.650000) translate(-205.168815, -131.134029) " points="166.222497 127.291778 244.110487 127.33908 244.115132 134.97628 166.227142 134.928978"></polygon>
                        <polygon id="Rectangle" fill="#FFFFFF" fill-rule="nonzero" transform="translate(210.662156, 146.500868) rotate(-19.650000) translate(-210.662156, -146.500868) " points="171.715838 142.658617 249.603829 142.705919 249.608474 150.343119 171.720484 150.295817"></polygon>
                        <polygon id="Rectangle" fill="#FFFFFF" fill-rule="nonzero" transform="translate(216.160508, 161.862707) rotate(-19.650000) translate(-216.160508, -161.862707) " points="177.21419 158.020456 255.102181 158.067758 255.106826 165.704958 177.218835 165.657656"></polygon>
                        <polygon id="Rectangle" fill="#FFFFFF" fill-rule="nonzero" transform="translate(221.657175, 177.224837) rotate(-19.650000) translate(-221.657175, -177.224837) " points="182.710857 173.382586 260.598847 173.429888 260.603492 181.067088 182.715502 181.019786"></polygon>
                        <polygon id="Rectangle" fill="#FFFFFF" fill-rule="nonzero" transform="translate(227.155526, 192.591677) rotate(-19.650000) translate(-227.155526, -192.591677) " points="188.209209 188.749425 266.097199 188.796727 266.101844 196.433928 188.213854 196.386626"></polygon>
                        <polygon id="Rectangle" fill="#FFFFFF" fill-rule="nonzero" transform="translate(270.735502, 214.285930) rotate(-19.650000) translate(-270.735502, -214.285930) " points="260.646516 204.211906 280.812242 204.224153 280.824489 224.359954 260.658762 224.347707"></polygon>
                        <polygon id="Rectangle" fill="url(#linearGradient-1)" fill-rule="nonzero" transform="translate(155.237151, 167.867573) rotate(-59.280000) translate(-155.237151, -167.867573) " points="90.4577288 67.0054737 219.846733 67.1145712 220.016574 268.729673 90.6275695 268.620575"></polygon>
                        <polygon id="Rectangle" fill="#F1F1F4" fill-rule="nonzero" transform="translate(155.239305, 167.868850) rotate(-59.280000) translate(-155.239305, -167.868850) " points="92.468664 70.1355972 217.845374 70.2413116 218.009946 265.602104 92.6332361 265.496389"></polygon>
                        <polygon id="Rectangle" fill="#FFFFFF" fill-rule="nonzero" transform="translate(76.773688, 154.244421) rotate(-59.280000) translate(-76.773688, -154.244421) " points="59.0575431 150.058277 94.4828047 150.088147 94.4898323 158.430564 59.0645707 158.400695"></polygon>
                        <polygon id="Rectangle" fill="#FFFFFF" fill-rule="nonzero" transform="translate(110.000111, 141.241621) rotate(-59.280000) translate(-110.000111, -141.241621) " points="71.0996427 137.385633 148.894138 137.451227 148.900579 145.097609 71.106084 145.032014"></polygon>
                        <polygon id="Rectangle" fill="#FFFFFF" fill-rule="nonzero" transform="translate(124.053005, 149.578161) rotate(-59.280000) translate(-124.053005, -149.578161) " points="85.1525372 145.722173 162.947032 145.787767 162.953473 153.434149 85.1589785 153.368554"></polygon>
                        <polygon id="Rectangle" fill="#FFFFFF" fill-rule="nonzero" transform="translate(138.017539, 157.674494) rotate(-59.331073) translate(-138.017539, -157.674494) " points="99.1229677 153.819111 176.905676 153.884631 176.91211 161.529877 99.1294018 161.464357"></polygon>
                        <polygon id="Rectangle" fill="#FFFFFF" fill-rule="nonzero" transform="translate(152.154487, 166.243687) rotate(-59.280000) translate(-152.154487, -166.243687) " points="113.254019 162.387699 191.048514 162.453293 191.054955 170.099674 113.260461 170.03408"></polygon>
                        <polygon id="Rectangle" fill="#FFFFFF" fill-rule="nonzero" transform="translate(166.207382, 174.580227) rotate(-59.280000) translate(-166.207382, -174.580227) " points="127.306914 170.724239 205.101409 170.789833 205.10785 178.436215 127.313355 178.37062"></polygon>
                        <polygon id="Rectangle" fill="#FFFFFF" fill-rule="nonzero" transform="translate(180.265286, 182.916767) rotate(-59.280000) translate(-180.265286, -182.916767) " points="141.364818 179.060779 219.159313 179.126373 219.165755 186.772755 141.37126 186.707161"></polygon>
                        <polygon id="Rectangle" fill="#FFFFFF" fill-rule="nonzero" transform="translate(227.532351, 171.598757) rotate(-59.331073) translate(-227.532351, -171.598757) " points="217.454635 161.511768 237.593103 161.528732 237.610067 181.685746 217.471598 181.668782"></polygon>
                        <path d="M479.987696,63.5438256 C479.987696,63.2971889 479.962593,63.0622174 479.912388,62.8389111 C479.862182,62.6156049 479.818671,62.3573029 479.781853,62.0640052 C479.688136,61.5574 479.581031,61.0674595 479.460538,60.5941836 C479.400292,60.3575457 479.338371,60.1259071 479.274778,59.899268 C478.554774,57.2731422 477.268041,54.8350678 475.504345,52.7551352 L475.203112,52.4151765 C475.00229,52.1952032 474.803142,51.9868951 474.605667,51.7902523 C474.408192,51.5936095 474.214064,51.4119649 474.023283,51.2453185 C473.832502,51.0753391 473.646742,50.9203579 473.466002,50.7703761 C473.109543,50.4804113 472.773166,50.2354411 472.461892,50.0354654 C472.150618,49.8354896 472.040166,49.7604987 471.864447,49.6555115 C471.435325,49.4024073 470.955254,49.2470418 470.458693,49.2005667 L467.361014,48.9006031 L467.361014,48.9006031 L463.173876,48.4906529 L448.057002,42.6763587 L447.459556,42.8863332 C447.017721,41.6798777 446.643944,40.4497752 446.339974,39.2017805 C446.797624,39.005062 447.205731,38.7096626 447.534864,38.3368854 C447.892118,38.0620041 448.175074,37.702927 448.358235,37.2920123 C448.739796,36.4221179 448.011817,34.5623436 448.157413,33.5024723 C448.398399,31.7976792 449.292057,30.1478795 450.020036,28.603067 C451.576407,25.28347 452.711051,21.6889063 452.530311,18.0443488 C452.349571,14.3997912 450.667687,10.7052396 447.559967,8.66548725 C445.953391,7.6106153 444.045583,7.04568388 442.393822,6.0858004 C441.0935,5.33589143 439.948814,4.36100977 438.708739,3.51611233 C432.496859,-0.57547042 424.588709,-1.13484283 417.858397,2.04129136 C414.715533,3.57610505 412.03456,5.8658271 409.067415,7.70060438 C406.10027,9.53538165 402.605968,10.9552093 399.136768,10.4102755 C399.087459,10.5480628 399.052139,10.6904234 399.031337,10.8352239 L398.740145,10.8002281 C398.142699,12.4150321 399.6087,14.0048391 400.959228,15.109705 C403.519708,17.1994513 406.426606,19.2891976 409.770292,19.3591891 C411.060573,19.3891855 412.426162,19.1192183 413.600971,19.6441546 C413.855793,19.7612019 414.095223,19.9089558 414.313889,20.0841011 C412.797279,26.1006239 414.819874,32.4543351 419.540281,36.5021082 L411.818676,33.752442 C411.818676,33.752442 411.497361,33.9174219 410.995306,34.2273843 L400.266392,27.1632418 C400.266392,27.1632418 378.763379,19.4091831 372.788925,31.4277241 C366.814471,43.4462652 398.674878,37.2420184 398.674878,37.2420184 L405.492784,40.951568 C405.266939,42.3452936 405.531175,43.7739268 406.240846,44.9960771 L424.816878,56.3646971 C421.061507,57.5095581 414.891252,59.3643329 413.77167,59.3643329 C412.180156,59.3643329 407.797216,60.9141448 405.010811,67.1183917 C402.224406,73.3226385 392.268657,103.568967 383.507798,108.613355 C374.746939,113.657742 351.647391,147.388648 351.647391,147.388648 L351.752823,147.653616 C351.341138,147.760269 350.93782,147.878588 350.54287,148.008572 C344.764218,149.868347 340.878313,153.79287 338.533716,156.967485 C337.739,158.065796 337.59114,159.502204 338.145565,160.738225 C338.699991,161.974246 339.872954,162.823172 341.224731,162.966757 C350.342048,164.106618 355.322433,159.967121 357.717236,156.807504 C357.872873,156.602529 358.018468,156.402553 358.154023,156.207577 C358.867315,156.509047 359.665798,156.544543 360.403229,156.307565 L371.55387,147.388648 C371.55387,147.388648 362.828155,155.887616 367.944095,163.631676 L367.557512,164.166611 C358.931509,176.338126 352.595019,189.96727 348.855966,204.391728 C348.855966,204.391728 344.076403,207.891303 343.679779,221.83961 C343.283156,235.787917 338.503593,258.290185 338.503593,258.290185 C338.503593,258.290185 335.315544,285.046937 337.308702,293.190949 C337.308702,293.190949 337.539647,293.515909 337.961374,294.010849 C337.810757,294.185828 337.6501,294.375805 337.459319,294.570781 C335.722209,296.430556 332.584365,298.995244 328.924385,298.230337 C323.346554,297.065478 323.346554,306.759302 331.314166,307.539207 C336.445168,308.039146 346.52141,310.308871 353.053145,311.858683 C354.49325,312.224618 356.022106,311.870129 357.151751,310.908358 C358.281395,309.946587 358.870629,308.497749 358.731386,307.02427 C358.339784,303.549691 357.631886,299.345202 356.341605,296.350565 C356.261276,296.165588 356.180947,295.98561 356.095598,295.805631 C356.331564,295.590657 356.562509,295.365685 356.798475,295.125714 C356.798475,295.125714 356.798475,278.062785 359.58488,273.40835 C359.58488,273.40835 367.150848,238.122633 366.754224,229.203716 C366.44295,222.204566 386.379552,195.047862 395.060082,183.569256 L394.989794,183.134309 C397.208877,180.204664 398.614631,178.404883 398.614631,178.404883 L405.382332,220.669752 C405.382332,220.669752 408.630627,229.978622 412.611923,235.008012 C412.611923,235.008012 429.737017,267.194105 431.725154,277.272881 C433.231319,284.916953 436.34406,289.436405 437.749814,291.176193 C437.584136,291.341173 437.413437,291.506153 437.247759,291.676133 C435.43534,293.320933 432.759388,294.970733 429.716935,294.340809 C424.159186,293.170951 424.159186,302.864774 432.126798,303.63968 C437.2578,304.13962 447.334042,306.409344 453.865777,307.959156 C455.305882,308.325091 456.834739,307.970603 457.964383,307.008832 C459.094027,306.047061 459.683261,304.598223 459.544019,303.124743 C459.092169,299.090233 458.203532,294.070842 456.486504,291.126199 C456.342582,290.87623 456.191965,290.641258 456.034655,290.421285 C456.640739,290.180134 457.182169,289.801874 457.616128,289.316419 C457.616128,289.316419 447.253714,264.864387 447.253714,258.270188 C447.253714,258.270188 442.870774,233.063248 428.140482,223.774375 C428.140482,223.774375 429.536195,192.253202 433.728354,174.705332 C433.832112,174.272051 433.937543,173.847103 434.044648,173.430486 C437.815081,172.845557 441.690945,172.060653 445.6622,171.035777 L446.058823,159.402189 L448.067043,168.711059 L470.348241,155.127708 C470.348241,155.127708 470.15244,152.683005 469.775898,148.93346 C469.585117,147.058688 469.354172,144.858955 469.073021,142.474244 C468.852117,140.564476 468.596069,138.539722 468.319939,136.474972 C468.249651,135.958369 468.17769,135.438432 468.104055,134.915162 C467.812864,132.825416 467.491548,130.710672 467.14513,128.640923 C467.014596,127.864351 466.880715,127.096111 466.743486,126.336203 C466.562747,125.336325 466.371966,124.336446 466.176164,123.366564 C466.0791,122.883289 465.978689,122.40668 465.874931,121.936737 C465.771173,121.466794 465.667415,121.00685 465.563657,120.556905 C465.459899,120.106959 465.354468,119.665346 465.247363,119.232066 L465.086705,118.592143 C464.976253,118.172194 464.865801,117.762244 464.755349,117.362293 C464.28778,115.704673 464.016501,113.998288 463.94704,112.27791 C463.920264,111.611324 463.920264,110.928074 463.94704,110.228159 C463.973817,109.528244 464.040757,108.848326 464.147862,108.188406 C464.194721,107.855113 464.25162,107.52182 464.318561,107.188528 C464.575279,105.837668 464.95334,104.512503 465.448185,103.229008 C465.695865,102.585753 465.973669,101.95083 466.281596,101.324239 C467.004555,99.8594172 467.787761,98.2696102 468.570966,96.5948135 C468.969263,95.7582484 469.370907,94.9033522 469.775898,94.0301249 C470.180889,93.1568975 470.589227,92.2703385 471.000912,91.3704477 C474.876777,82.8214855 478.702435,73.2926422 479.726627,67.0384014 C479.832059,66.3784815 479.912388,65.7585567 479.952552,65.1736277 C480,64.6317226 480.012015,64.0872711 479.987696,63.5438256 Z" id="Path" fill="url(#linearGradient-2)" fill-rule="nonzero"></path>
                        <path d="M413,37.4341149 L400.032085,28.4733486 C400.032085,28.4733486 379.43511,20.6820383 373.714554,32.7562912 C367.993999,44.8305441 398.500325,38.5985083 398.500325,38.5985083 L411.468239,46 L413,37.4341149 Z" id="Path" fill="#F7BBC3" fill-rule="nonzero"></path>
                        <polygon id="Rectangle" fill="#F1F1F4" fill-rule="nonzero" transform="translate(386.832789, 107.097647) rotate(-57.570000) translate(-386.832789, -107.097647) " points="324.056419 9.36776033 449.439537 9.47671909 449.60916 204.827534 324.226041 204.718575"></polygon>
                        <polygon id="Rectangle" fill="#FFFFFF" fill-rule="nonzero" transform="translate(308.809328, 91.142086) rotate(-57.570000) translate(-308.809328, -91.142086) " points="291.09217 86.9556966 326.519243 86.986483 326.526486 95.3284745 291.099414 95.2976882"></polygon>
                        <polygon id="Rectangle" fill="#FFFFFF" fill-rule="nonzero" transform="translate(342.412891, 79.136653) rotate(-57.570000) translate(-342.412891, -79.136653) " points="303.510336 75.2798537 381.308807 75.3474611 381.315446 82.9934521 303.516975 82.9258447"></polygon>
                        <polygon id="Rectangle" fill="#FFFFFF" fill-rule="nonzero" transform="translate(356.210937, 87.884414) rotate(-57.570000) translate(-356.210937, -87.884414) " points="317.308382 84.0276145 395.106854 84.0952218 395.113493 91.7412129 317.315021 91.6736055"></polygon>
                        <polygon id="Rectangle" fill="#FFFFFF" fill-rule="nonzero" transform="translate(370.008202, 96.634856) rotate(-57.570000) translate(-370.008202, -96.634856) " points="331.105647 92.7780567 408.904119 92.8456641 408.910758 100.491655 331.112286 100.424048"></polygon>
                        <polygon id="Rectangle" fill="#FFFFFF" fill-rule="nonzero" transform="translate(384.771353, 107.731526) rotate(-57.264774) translate(-384.771353, -107.731526) " points="345.922923 103.879998 423.613121 103.947845 423.619783 111.583053 345.929585 111.515207"></polygon>
                        <polygon id="Rectangle" fill="#FFFFFF" fill-rule="nonzero" transform="translate(397.603514, 114.133059) rotate(-57.570000) translate(-397.603514, -114.133059) " points="358.700958 110.27626 436.49943 110.343867 436.506069 117.989858 358.707597 117.922251"></polygon>
                        <polygon id="Rectangle" fill="#FFFFFF" fill-rule="nonzero" transform="translate(412.398678, 125.406480) rotate(-57.264774) translate(-412.398678, -125.406480) " points="373.550248 121.554952 451.240446 121.622799 451.247109 129.258007 373.55691 129.190161"></polygon>
                        <polygon id="Rectangle" fill="#FFFFFF" fill-rule="nonzero" transform="translate(459.139369, 113.257940) rotate(-57.570000) translate(-459.139369, -113.257940) " points="449.059342 103.169699 469.201892 103.187203 469.219396 123.346182 449.076846 123.328678"></polygon>
                        <path d="M452.420664,307.865898 C446.035634,306.265826 436.184879,303.928059 431.170961,303.41375 C423.384463,302.613714 423.384463,292.623656 428.833494,293.82371 C431.788215,294.47309 434.398892,292.784702 436.17476,291.075535 C436.717932,290.543986 437.22665,289.976514 437.697656,289.376757 C438.346274,288.58 439.237478,288.030948 440.227382,287.818246 C443.146687,287.163671 449.22309,286.176614 452.962026,288.244239 C453.827617,288.792578 454.528167,289.57664 454.985807,290.509276 C456.665545,293.569153 457.515533,298.738216 457.975943,302.899441 C458.127125,304.396369 457.559309,305.875186 456.453908,306.863422 C455.348507,307.851658 453.84385,308.225645 452.420664,307.865898 Z" id="Path" fill="#B77983" fill-rule="nonzero"></path>
                        <path d="M355.411125,311.862929 C349.028317,310.262288 339.180988,307.923689 334.168815,307.409197 C326.385025,306.608877 326.385025,296.615264 331.832161,297.815744 C335.372546,298.605671 338.462796,295.955259 340.157123,294.042805 C340.364489,293.808945 340.551623,293.585478 340.713469,293.377603 C341.361862,292.580562 342.252755,292.031315 343.242316,291.818537 C346.160605,291.163729 352.234894,290.176321 355.972529,292.244682 C357.064991,292.852717 357.939972,294.18312 358.637933,295.882502 C359.897299,298.969453 360.590203,303.303657 360.974587,306.884312 C361.130399,308.385802 360.563096,309.870908 359.454898,310.86261 C358.3467,311.854312 356.837151,312.227733 355.411125,311.862929 Z" id="Path" fill="#B77983" fill-rule="nonzero"></path>
                        <path d="M358,295.799333 C348.943303,305.479766 341.178307,295.62035 340,293.99416 C340.202136,293.764038 340.384552,293.544145 340.542317,293.339593 C341.174359,292.555294 342.042788,292.014827 343.007395,291.805451 C345.852095,291.161112 351.773213,290.189489 355.416598,292.224783 C356.466721,292.797529 357.319638,294.106663 358,295.799333 Z" id="Path" fill="#000000" fill-rule="nonzero" opacity="0.1"></path>
                        <path d="M454,291.064916 C450.125908,293.544175 437.171913,292.933475 437.171913,292.933475 C436.746346,292.505254 436.354662,292.048286 436,291.566237 C436.519571,291.102856 437.00648,290.608082 437.457627,290.085062 C438.078446,289.38609 438.931455,288.904422 439.878935,288.717824 C442.673123,288.143584 448.489104,287.277666 452.067797,289.091536 C452.892507,289.569509 453.561106,290.252356 454,291.064916 L454,291.064916 Z" id="Path" fill="#000000" fill-rule="nonzero" opacity="0.1"></path>
                        <path d="M456,289.01781 C453.291758,292.49796 437.831165,291.728505 437.831165,291.728505 C437.831165,291.728505 433.193489,287.086628 431.259031,277.023361 C429.324572,266.960095 412.703304,234.849171 412.703304,234.849171 C408.839412,229.820052 405.744278,220.531269 405.744278,220.531269 L399.172144,178.357078 C399.172144,178.357078 367.472149,220.144027 367.859041,229.045567 C368.245932,237.947108 360.900015,273.145911 360.900015,273.145911 C358.191773,277.787787 358.191773,294.811355 358.191773,294.811355 C348.142639,305.256835 339.636046,292.875144 339.636046,292.875144 C337.701588,284.748088 340.796721,258.053525 340.796721,258.053525 C340.796721,258.053525 345.434397,235.613597 345.821289,221.682937 C346.20818,207.752278 350.845856,204.272128 350.845856,204.272128 C354.457038,189.916393 360.605151,176.32311 368.999618,164.13473 C371.336041,160.785337 372.878584,159 372.878584,159 L435.50479,166.352572 C434.499877,168.364219 433.600479,171.245904 432.811622,174.655647 C428.741723,192.16201 427.390114,223.619148 427.390114,223.619148 C441.695057,232.91296 445.945841,258.058554 445.945841,258.058554 C445.945841,264.636642 456,289.01781 456,289.01781 Z" id="Path" fill="#8499F0" fill-rule="nonzero"></path>
                        <g id="Group" opacity="0.05" transform="translate(348.000000, 159.000000)" fill="#000000" fill-rule="nonzero">
                            <path d="M48.0102304,24.4673835 L47.2065438,19.3240143 C47.2065438,19.3240143 15.5161751,61.0179211 15.9029493,69.8996416 C16.2897235,78.781362 8.95105991,113.90681 8.95105991,113.90681 C6.24364055,118.538351 6.24364055,135.524014 6.24364055,135.524014 C4.13898618,137.70681 2.09963134,138.891039 0.215990783,139.397849 C3.25995392,140.195699 6.96193548,139.61362 10.905023,135.524014 C10.905023,135.524014 10.905023,118.538351 13.6124424,113.90681 C13.6124424,113.90681 20.956129,78.781362 20.5693548,69.8946237 C20.2428571,62.9498208 39.5916129,35.8982079 48.0102304,24.4673835 Z" id="Path"></path>
                            <path d="M98.6073272,98.8530466 C98.6073272,98.8530466 94.3578341,73.7634409 80.057235,64.4953405 C80.057235,64.4953405 81.4084332,33.1132616 85.4770968,15.6408602 C86.2707373,12.2387097 87.1598157,9.36845878 88.169447,7.3562724 L25.5672811,0 C25.5672811,0 25.4216129,0.170609319 25.1553917,0.501792115 L83.5382028,7.34121864 C82.5335945,9.3483871 81.63447,12.2236559 80.8458525,15.6258065 C76.7771889,33.09319 75.4259908,64.4802867 75.4259908,64.4802867 C89.7215668,73.7634409 93.9710599,98.8530466 93.9710599,98.8530466 C93.9710599,105.416487 104.017143,129.738351 104.017143,129.738351 C102.424839,131.785663 96.3971889,132.357706 91.7157143,132.483154 C95.4277419,132.578495 106.413134,132.61362 108.653412,129.738351 C108.658433,129.743369 98.6073272,105.416487 98.6073272,98.8530466 Z" id="Path"></path>
                        </g>
                        <path d="M361,154.529435 C360.536128,155.66512 359.924183,156.734353 359.180103,157.70929 C356.871577,160.819258 352.075027,164.937594 343.289663,163.809419 C341.9757,163.639047 340.847176,162.79138 340.316277,161.576022 C339.785379,160.360664 339.929854,158.955601 340.696933,157.874023 C342.950614,154.729112 346.680155,150.840404 352.264496,148.998385 C353.850677,148.470159 355.494584,148.134954 357.160766,148 L361,154.529435 Z" id="Path" fill="#F7BBC3" fill-rule="nonzero"></path>
                        <path d="M443,47.2831195 L412.182872,36 C412.182872,36 403.342302,40.614231 406.80361,47.1531411 L436.771644,66 L443,47.2831195 Z" id="Path" fill="#D39999" fill-rule="nonzero"></path>
                        <path d="M443,47.2831195 L412.182872,36 C412.182872,36 403.342302,40.614231 406.80361,47.1531411 L436.771644,66 L443,47.2831195 Z" id="Path" fill="#000000" fill-rule="nonzero" opacity="0.1"></path>
                        <path d="M443.827912,27.7678585 C443.827912,27.7678585 443.436374,46.0519684 451.653594,52.2764538 C459.870813,58.5009392 427.790097,62 427.790097,62 C427.790097,62 432.87501,43.3265438 427.790097,33.6029976 C422.705184,23.8794513 443.827912,27.7678585 443.827912,27.7678585 Z" id="Path" fill="#F7BBC3" fill-rule="nonzero"></path>
                        <path d="M436,167.954512 C434.98761,169.857251 434.08152,172.582925 433.286794,175.808068 C395.620807,181.211847 369.404956,166.489403 369.404956,166.489403 C369.263222,166.275344 369.126549,166.066043 369,165.856742 C371.353808,162.688681 372.907827,161 372.907827,161 L436,167.954512 Z" id="Path" fill="#000000" fill-rule="nonzero" opacity="0.1"></path>
                        <path d="M360,154.726619 C359.575184,155.895707 359.014764,156.996388 358.333333,158 C355.082192,157.393628 352.479452,150.394656 352,149.027749 C353.452629,148.483987 354.958124,148.138924 356.484018,148 L360,154.726619 Z" id="Path" fill="#000000" fill-rule="nonzero" opacity="0.1"></path>
                        <path d="M446.096757,44 L432.246496,48.9965714 L426.476387,56.6862948 C426.476387,56.6862948 414.551162,60.5286583 413.011133,60.5286583 C411.471104,60.5286583 407.241024,62.0676023 404.545973,68.2183817 C401.850922,74.3691611 392.240741,104.343593 383.775581,109.340165 C375.310421,114.336736 353,147.813765 353,147.813765 C353,147.813765 356.845073,158.191643 361.46516,156.657696 L372.235363,147.813765 C372.235363,147.813765 363.770203,156.27296 368.775298,163.957687 C368.775298,163.957687 400.320893,182.794761 443.776713,171.262674 L444.161721,159.730587 L446.086757,168.954258 L467.662164,155.483502 C467.662164,155.483502 465.732128,130.670528 462.257062,118.039195 C460.821477,112.728868 461.354186,107.079028 463.75709,102.130112 C469.342196,90.4980937 477.962358,71.071424 476.912339,63.9862857 C475.672315,55.6370148 470.952226,51.9945143 469.152192,50.9152549 C468.739955,50.6657626 468.276862,50.5120761 467.797167,50.4655634 L460.757034,49.7610469 L446.096757,44 Z" id="Path" fill="#D39999" fill-rule="nonzero"></path>
                        <path d="M422,83 C422,83 414.318602,118.328202 405.873557,124.02614 C397.428512,129.724078 374.768639,147.958466 374,151" id="Path" fill="#000000" fill-rule="nonzero" opacity="0.05"></path>
                        <path d="M420,82 C420,82 412.318602,117.320508 403.873557,123.017205 C395.428512,128.713902 372.768639,146.944319 372,150" id="Path" fill="#D39999" fill-rule="nonzero"></path>
                        <path d="M426,57 C426,57 453.138163,48.0536541 461,50.388802" id="Path" fill="#000000" fill-rule="nonzero" opacity="0.1"></path>
                        <g id="Group" opacity="0.05" transform="translate(445.000000, 44.000000)" fill="#000000" fill-rule="nonzero">
                            <path d="M19.338,58.5222311 C25.0089231,46.8358566 33.7615385,27.3184064 32.6953846,20.2001594 C31.4363077,11.8118725 26.6436923,8.1523506 24.816,7.06804781 C24.3974286,6.81738972 23.9272195,6.66298503 23.4401538,6.61625498 L20.394,6.31505976 C20.7123791,6.39089557 21.0171401,6.51447851 21.2976923,6.68151394 C23.1253846,7.78589641 27.8976923,11.4253386 29.1770769,19.8136255 C30.2432308,26.9268526 21.4906154,46.4493227 15.8196923,58.1356972 C13.3798665,63.1077391 12.8389716,68.7839809 14.2966154,74.1191235 C17.8504615,86.8094821 19.7847692,111.738406 19.7847692,111.738406 L0.949384615,123.379602 L1.42661538,125.643586 L23.3436923,112.11992 C23.3436923,112.11992 21.384,87.190996 17.8555385,74.5006375 C16.3865588,69.1718553 16.9129924,63.4977999 19.338,58.5222311 L19.338,58.5222311 Z" id="Path"></path>
                            <polygon id="Path" points="12.7735385 5.52693227 16.1598462 5.85824701 1.44692308 0.115458167 0.126923077 0.587330677"></polygon>
                        </g>
                        <path d="M420,118 C420,118 431.977843,111.927577 435.839882,113.357474 C439.70192,114.787372 454,113 454,113" id="Path" fill="#000000" fill-rule="nonzero" opacity="0.05"></path>
                        <path d="M441.699555,33.3009769 C441.274131,29.1860387 443,29.8104846 443,29.8104846 C443,29.8104846 422.913208,25.7062207 427.752408,35.9695489 C428.961,38.5420524 429.565296,41.7016418 429.792511,45 L429.981051,45 C435.598585,45.005334 438.852114,38.1150809 441.699555,33.3009769 Z" id="Path" fill="#000000" fill-rule="nonzero" opacity="0.05"></path>
                        <circle id="Oval" fill="#F7BBC3" fill-rule="nonzero" cx="429.5" cy="25.5" r="16.5"></circle>
                        <path d="M448.55278,30.4024419 C450.06011,27.1119631 451.165486,23.5414435 450.979582,19.9009137 C450.793678,16.2603839 449.170786,12.6148534 446.156125,10.5945594 C444.59855,9.54940733 442.759607,8.98932582 441.13169,8.03918755 C439.870557,7.29407912 438.755133,6.32893867 437.554293,5.48881641 C431.557471,1.43158828 423.839495,0.872825295 417.315871,4.02360319 C414.26604,5.52382151 411.663382,7.81915553 408.774333,9.63942042 C405.885283,11.4596853 402.503838,12.8648898 399.132443,12.3248112 C398.554633,13.9250441 399.976548,15.505274 401.287925,16.6004334 C403.77502,18.6757354 406.593728,20.7460367 409.829464,20.8160469 C411.085573,20.8460513 412.406999,20.576012 413.547545,21.1010884 C414.31594,21.5219327 414.968261,22.1248006 415.446782,22.8563438 C417.00861,24.9204527 418.331689,27.1532043 419.390963,29.5123124 C419.823064,30.4774528 420.265214,31.5126035 421.159564,32.0976886 C422.666894,33.0478269 424.591252,32.2577119 426.359853,32.1877017 C429.113243,32.0826864 431.585265,33.8029368 433.625185,35.653206 C435.665106,37.5034753 437.599513,39.6037809 440.15695,40.5789228 C442.076284,41.3040284 445.914952,41.2790247 446.894717,38.9936922 C447.261501,38.133567 446.55808,36.2882985 446.703788,35.2331449 C446.975108,33.5679026 447.849359,31.9376653 448.55278,30.4024419 Z" id="Path" fill="#000000" fill-rule="nonzero" opacity="0.1"></path>
                        <path d="M448.55278,30.4024419 C450.06011,27.1119631 451.165486,23.5414435 450.979582,19.9009137 C450.793678,16.2603839 449.170786,12.6148534 446.156125,10.5945594 C444.59855,9.54940733 442.759607,8.98932582 441.13169,8.03918755 C439.870557,7.29407912 438.755133,6.32893867 437.554293,5.48881641 C431.557471,1.43158828 423.839495,0.872825295 417.315871,4.02360319 C414.26604,5.52382151 411.663382,7.81915553 408.774333,9.63942042 C405.885283,11.4596853 402.503838,12.8648898 399.132443,12.3248112 C398.554633,13.9250441 399.976548,15.505274 401.287925,16.6004334 C403.77502,18.6757354 406.593728,20.7460367 409.829464,20.8160469 C411.085573,20.8460513 412.406999,20.576012 413.547545,21.1010884 C414.31594,21.5219327 414.968261,22.1248006 415.446782,22.8563438 C417.00861,24.9204527 418.331689,27.1532043 419.390963,29.5123124 C419.823064,30.4774528 420.265214,31.5126035 421.159564,32.0976886 C422.666894,33.0478269 424.591252,32.2577119 426.359853,32.1877017 C429.113243,32.0826864 431.585265,33.8029368 433.625185,35.653206 C435.665106,37.5034753 437.599513,39.6037809 440.15695,40.5789228 C442.076284,41.3040284 445.914952,41.2790247 446.894717,38.9936922 C447.261501,38.133567 446.55808,36.2882985 446.703788,35.2331449 C446.975108,33.5729033 447.849359,31.9376653 448.55278,30.4024419 Z" id="Path" fill="#9B6C7A" fill-rule="nonzero"></path>
                        <polygon id="Path" fill="#FE4D85" fill-rule="nonzero" points="339 289 76 289 76 126 109.634335 126 123.471945 142.959538 339 142.959538"></polygon>
                        <path d="M91,305.87731 C91,305.87731 79.7899348,303.663145 76.7999218,300.707653 C73.8099089,297.752161 60.3598174,292.582504 58.8648109,296.289143 C57.3698044,299.995782 38.6896736,312.539441 51.4146125,314.758515 C64.1395513,316.977589 81.3048085,317.704189 85.0448081,316.231352 C88.7848077,314.758515 91,305.87731 91,305.87731 Z" id="Path" fill="#A8A8A8" fill-rule="nonzero"></path>
                        <path d="M51.3847383,313.127905 C64.0930201,315.503592 81.2824866,316.288465 85.0234312,314.708185 C87.870126,313.501905 89.8474115,307.702278 90.627396,305 L91,305.084282 C91,305.084282 88.7594077,314.597565 85.0383353,316.177845 C81.317263,317.758125 64.1079243,316.967985 51.3996424,314.597565 C47.7332187,313.912777 46.6849593,312.300892 47.0774355,310.257064 C47.3755188,311.595034 48.6523086,312.616948 51.3847383,313.127905 Z" id="Path" fill="#000000" fill-rule="nonzero" opacity="0.2"></path>
                        <path d="M325,325.319271 C325,325.319271 307.685061,321.791236 303.063386,317.090604 C298.44171,312.389972 277.666801,304.161305 275.358478,310.039656 C273.050155,315.918006 244.178513,335.898253 263.791717,339.426288 C283.404921,342.954322 309.968239,344.12692 315.741562,341.776604 C321.514885,339.426288 325,325.319271 325,325.319271 Z" id="Path" fill="#A8A8A8" fill-rule="nonzero"></path>
                        <path d="M263.806281,337.498742 C283.421264,340.867208 309.986993,341.986771 315.76084,339.742756 C320.156608,338.031634 323.214534,329.818247 324.421609,326 L325,326.117334 C325,326.117334 321.534686,339.566755 315.750781,341.825437 C309.966875,344.084118 283.421264,342.949889 263.796222,339.581422 C258.127994,338.603638 256.508501,336.325401 257.122098,333.440938 C257.614987,335.323172 259.586544,336.775182 263.806281,337.498742 Z" id="Path" fill="#000000" fill-rule="nonzero" opacity="0.2"></path>
                        <rect id="Rectangle" fill="#000000" fill-rule="nonzero" opacity="0.1" x="176" y="202" width="58" height="10"></rect>
                    </g>
                </g>
            </g>
        </g>
    </g>
</svg>