<?xml version="1.0" encoding="UTF-8"?>
<svg width="529px" height="429px" viewBox="0 0 529 429" version="1.1" xmlns="http://www.w3.org/2000/svg" xmlns:xlink="http://www.w3.org/1999/xlink">
    <title>9E84205A-C7E4-48E8-97F5-24A21EA15094</title>
    <g id="Page-1" stroke="none" stroke-width="1" fill="none" fill-rule="evenodd" opacity="0.0233618824">
        <g id="Landing---VD" transform="translate(-772.000000, -2867.000000)" fill="#A5CEFF" fill-rule="nonzero">
            <g id="features_17" transform="translate(0.000000, 2818.000000)">
                <g id="bg_image" transform="translate(-0.000694, 0.332828)">
                    <path d="M794.467172,399.471609 C785.223149,381.61539 807.673371,365.079391 812.958379,349.206669 C818.240227,332.672253 814.278051,316.797948 802.393104,304.232109 C789.186905,289.019496 771.357905,279.098847 772.018531,256.610775 C772.677577,238.752973 782.583806,225.525441 799.752181,218.249981 C818.243388,210.314411 836.069227,205.684142 843.332953,184.519457 C849.275426,167.985041 853.237602,150.127239 860.501327,133.59124 C875.689404,101.184102 905.403351,78.6960303 941.721978,80.68111 C959.550979,81.3412202 976.719353,87.2948763 994.548354,87.9549865 C1013.69703,88.6166797 1035.48188,85.3097966 1053.97309,79.3577235 C1085.00829,69.4370741 1116.04349,52.2409652 1149.06056,48.9340821 C1166.22894,46.9490024 1186.69886,56.2158736 1195.94288,70.7588776 C1206.50816,86.633183 1206.50816,105.812789 1215.75218,121.687094 C1233.58118,154.755925 1271.88169,173.275421 1268.58014,215.604791 C1267.25889,230.817403 1261.97704,244.706629 1266.59826,260.579352 C1271.22106,278.437154 1285.74851,292.988073 1293.67128,309.522488 C1301.59564,327.380291 1302.25626,344.576399 1295.65316,363.095895 C1292.35161,372.354851 1287.72881,380.292004 1285.08789,389.55096 C1283.10601,399.471609 1285.08789,408.732148 1283.76664,417.991105 C1278.48479,457.013592 1242.83311,479.501664 1205.85069,477.511835 C1168.86828,475.522006 1131.23472,476.190032 1094.25547,472.883148 C1065.20057,469.574682 1036.80787,468.914572 1007.75297,467.591186 C986.622422,466.929492 964.831246,466.267799 944.361321,462.960916 C935.777924,461.639113 926.532321,458.99234 917.948924,460.315726 C902.760847,462.300806 888.894022,464.945996 873.0469,464.945996 C853.896647,464.945996 819.559898,468.252879 805.032447,453.040267 C794.467172,440.474427 801.070272,435.182465 807.014325,423.279901 C816.258349,402.776909 794.467172,410.050786 792.486875,394.839757 L794.467172,399.471609 Z" id="Path"></path>
                </g>
            </g>
        </g>
    </g>
</svg>