<svg xmlns="http://www.w3.org/2000/svg" xmlns:xlink="http://www.w3.org/1999/xlink" viewBox="0 0 887.52 1082.05"><defs><style>.cls-1{fill:#ffccbc;}.cls-2{fill:#e8eff5;}.cls-3{fill:#f9c6b9;}.cls-4{fill:#1d2856;}.cls-5{font-size:25px;}.cls-5,.cls-7{fill:#b8b9e0;}.cls-35,.cls-5{font-family:Calibri, Calibri;}.cls-6{fill:#dfe8ef;}.cls-8{fill:#b2b5db;}.cls-9{fill:url(#Gradiente_sem_nome_8);}.cls-10{fill:url(#Gradiente_sem_nome_8-2);}.cls-11{fill:url(#Gradiente_sem_nome_8-3);}.cls-12{fill:url(#Gradiente_sem_nome_8-4);}.cls-13{fill:url(#Gradiente_sem_nome_8-5);}.cls-14{fill:url(#Gradiente_sem_nome_8-6);}.cls-15{fill:#ffce99;}.cls-16{fill:url(#Gradiente_sem_nome_8-7);}.cls-17{fill:url(#Gradiente_sem_nome_8-8);}.cls-18{fill:url(#Gradiente_sem_nome_8-9);}.cls-19{fill:url(#Gradiente_sem_nome_8-10);}.cls-20{fill:url(#Gradiente_sem_nome_8-11);}.cls-21{fill:url(#Gradiente_sem_nome_8-12);}.cls-22{fill:url(#Gradiente_sem_nome_8-13);}.cls-23{fill:url(#Gradiente_sem_nome_8-14);}.cls-24{fill:url(#Gradiente_sem_nome_8-15);}.cls-25{fill:url(#Gradiente_sem_nome_8-16);}.cls-26{fill:url(#Gradiente_sem_nome_8-17);}.cls-27{fill:url(#Gradiente_sem_nome_8-18);}.cls-28{fill:url(#Gradiente_sem_nome_8-19);}.cls-29{fill:#fff;}.cls-30,.cls-35{fill:#ffb300;}.cls-31{fill:#ffca28;}.cls-32{fill:#c6dbe5;}.cls-33{fill:#e7f7ff;}.cls-34{fill:#dcf3ff;}.cls-35{font-size:55px;}</style><linearGradient id="Gradiente_sem_nome_8" x1="102.09" y1="454.03" x2="127.73" y2="454.03" gradientTransform="translate(13.71 489.98) rotate(2.96)" gradientUnits="userSpaceOnUse"><stop offset="0" stop-color="#3c55b3"/><stop offset="1" stop-color="#2d1982"/></linearGradient><linearGradient id="Gradiente_sem_nome_8-2" x1="28.46" y1="451.97" x2="127.73" y2="451.97" xlink:href="#Gradiente_sem_nome_8"/><linearGradient id="Gradiente_sem_nome_8-3" x1="28.46" y1="437.25" x2="127.39" y2="437.25" xlink:href="#Gradiente_sem_nome_8"/><linearGradient id="Gradiente_sem_nome_8-4" x1="240.71" y1="454.3" x2="266.03" y2="454.3" xlink:href="#Gradiente_sem_nome_8"/><linearGradient id="Gradiente_sem_nome_8-5" x1="240.59" y1="450.75" x2="339.63" y2="450.75" xlink:href="#Gradiente_sem_nome_8"/><linearGradient id="Gradiente_sem_nome_8-6" x1="240.62" y1="436.09" x2="339.51" y2="436.09" xlink:href="#Gradiente_sem_nome_8"/><linearGradient id="Gradiente_sem_nome_8-7" x1="-18157.46" y1="341.55" x2="-18131.16" y2="341.55" gradientTransform="matrix(-1, -0.07, -0.07, 1, -17498.54, -586.87)" xlink:href="#Gradiente_sem_nome_8"/><linearGradient id="Gradiente_sem_nome_8-8" x1="-18157.46" y1="339.79" x2="-18055.93" y2="339.79" gradientTransform="matrix(-1, -0.07, -0.07, 1, -17498.54, -586.87)" xlink:href="#Gradiente_sem_nome_8"/><linearGradient id="Gradiente_sem_nome_8-9" x1="-18156.96" y1="325.06" x2="-18055.9" y2="325.06" gradientTransform="matrix(-1, -0.07, -0.07, 1, -17498.54, -586.87)" xlink:href="#Gradiente_sem_nome_8"/><linearGradient id="Gradiente_sem_nome_8-10" x1="-18316.51" y1="336.86" x2="-18287.86" y2="336.86" gradientTransform="matrix(-1, -0.07, -0.07, 1, -17498.54, -586.87)" xlink:href="#Gradiente_sem_nome_8"/><linearGradient id="Gradiente_sem_nome_8-11" x1="-18365.51" y1="334.31" x2="-18287.29" y2="334.31" gradientTransform="matrix(-1, -0.07, -0.07, 1, -17498.54, -586.87)" xlink:href="#Gradiente_sem_nome_8"/><linearGradient id="Gradiente_sem_nome_8-12" x1="-18365.05" y1="319.08" x2="-18287.37" y2="319.08" gradientTransform="matrix(-1, -0.07, -0.07, 1, -17498.54, -586.87)" xlink:href="#Gradiente_sem_nome_8"/><linearGradient id="Gradiente_sem_nome_8-13" x1="620.04" y1="1025.5" x2="668.16" y2="1025.5" gradientTransform="matrix(1, 0, 0, 1, 0, 0)" xlink:href="#Gradiente_sem_nome_8"/><linearGradient id="Gradiente_sem_nome_8-14" x1="852.84" y1="1022.93" x2="887.52" y2="1022.93" gradientTransform="matrix(1, 0, 0, 1, 0, 0)" xlink:href="#Gradiente_sem_nome_8"/><linearGradient id="Gradiente_sem_nome_8-15" x1="366.75" y1="1071.02" x2="447.74" y2="1071.02" gradientTransform="matrix(1, 0, 0, 1, 0, 0)" xlink:href="#Gradiente_sem_nome_8"/><linearGradient id="Gradiente_sem_nome_8-16" x1="0" y1="976.16" x2="56.25" y2="976.16" gradientTransform="matrix(1, 0, 0, 1, 0, 0)" xlink:href="#Gradiente_sem_nome_8"/><linearGradient id="Gradiente_sem_nome_8-17" x1="318.41" y1="1046.58" x2="387.32" y2="1046.58" gradientTransform="matrix(1, 0, 0, 1, 0, 0)" xlink:href="#Gradiente_sem_nome_8"/><linearGradient id="Gradiente_sem_nome_8-18" x1="-18984.3" y1="1046.58" x2="-18915.39" y2="1046.58" gradientTransform="matrix(-1, 0, 0, 1, -18448.49, 0)" xlink:href="#Gradiente_sem_nome_8"/><linearGradient id="Gradiente_sem_nome_8-19" x1="317.86" y1="1052.77" x2="388.36" y2="1052.77" gradientTransform="matrix(1, 0, 0, 1, 0, 0)" xlink:href="#Gradiente_sem_nome_8"/></defs><title>Why</title><g id="Layer_2" data-name="Layer 2"><g id="Layer_1-2" data-name="Layer 1"><path class="cls-1" d="M297,184.44l0,.15-4.74,21.31a4.66,4.66,0,0,1-2.37,2.81,4.73,4.73,0,0,1-3.64.32h-.09c-2.54-.79-4.4-.14-3.61-2.68,2.58-6.7,4.61-17.2,5.24-24.8a4.31,4.31,0,0,1,.19-.49,4.77,4.77,0,0,1,5.81-2.64h.09A4.8,4.8,0,0,1,297,184.44Z"/><path class="cls-1" d="M286.42,172.63l.12.1,9,6.7a4.66,4.66,0,0,1,1.65,3.28,4.73,4.73,0,0,1-1.14,3.47l0,.08a4.79,4.79,0,0,1-6.77.52l-9.1-6.8a4.21,4.21,0,0,1-.38-.37,4.77,4.77,0,0,1-.12-6.38l0-.08A4.79,4.79,0,0,1,286.42,172.63Z"/><path class="cls-1" d="M286.13,179.45l-.1.11-6.68,8.13a4.37,4.37,0,0,1-3.15,1.4,4.44,4.44,0,0,1-3.2-1.22l-.07,0a4.5,4.5,0,0,1-.19-6.37l6.78-8.24a4.09,4.09,0,0,1,.36-.34,4.47,4.47,0,0,1,6,.16l.07,0A4.5,4.5,0,0,1,286.13,179.45Z"/><path class="cls-1" d="M312.9,157.35a4.79,4.79,0,0,1,2.81,6.17L302,200a4.79,4.79,0,0,1-6.17,2.81l-.09,0a4.79,4.79,0,0,1-2.81-6.17l13.69-36.49a4.79,4.79,0,0,1,6.17-2.81Z"/><path class="cls-1" d="M304.54,206.11l-.09,0a4.79,4.79,0,0,1-2.58-6.27l13.57-32.6a4.79,4.79,0,0,1,6.27-2.58l.09,0a4.8,4.8,0,0,1,2.58,6.27l-13.57,32.6A4.8,4.8,0,0,1,304.54,206.11Z"/><path class="cls-1" d="M312.53,209l-.08,0a4.26,4.26,0,0,1-1.81-5.74l11.82-22.67a4.26,4.26,0,0,1,5.74-1.81l.08,0a4.26,4.26,0,0,1,1.81,5.74l-11.82,22.68A4.26,4.26,0,0,1,312.53,209Z"/><path class="cls-1" d="M307.11,232.45l-4.78,19.91-23.27-4.62,5-17.15c-4.53-2.23-2.66-26-2.66-26,3.3-4,4.55-9.15,5.09-14.2a71.43,71.43,0,0,1,34.27,12.09s-2,9.42-2.74,12.52C315.15,226.27,310.79,230.2,307.11,232.45Z"/><path class="cls-1" d="M269.71,185.59h.1c2.78-.28,4.4,1.82,5,4.56a73.13,73.13,0,0,1,1.4,11.89c.14-.09,21.17,5.62,21.07,18.71a.25.25,0,0,1,0,0l-3.4,30.64-16.1-4,4.48-18.18c-4.94-1.41-8.77-6.7-11.41-12a18.42,18.42,0,0,1-3.09-7c-.51-4-.75-9.41-2.27-17.62C264.4,186.88,266.93,185.87,269.71,185.59Z"/><path class="cls-2" d="M242.42,388.29c-.19.16-.42.33-.61.47s-.08.11-.15.12c-11.64,9.51-15.37,22.08-14.6,37.19.64,12.32,2.37,26.25,3.87,41.1,2.46,24.1,4.36,50.63.33,76.74-38.56,22.16-85.43,19.91-136.13,6.39C86,526,80.73,476.06,79.93,438.55c-.31-15.08-4.12-32.93-16.6-41.31-.09,0-.11-.08-.2-.1a2.65,2.65,0,0,1-.32-.2,3,3,0,0,0-.29-.2c1.2-2.76,2.42-5.59,3.64-8.46.18-.4.35-.8.53-1.23,5.86-13.74,11.69-8.65,17.6-22.09,8.46,4.08,17.17-14.22,26.44-15.33h0a79.68,79.68,0,0,0,14.47-3.1c.28-.08.6-.18.86-.28h0a5.83,5.83,0,0,0,.58-.18,91.59,91.59,0,0,0,23.77,4.36,92,92,0,0,0,23.32-6.57c.4.11.77.16,1.17.27h0a.16.16,0,0,1,.11,0A83.19,83.19,0,0,0,190.05,346h0c9.28.15,17.83-1.71,25.85-6.56,7.1,12.82,14.29,26.52,21.39,39.64,1.31,2.36,2.58,4.72,3.82,7C241.61,386.82,242,387.55,242.42,388.29Z"/><path class="cls-3" d="M175.1,344.15l0-1.49,0-.31c0-.46,0-1,0-1.42l-.11-8.24s0,0,0,0l0-1.46-.07-5.29-50.84.93.44,6.34.08,1.38v0l.53,8.18v0s0,.08,0,.12l.2,3.57L127,372.94l15.63-1.07h0l8.41-.56h.08l.66-.08,7.76-.52,16.05-1Z"/><path class="cls-1" d="M144.83,237.49c22.31-1.14,40.79,12.71,40.38,39.23a69,69,0,0,1-.71,9.14c4.83-3,9.42,1.66,8,9.26-1,5.36-3.23,12.6-6.12,13.81-3.46,1.45-4.64-.7-4.84-.75-1.21,7.72-1.53,14.57-4.06,18.75a129.39,129.39,0,0,1-7.5,11.5c-5,6.41-9.24,8.14-19.26,8.67h-.11c-10,.53-14.46-.73-20.07-6.58a129.37,129.37,0,0,1-8.68-10.64c-3-3.89-4-10.67-6-18.22-.2.08-1.14,2.34-4.74,1.26-3-.89-6-7.86-7.55-13.08-2.19-7.41,1.86-12.58,7-10.07a69,69,0,0,1-1.68-9C105.62,254.46,122.52,238.73,144.83,237.49Z"/><path class="cls-4" d="M177.33,243.65c9,9.59,12.26,20.57,9.88,41.28-3.27,2-4.92,4.63-5.72,14.9-2.4.8-3.45,1-5.63,1.87,10.77-55.08-10.36-55-16.21-55.9-4.75-.7-24,.33-28.67,1.53-5.72,1.47-26.74,3.68-10.17,57.3-2.26-.63-3.32-.72-5.8-1.26-1.89-10.13-3.81-12.52-7.27-14.21-4.57-20.34-1.41-30.84,5.43-42.1C122.66,231.44,161.17,226.52,177.33,243.65Z"/><path class="cls-4" d="M131.53,238.21a16.54,16.54,0,0,0-7.71,2.82c-3.35,2-11.54,15.19-9.56,18.1,8,11.8,31.21,14.19,47.49,13.89-1.85-1.29-5-3.89-5.76-6.45a43.27,43.27,0,0,0,28.26.94c-3.28-7.82-6.77-15.93-13.22-21.43-5.24-4.46-12-6.79-18.86-7.71S138.4,237.82,131.53,238.21Z"/><text class="cls-5" transform="matrix(1, 0.02, -0.02, 1, 120.81, 409.76)">ꜩ</text><path class="cls-6" d="M114,375.7a255.36,255.36,0,0,0-41.88,16.5c-.36.18-.73.33-1,.51-2.91,1.43-5.78,2.91-8.57,4.39,0,.08.07.12.11.2,7,11.8,15.24,22,24.07,32.5,1,1.23,2.08,2.5,3.19,3.69,0,0,0,.08.07.12a77.44,77.44,0,0,0,16.78,14.87,74.11,74.11,0,0,0,13.19,6.17c2.38.92,4.81,1.73,7.19,2.53,17.45,5.7,34.61,8.62,52.58,12.4,3.46.77,8.25,1.94,12.8,2l1.39-4.23.23-.7,1.8-5.56,4.67-14.32h0l.41-1.33.72-2.19c-8.77-5.8-20.4-9.34-30.8-14.18-9.77-4.57-18-8.5-27.15-14.24C128,404.92,122.13,392.57,114,375.7Z"/><path class="cls-6" d="M304.76,253c.33,4.54-.43,9.41-.86,12.92-2.24,18.22-3.68,35.57-7.92,53.44-.56,2.44-1.2,4.93-1.87,7.38A71.59,71.59,0,0,1,289,340.44c-4.14,8.16-10.35,15.11-16.86,21.56-6.25,6.2-12.35,12.19-18.9,17.77-3.47,3-7.06,5.84-10.86,8.52a6.17,6.17,0,0,1-.61.46s-.07.12-.15.13c-.47-.73-.94-1.5-1.41-2.23-1.45-2.27-2.91-4.58-4.33-6.93a255.17,255.17,0,0,1-20-40.32c16.12-9.52,27.93-16.41,36.46-33,4.94-9.59,8.15-18.14,11.83-28.26,4-10.77,6.51-22.66,11.54-31.89l2.12.49,1.36.33L294,250.47l5.77,1.35v0l.48.1.24,0,1.92.46Z"/><path class="cls-6" d="M127.72,387.48c-9.41-12-15.32-24.81-17.08-38.46L125,342.81c3.27,12.48,12.7,21.56,26.47,28.25Z"/><path class="cls-6" d="M176.62,385.18c8.87-13.38,14.46-26.7,13.41-39.89l-15-4.37c.57,12.93-7.9,22.77-23.6,30.14Z"/><path class="cls-6" d="M175.51,555.65c-21.54,4.76-50.07.82-80.38-5.36C86,526,80.73,476.06,79.93,438.55c-.31-15.08.5-33-12-41.39-.09,0-1.19,0-1.28,0s2.44.07,2.32,0c8.51-1.86,1.91-5.66-2.83-8.87-.42-.28,1,.26,1.48.37a116.06,116.06,0,0,0,15.09,3c.65,6.84,1.27,13.66,1.92,20.49,1.81,19.46,3.79,39.38,12.21,57,8.12,16.9,23.6,31.56,42.06,33.77q-20.41-1.89-40.85-3.74C116.17,533.68,151.49,548.77,175.51,555.65Z"/><path class="cls-6" d="M253.27,379.77c-3.47,3-7.06,5.84-10.86,8.52a6.17,6.17,0,0,1-.61.46s-.07.12-.15.13c-11.64,9.5-15.37,22.08-14.58,37.19,1.71,32.3,10.72,75.65,4.18,117.85l-26.46,6.3c9.19-7.68,16.29-46.54,19.8-57.84,3.13-10.09,1.83-20.89.55-31.38q-3.12-24.64-6.2-49.37l-13.88,4a146.6,146.6,0,0,1,35.18-29c.31-.21.62-.39.92-.56A129.93,129.93,0,0,1,253.27,379.77Z"/><path class="cls-7" d="M264.33,743.84h0c-9.78,4.41-20.31,8.6-30.61,12.89-2.36,1-4.7,2-7,3-4.7,2-9.32,4-13.72,6.13-.26-.86-.63-2.33-1.15-4.34-2.59-10.16-32-93.82-42.45-130.93-.92-3.21-1.68-6.08-2.26-8.51-.16-.66-.31-1.33-.49-2-.5-2.16-1-4.35-1.57-6.56v0c-.15-.64-.31-1.3-.46-2a17.83,17.83,0,0,1,.53-9.44c2.91-9.95,11.87-20.23,13.45-29.89a15.3,15.3,0,0,0-.2-6.27l43.47-2c3.8,10,8.55,22.94,13.4,36.3C247.05,632.94,263,740.4,264.33,743.84Z"/><path class="cls-7" d="M235.57,608.93c-15.25,8.47-31.17,15.81-49.23,19.43a117.46,117.46,0,0,1-17,2.22c-2.3.15-4.68.22-7.05.21-.34,0-.65,0-1,0a130.07,130.07,0,0,1-15.33-1c-14.87-1.88-31.25-6.36-49.59-14.31L95.78,603,93.91,563l-.62-12.47-.07-1.65c.49.06,1,.17,1.48.23,28.38,4.76,53.05,5.88,74.32,4.6h.11a230.08,230.08,0,0,0,37.4-5.34,175.85,175.85,0,0,0,25.21-7.85c.19-.07.39-.17.62-.24l.13,2.72.56,12.12,2.08,45,0,0Z"/><path class="cls-7" d="M164.79,612.66c-.31,2.2-.74,4.71-1.22,7.4-.63,3.3-1.39,6.86-2.28,10.71-9.23,40.9-31,110.51-33.16,124.67.52,17.4,10.7,139.61.73,182.15-1.06,1.21-5.32.8-11.26-.66-2.15-.53-4.57-1.19-7.09-2C97.4,931,60.61,917.52,61,915.63c14.07-72.26,8.6-163.2,8.6-163.2C83.41,673.6,89.12,635,95.78,603c2.4-11.55,4.94-22.25,8-33.61l33.42-1.57h0l10.05-.48a4.11,4.11,0,0,0-.07.68,14.31,14.31,0,0,0,.63,5.51,29.28,29.28,0,0,0,3.32,6.79c4.53,7.2,11.58,14.38,13.88,21.73C165.66,604,165.51,607.64,164.79,612.66Z"/><path class="cls-7" d="M290,921.8c-2.8,1.75-6,3.63-9.73,5.5a102.9,102.9,0,0,1-29.4,9.58A127.45,127.45,0,0,1,233,938.53c-3.4.09-6.93.05-10.64-.12,0-.25-.05-.64-.08-1.14-.19-4.51.23-17.84,0-20.24-3.49-47.37-6.83-94.7-9.75-142.05-.28-4.48-.57-9-.83-13.47-.14-2.35-.32-4.7-.46-7.06,4.25-.94,8.48-1.86,12.74-2.73,1.92-.39,3.81-.77,5.73-1.14,11.44-2.28,23-4.41,34.5-6.74h0c.34,2.54.66,5.09,1,7.63.87,5.77,1.66,11.55,2.48,17.34q11,75.89,22,151.73C289.93,921,289.94,921.39,290,921.8Z"/><path class="cls-7" d="M232.49,543l.57,12.12a161.87,161.87,0,0,1-20.27,6.13q-3,.69-6.08,1.32c-5.28,1.11-10.81,2-16.53,2.8-3.83.52-7.73,1-11.69,1.34-3,.29-6,.53-9.1.7-1.28.11-2.53.17-3.82.23-6,.33-12.15.5-18.32.44h0c-3.33,0-6.64-.08-10-.22-4.7-.18-9.38-.45-14.06-.85-2.18-.17-4.36-.39-6.55-.63-7.71-.8-15.34-1.92-22.75-3.4L93.3,550.5c3.52.77,7.1,1.44,10.71,2.06l.12,0c4.35.73,8.83,1.31,13.29,1.85a5,5,0,0,1,.6.07l.15,0c2,.2,3.92.38,5.88.56a301.39,301.39,0,0,0,50.17.19h0a250.85,250.85,0,0,0,29.78-4c2.1-.42,4.16-.86,6.18-1.33a150.44,150.44,0,0,0,18-5.29l.1,0c1-.34,2-.71,3-1.1C231.72,543.34,232.11,543.18,232.49,543Z"/><path class="cls-7" d="M172,556.55c-5.41.42-11,.6-16.54.65l.27,9.48c5.86-.08,11.68-.3,17.35-.76Z"/><path class="cls-7" d="M124.11,554.44c-2.23-.2-4.43-.47-6.64-.71l-.88,13.2c2.18.23,4.36.48,6.55.66Z"/><path class="cls-7" d="M203.84,550.51l3,12.77c2.08-.43,4.07-.91,6.08-1.38L210,549.14C208,549.61,205.95,550.09,203.84,550.51Z"/><path class="cls-8" d="M262.55,960.89c-2.24-.27-4.6-.58-6.92-1l-.16,2.44c-8.58.82-17.7,1.8-24.5-1.42l-.25-5.6.24-6.11c0-.23,0-.42,0-.65l.07-2.1h.11a29.51,29.51,0,0,1,1.9-7.94c-3.41.09-6.93.06-10.63-.13a5.93,5.93,0,0,1-.09-1.15c-.19-4.49.23-17.82.05-20.24Q217.14,846,212.6,775c-.27-4.45-.57-9-.8-13.48-2.61-10.16-32.05-93.78-42.46-130.91-2.3.15-4.68.22-7.05.21-.34,0-.65,0-1,0-9.23,40.9-31,110.51-33.16,124.67.52,17.4,10.7,139.61.73,182.15-1.06,1.21-5.32.8-11.26-.66.11.77.19,1.5.23,2.16h.08v2.11c0,.23,0,.42,0,.65l0,6.13-.48,5.6a26.66,26.66,0,0,1-10.89,1.77,10.46,10.46,0,0,0,.25-1.06c.31-1.55.66-3.07.93-4.62.25-1.21.51-2.46.73-3.68.14-.53.21-1,.31-1.55a9.62,9.62,0,0,0,.21-1l.8-4.32c.26-1.36.49-2.77.71-4.14s.44-2.5.65-3.76c.39-2.31.78-4.74,1.14-7.21,8.8-56.35,15.66-149.08-6.8-175.92,17-4.4,40.92-81.67,40.45-118.33,0-4.52-15.46-15.63-15.68-20.19,6.54,2.33,26.95,10.33,33.29,10.5l.46,0c.84,0,1.68,0,2.57,0,6.28-.13,28.06-6.91,39-9.72-2.8,3.11-18.57,12.84-19.25,18-4.17,31.06,25.91,93.51,43.44,122.24,1.41,2.25,2.72,4.31,3.89,6.13l.43.6c-6.89,8.22-7.65,19.81-7.78,30.56-.71,46.28,4.35,94.34,20.07,137.49,1.41,3.86,2.89,7.69,4.5,11.49,1.46,3.56,3,7,4.66,10.54,1.21,2.51,2.46,5,3.75,7.5C260.35,956.91,261.43,958.92,262.55,960.89Z"/><path class="cls-9" d="M118,948l-.48,5.6a26.66,26.66,0,0,1-10.89,1.77A103.19,103.19,0,0,1,93,954.12l-.07-2.42-.22-5.37-.09-2.8,0-.84.3.05,11.59,2.4,4.05.86Z"/><path class="cls-10" d="M118,948c-3.48.62-6.87,1.18-10.19,1.69-5.13.81-10.1,1.47-14.88,2-1.15.13-2.31.26-3.46.36-32.1,3.39-56.09,1.12-70.41-5.55v-7.2l75.14-.18,15.66,0h8.11v2.11c0,.23,0,.42,0,.65Z"/><path class="cls-11" d="M117.93,941.86a33.56,33.56,0,0,1-9.13,2.59c-1.35.27-2.82.5-4.36.69-3.55.51-7.51.91-11.77,1.19l-1.11.06c-28.15,1.8-67.37-.61-72.55-7.08,0-4.9,8.34-9.6,23.16-14.19,1.44-.42,3-.84,4.55-1.33,1.12-.29,2.29-.61,3.46-1,1.55-.38,3.1-.8,4.73-1.21h0c1.09-.29,2.25-.57,3.41-.86,1.63-.38,3.25-.75,5-1.16,2-.47,4-.9,6.08-1.37h0l6.77-1.41c11.06-2.26,19.2-1.88,25.22,0A22.07,22.07,0,0,1,112.31,924a22.86,22.86,0,0,1,3.92,7.09,31.17,31.17,0,0,1,1.38,5.85c.11.77.19,1.5.23,2.16s.08,1.46.08,2.11C118,941.44,117.91,941.63,117.93,941.86Z"/><path class="cls-12" d="M256.29,950.93l-.25,3.64-.39,5.36-.16,2.42c-8.58.85-17.7,1.82-24.5-1.38l-.26-5.63,13.6-2.35Z"/><path class="cls-13" d="M329.91,950.13l-.26,7.19c-14,5.95-36.85,7.47-67.11,3.57-2.25-.29-4.57-.6-6.9-1q-11.78-1.76-24.93-4.59l.23-6.12c0-.2,0-.42,0-.65l.08-2.09h.1l24.43.92Z"/><path class="cls-14" d="M329.91,950.13c-5.28,6.08-42.73,7.24-70.61,4.75-1.1-.1-2.19-.2-3.27-.32-4.24-.42-8.19-1-11.72-1.59-6-1-10.69-2.28-13.37-3.77,0-.2,0-.42,0-.65,0-.62.09-1.32.18-2.09a31.39,31.39,0,0,1,1.89-7.94,21.75,21.75,0,0,1,13.37-13.14c6.2-2.23,14.92-2.66,27.13.27,2.31.56,4.57,1.1,6.76,1.65s4.07,1,6,1.58c1.69.47,3.32.89,4.9,1.34h0c1.13.32,2.29.64,3.37,1h0l4.68,1.39c1.19.39,2.32.74,3.43,1.08l4.52,1.5C321.9,940.25,330.08,945.21,329.91,950.13Z"/><path class="cls-1" d="M553.13,253.84l-26.47,1.57-1.16-19.55c-5.57-4.24-8.08-9.49-8-22.61l.41-17.45c13.17-1.32,23.08-2.37,37.53-2.64l.9,15.29,6.77-.58v0c-.08.65-1.44,14.74-1.65,15.84a15.44,15.44,0,0,1-7.25,10.11L552,235Z"/><path class="cls-15" d="M537.64,201.73a5.7,5.7,0,0,0,1.57,3.79,4.68,4.68,0,0,0,3.53,1.47l.89,0a5.08,5.08,0,0,0,4.63-5.46l-.42-13.68a5.33,5.33,0,0,0-1.46-3.54,4.38,4.38,0,0,0-3.3-1.37l-1.83.07a4.43,4.43,0,0,0-4,4.76Z"/><path class="cls-15" d="M548.11,201.27a5.7,5.7,0,0,0,1.57,3.79,4.68,4.68,0,0,0,3.53,1.47l.89,0a5.08,5.08,0,0,0,4.62-5.46l-.42-13.68a5.32,5.32,0,0,0-1.46-3.54,4.38,4.38,0,0,0-3.3-1.37l-1.83.07a4.43,4.43,0,0,0-4,4.76Z"/><path class="cls-15" d="M527.33,203.35a5.18,5.18,0,0,0,5.11,5.17l.9,0a4.63,4.63,0,0,0,3.38-1.7,5.61,5.61,0,0,0,1.26-3.84l-.48-10.84a4.84,4.84,0,0,0-4.78-4.83l-1.85.07a4,4,0,0,0-2.94,1.48,4.89,4.89,0,0,0-1.1,3.35Z"/><path class="cls-15" d="M518.27,203.58a4.19,4.19,0,0,0,4.4,3.95l.78,0a4.16,4.16,0,0,0,4-4.28l-.36-8.33A3.91,3.91,0,0,0,523,191.2l-1.6.06A3.62,3.62,0,0,0,517.9,195Z"/><path class="cls-15" d="M538.45,245.48l-.54-11.07C535.12,217.81,550.3,214,550.3,214l.21-1.87a3.06,3.06,0,0,0-.86-2.47l-3.87-4a7.23,7.23,0,0,1,.19-10.26l.82-.78a3.43,3.43,0,0,1,4.83.09l4.2,4.27,6.24,6.36a3.77,3.77,0,0,1,1.09,2.5v0c-.08.65-1.44,14.74-1.65,15.84a15.44,15.44,0,0,1-7.25,10.11L552,235l.41,5.6-.08,0Z"/><path class="cls-2" d="M563.93,401.82a5.6,5.6,0,0,1,.51.58.67.67,0,0,0,.13.14,34,34,0,0,1,2.74,3.63c.33.49.64,1,.92,1.49s.7,1.22,1,1.83a17.92,17.92,0,0,1,.89,1.87,20.54,20.54,0,0,1,.82,1.92c.24.67.48,1.31.7,2s.37,1.06.52,1.61c0,.07,0,.17.06.25a.73.73,0,0,1,.06.22l.19.72c1.95,6.88,2.52,14.37,2.67,21.71a4.31,4.31,0,0,0,0,.58c0,2,.06,4,.07,6,0,.58,0,1.21,0,1.84,0,17.9-.7,51.27.6,81.47v.23c1.16,26.07,3.55,44.71,9.48,53.93,40.07,12.78,81.65,10,124.17-2.3,10-22.51,2.34-95.74,3.93-120,5.62,15.25,10.13,31.64,17,47.5a150.07,150.07,0,0,0,10,19.51l0,0c1.17,1.87,2.39,3.77,3.69,5.61l.08.12s.08.1.11.14,0,0,0,0l10.25-4.8,27.79-13.06c-4.89-13.57-8.67-22.77-12.61-32.63-2.88-7.23-5.85-14.83-9.42-24.77-5.77-16-11.85-32.58-23.64-44.91-8-8.41-22.42-12.41-31.22-19.82a25.32,25.32,0,0,1-4.43-4.81l-.05,0c-3.59-.9-7.15-1.72-10.71-2.55h0c-2.38-.54-4.76-1.06-7.11-1.6-3.23-.77-6.43-1.54-9.61-2.39h-.08a123.11,123.11,0,0,1-24.37-8.68c-2-1-3.86-2-5.77-3.19-1-.6-2-1.24-3-1.92a87.83,87.83,0,0,1-16.4-.7c-9.43-1.41-17.78-4.81-25.05-11.14-9.36,11.61-18.9,24.1-28.32,36C568.37,396.26,566.14,399.07,563.93,401.82Z"/><polygon class="cls-3" points="634.91 397.58 684.87 409.78 696.53 361.43 643.85 351.29 634.91 397.58"/><path class="cls-6" d="M522.24,323.49c.15,2.59.32,5.17.59,7.75a73.67,73.67,0,0,0,2.7,14.55c2.72,8.91,7.76,16.94,13.16,24.54,8.08,11.38,15.93,22.16,25.76,32.05a1,1,0,0,0,.14.16c2.46-2.65,4.91-5.4,7.34-8.22a256.47,256.47,0,0,0,27-36.92c-14.48-12.31-25.1-21.24-30.77-39.37-3.29-10.47-5-19.59-7-30.36-2.1-11.47-2.56-23.8-6-34L525,255.51c-1.12,4.5-1.2,9.5-1.37,13.09C522.69,287.24,521.12,304.88,522.24,323.49Z"/><path class="cls-1" d="M677.85,272.34c21.86,2,37.89,18.12,33.74,43.86a67.75,67.75,0,0,1-2,8.79c5.13-2.28,8.93,2.94,6.5,10.14-1.71,5.08-4.92,11.8-7.9,12.57-3.57.92-4.41-1.33-4.61-1.42-2.27,7.33-3.54,14-6.6,17.67a126.92,126.92,0,0,1-8.92,10.13c-5.73,5.53-10.14,6.61-20,5.72H668c-9.82-.89-14-2.75-18.6-9.23A127,127,0,0,1,642.48,359c-2.34-4.2-2.39-10.95-3.3-18.57-.21.05-1.44,2.11-4.79.56-2.79-1.29-4.73-8.49-5.5-13.79-1.09-7.52,3.59-12,8.22-8.8a67.8,67.8,0,0,1-.36-9C637.32,283.32,656,270.4,677.85,272.34Z"/><path class="cls-4" d="M708.6,282.92c7.44,10.6,9,21.74,3.79,41.55-3.47,1.53-5.44,3.81-7.67,13.69-2.45.44-3.5.5-5.74,1,18.25-52.06-2.32-55-7.88-56.66-4.53-1.35-23.41-3.06-28.1-2.56-5.77.62-26.53-.19-18,54.31-2.11-.93-3.13-1.17-5.46-2-.41-10.12-1.94-12.71-5.07-14.84-1.58-20.43,3-30.2,11.22-40.19C657.14,263.33,695.3,264,708.6,282.92Z"/><path class="cls-4" d="M664.81,271.16c-2.78-.24-6-.35-7.9,1.65-2.41,2.48-1.41,6.61.1,9.72,6.12,12.61,16.41,24.75,32.29,26.75-1.62-1.52-4.35-4.49-4.7-7.09a42.54,42.54,0,0,0,27.36,4.9c-2.09-8.07-4.34-16.45-9.84-22.71-4.47-5.08-10.75-8.3-17.26-10.16S671.55,271.76,664.81,271.16Z"/><path class="cls-6" d="M522.84,331.23a73.44,73.44,0,0,0,2.68,14.56c2.72,8.9,7.77,16.94,13.17,24.55,8.07,11.36,15.93,22.16,25.76,32.06a.67.67,0,0,0,.13.14,34,34,0,0,1,2.74,3.63c.33.49.64,1,.92,1.49s.7,1.22,1,1.83.6,1.23.89,1.87.56,1.28.82,1.92.48,1.31.7,2,.37,1.06.52,1.61c0,.07,0,.17.06.25s0,.15.06.22l.19.72c1.9,6.88,2.46,14.35,2.67,21.71a4.31,4.31,0,0,0,0,.58c0,2,.06,4,.07,6,0,.58,0,1.21,0,1.84.15,17.49.47,49.36.61,80.26v1.44c1.16,26.07,3.55,44.71,9.48,53.93l33.11-2c-14.87-10.63-33.57-25.46-35.68-53.44,6.29,13.72,20.09,19.44,33.4,23.78-19.33-10.12-24.74-26.36-29-42.35-3.92-14.64-5-35.74-3.59-50.84a113.84,113.84,0,0,1,16.79-49.57,126.24,126.24,0,0,1-28.46-15.06c-.45-.3-.87-.58-1.32-.91A136.34,136.34,0,0,1,522.84,331.23Z"/><polygon class="cls-6" points="673.38 423.71 705.7 394.29 691.99 380.23 656.89 401.01 673.38 423.71"/><polygon class="cls-6" points="630.35 410.12 623.85 367.85 641.02 365.91 656.89 401.01 630.35 410.12"/><path class="cls-3" d="M795.83,467l19.07,16.23,12-14.09c6.61,0,11.48-2.56,18.87-12.52l9.61-13.4c-9.19-8.48-16.06-14.91-26.81-23.32l-9.37,11-4.78-4.29h0c-.32.54-7.3,11.93-7.77,12.88a14.59,14.59,0,0,0-.28,11.75l1,2.14Z"/><path class="cls-3" d="M837.14,436.54a5.39,5.39,0,0,1-3.34,2,4.42,4.42,0,0,1-3.5-.9l-.65-.53a4.8,4.8,0,0,1-.38-6.75l8.09-10.08a5,5,0,0,1,3.12-1.84,4.13,4.13,0,0,1,3.27.84l1.34,1.09a4.18,4.18,0,0,1,.34,5.88Z"/><path class="cls-3" d="M829.5,430.24a5.38,5.38,0,0,1-3.34,2,4.42,4.42,0,0,1-3.5-.9l-.65-.53a4.8,4.8,0,0,1-.38-6.75l8.09-10.08a5,5,0,0,1,3.12-1.84,4.13,4.13,0,0,1,3.27.84l1.34,1.09a4.18,4.18,0,0,1,.34,5.88Z"/><path class="cls-3" d="M844,443.61a4.89,4.89,0,0,1-6.8,1l-.66-.54a4.37,4.37,0,0,1-1.58-3.2,5.3,5.3,0,0,1,1.23-3.61l6.53-7.9a4.57,4.57,0,0,1,6.35-.93l1.35,1.1a3.81,3.81,0,0,1,1.38,2.79,4.62,4.62,0,0,1-1.08,3.15Z"/><path class="cls-3" d="M850.69,448.94a4,4,0,0,1-5.56.48l-.57-.47a3.92,3.92,0,0,1-.62-5.53l5-6.08a3.7,3.7,0,0,1,5.19-.45l1.17,1a3.42,3.42,0,0,1,.54,4.82Z"/><path class="cls-3" d="M811.65,469.07l6.7-8c11.54-10.94,2.26-22.44,2.26-22.44l.9-1.53a2.9,2.9,0,0,1,2.05-1.37l5.18-.8a6.83,6.83,0,0,0,5.69-7.85l-.17-1.05a3.24,3.24,0,0,0-3.69-2.68l-5.6.83-8.32,1.25a3.57,3.57,0,0,0-2.25,1.27h0c-.32.54-7.3,11.93-7.77,12.88a14.59,14.59,0,0,0-.28,11.75l1,2.14-3.49,4,0,.06Z"/><path class="cls-2" d="M729.46,504.85c3.45,8.33,7,16.66,11,23.61l0,0a63.69,63.69,0,0,0,3.88,5.89l0,0h0c3.09,4.14,6.52,7.43,10.47,9.33,8.79.11,23.22.6,51.54-43.5,3.08-4.78,6.3-10.07,9.69-15.93l-1.23-1.06-4.07-3.45-15-12.77-1.46-1.25h0c-5,4-14.12,11.09-24.5,18.14-11.22,7.61-23.87,15.25-34.22,19A48.54,48.54,0,0,1,729.46,504.85Z"/><path class="cls-6" d="M660.3,584.39l49.24-2.91c10-22.51,2.34-95.74,3.93-120,5.62,15.25,10.13,31.64,17,47.5a150.07,150.07,0,0,0,10,19.51l0,0c1.21,2,2.48,4,3.77,5.74,0,0,.08.1.11.14s0,0,0,0c3.1,4.13,6.52,7.42,10.48,9.33,8.79.11,23.22.6,51.54-43.5-15.53,17.08-39.11,40.24-49.74,31.2-.69-.59-1.36-1.18-2-1.82-7.43-7-13.67-16.39-19.05-26.65-10.79-20.57-18-44.46-24-58.24A158,158,0,0,1,710.22,461c-2.46,19-7.44,76.07-40.13,105.75,25.45-12.87,32.43-22.85,37.62-34.62C704.14,550.74,697.77,567.17,660.3,584.39Z"/><path class="cls-7" d="M532.81,753.47s-3.53,186.88-2.24,207.85c.07,1.27.14,1.93.25,1.93,2.06.18,4,.35,5.94.56h0c14.34,1.55,25.79,4.37,39.48,11.51.82.4,1.63.84,2.48,1.32s1.92,1.09,2.91,1.66c.7.39,1.44.83,2.17,1.26,1.29.78,2.61,1.6,3.93,2.41.66.43,1.29.82,1.94,1.28s1.5,1,2.27,1.5c.37.25.77.51,1.17.77s.55.38.84.56c0,0,3.55-214.58,1.88-213.7-2.07,1.12,32.3-68.48,45.44-94.86,0,0,0-.07,0-.15,2.8-5.59,4.58-9.23,4.88-9.78a.12.12,0,0,0,0-.07l43,120.29,32,202.33c.91-.44,1.78-.84,2.65-1.24,1.62-.73,3.21-1.51,4.79-2.32,1.94-.94,3.84-1.88,5.79-2.86,13.84-6.91,27.66-13.36,44.26-10.77a20.35,20.35,0,0,1,2.12.37S756.15,771.21,754.2,770c-.77-.44-36.1-132.27-36.1-132.27s-2.69-24.05-4.67-42.08c-.13-1-.21-1.93-.3-2.86-.44-3.67-.79-7-1.06-9.65-.12-1-.21-2-.33-3-.26-2.32-.4-3.71-.39-3.86s0,0-.08,0a137.82,137.82,0,0,1-16.85,6c-34.76,10.31-76.21,10.12-103.21,1.07-2.66-.91-5.2-1.89-7.57-3h0l-.4,3.69L582,595.95l-.32,3-3.9,37Z"/><path class="cls-8" d="M573.09,991.7a37.09,37.09,0,0,1-.92,3.88,21.72,21.72,0,0,1,4.56.54c5.38.33,10.57.07,14.87-1.82l.43-5.76,0-.27,0-3.53c.37.25.77.51,1.17.77s.55.38.84.56c0,0,3.55-214.58,1.88-213.7-2.07,1.12,32.3-68.48,45.44-94.86,0,0,0-.07,0-.15,2.81-7,4.55-9.38,4.88-9.78a.12.12,0,0,0,0-.07l43,120.29,32,202.33c.91-.44,1.78-.84,2.65-1.24,0,.12,0,.19,0,.27l0,6.24.34,5.73c5.11,2.07,11.34,2.31,17.8,1.91-.68-1.2-1.33-2.39-1.94-3.62a58.4,58.4,0,0,1-2.48-5.72,3.86,3.86,0,0,1-.23-.59c-.74-2-1.45-4.08-2-6.19-.31-1-.62-2.11-.85-3.2-1.37-5.15-2.39-10.39-3.27-15.47,0-.16,0-.31,0-.46q-7.47-43-14.55-86c-5.45-33-10.73-66.71-5-99.65-12.08-6.5-17.4-20.69-21.72-33.71q-9.55-28.53-19-57c-3.24-9.84-6.55-20.26-4.36-30.34,2.34-10.68,10.35-19.1,18-26.89-18.95,13.8-52.28,14.86-71.9,2.1,9.58,8.36,17.74,31.33-6.37,87.65-6.25,14.59-19.88,36.42-33.44,44.69,20.67,60.26,13.31,142.75,6.26,189.89-1,6.29-1.93,11.94-2.8,16.82-.26,1.52-.55,3-.8,4.35-.36,2-.68,3.75-1,5.33-.07.45-.14.87-.24,1.29C573.81,988.45,573.41,990.26,573.09,991.7Z"/><path class="cls-16" d="M567.61,983.43l0,.88.11,2.84v0l.28,5.46.1,2.46c1.1.15,2.2.27,3.3.46,2.32.27,4.64.51,6.89.66,5.38.33,10.57.07,14.87-1.82l.43-5.76-13.83-2.78-2.38-.47-1.36-.28-8.13-1.59Z"/><path class="cls-17" d="M492.4,980.59v0l0,7.32c14.71,6.71,39.28,8.81,72.06,5.11,1.16-.11,2.32-.26,3.51-.41,1.93-.21,3.9-.46,5.87-.75.27,0,.5-.08.77-.1,6.07-.85,12.35-1.91,19-3.15l0-.27,0-3.53,0-2.45c0-.19,0-.42,0-.65V979.6h-.08l-8,.07-2.26,0-3.41,0-2.69,0-7.9.07Z"/><path class="cls-18" d="M593.53,982.4c-2.78,1.45-7.64,2.61-13.76,3.48-3.63.55-7.68,1-12,1.3l-1.15.09c-28.76,2-68.86-.11-74.22-6.67,0-5,8.46-9.88,23.57-14.68l4.66-1.41c1.14-.32,2.31-.64,3.53-1l4.83-1.3h0c1.12-.3,2.31-.59,3.47-.89h0c1.63-.41,3.31-.8,5.05-1.23q3-.73,6.21-1.45l6.93-1.5c11.29-2.39,19.63-2.08,25.78-.2a22.36,22.36,0,0,1,15.25,14.48,32,32,0,0,1,1.71,8.16c.07.79.09,1.51.12,2.14C593.54,982,593.52,982.19,593.53,982.4Z"/><path class="cls-19" d="M723.86,995.41l.34,5.74c5.12,2.07,11.35,2.28,17.81,1.88,3.17-.19,6.41-.53,9.57-.87l.5-.05.16-2.48.29-4,.12-1.47.21-2.87,0-.86-.35.07-13.25,2.27-1.95.34-1.45.24Z"/><path class="cls-20" d="M723.86,995.41c5.63,1.61,11.06,2.93,16.2,4,1.18.26,2.33.49,3.48.7a65.07,65.07,0,0,0,8,2c9.68,1.8,27.45,3.12,50-4.55l0-7.35-59-3-7.27-.35-6.64-.34-4.71-.23h-.08v2.12a2.24,2.24,0,0,0,0,.4c0,.1,0,.18,0,.25Z"/><path class="cls-21" d="M723.89,989.15c2.14,1.54,5.87,2.83,10.58,3.89.46.1.95.22,1.43.29s1.1.24,1.66.36c1.94.36,4,.7,6.14,1,.28,0,.59.09.89.12,2.54.33,5.21.6,7.93.82,20.91,1.74,45.42.29,49-5.35,0-5-6.53-10.12-18.13-15.34l-3.6-1.55c-.36-.16-.75-.28-1.11-.44l-1.6-.66-3.7-1.42h0l-2.66-1h0c-1.26-.46-2.55-.88-3.87-1.36-1.57-.54-3.14-1.08-4.79-1.61s-3.48-1.13-5.3-1.71c-8.69-2.72-15.1-2.64-19.8-.92a16.59,16.59,0,0,0-5.82,3.55,22.18,22.18,0,0,0-5.87,10.47,41.05,41.05,0,0,0-1.29,8.11c-.05.79-.06,1.49-.08,2.13a2.24,2.24,0,0,0,0,.4C723.91,989,723.89,989.07,723.89,989.15Z"/><text class="cls-5" transform="translate(597.97 443.09)">ꜩ</text><polygon class="cls-1" points="660.65 1023.64 653.75 1024.17 655.3 1003.27 665.03 1003.27 660.65 1023.64"/><polygon class="cls-1" points="867.16 1023.63 859.64 1023.63 855.98 1007.93 864.72 1007.93 867.16 1023.63"/><path class="cls-1" d="M553.18,246.09s-3.29-25.46-11.13-25.45-13.48,9.58-12.1,12c8.18,14.41,15.25,16.51,15.25,16.51Z"/><path class="cls-1" d="M548.31,227.21c-1.56-2.91-11.1-25.25-14.47-23.77-1.89.83,7.92,21.4,10.95,25.39C545.67,229.81,548.47,229,548.31,227.21Z"/><path class="cls-1" d="M542.73,227c-1.83-2.75-13.43-24.17-16.61-22.32-1.62.94,9.87,20.57,13.25,24.27C540.35,229.79,543.06,228.68,542.73,227Z"/><path class="cls-1" d="M539.7,231.37c-1.89-2.71-15-23.53-17.14-21.91s10.37,20.32,13.84,23.94C537.38,234.26,540.06,233.09,539.7,231.37Z"/><path class="cls-1" d="M538.38,238.36c-1.9-2.18-12.93-19-15.41-17-1.79,1.47,9.87,15.1,12.79,18.51C536.7,240.55,538.86,239.82,538.38,238.36Z"/><path class="cls-1" d="M553.09,246.14s2.22-8.68,3-14.52c0,0,1.31-10.06-.39-10.76-1.88-.78-2.85,6-3,7.78s-1.3,5.32-2.65,3.82Z"/><path class="cls-6" d="M659.46,690.82s28.79,21.79,172-49.05c0,0-12.24-14.14-48.65-7.79C754.69,638.89,709.71,658.56,659.46,690.82Z"/><path class="cls-1" d="M726.35,319.52s-4.25,17.1-4.42,25.49S758.4,402.43,761,405.19c4.58,4.81,43.9-28.28,41.57-67.92Z"/><path class="cls-4" d="M801.71,349.84s3.81,10.55-5.56,25c-8.6,13.26-3.58,17.49-.26,19,0,0-7.56,3.15-10.88-1.18.21,3.2-4.08,10.13-12.09,12.16,0,0,.45-7.61-.42-9.26S801.71,349.84,801.71,349.84Z"/><path class="cls-1" d="M708.93,440.48s-40.42-30.65-84.6-83.68c0,0-12.23-30.62-24-46.58s-36.74-44.89-54.11-76.09l-2,12.92S573.69,342.74,600.35,375s87.42,104.91,87.42,104.91Z"/><path class="cls-3" d="M604.06,373.88c-18.47-20.83-39.14-69.64-50.91-100,10.75,30.79,29.58,79.8,47.2,101.11,26.66,32.25,87.42,104.91,87.42,104.91l4.14-7.72C678.81,457.56,628.11,401,604.06,373.88Z"/><path class="cls-2" d="M678.53,408.21l41.65,22.2s32.43,3.14,53.33-3.11a14.16,14.16,0,0,1,14,.23s9.27,6.71,10.84,11.09a59.75,59.75,0,0,1-2.07,44.65s15.41-10.95,3,12.93l-112.89,5.44s-2.84-20-22.57-39.7c.4-11.67,2.34-25.69,4.28-31.53S678.53,408.21,678.53,408.21Z"/><path class="cls-7" d="M681.78,649.81l126.63-20.75,22.85,203.45L851,861.57l16.6,152.59H855.66L797.52,839.77l-31.65-136c-2.43-7.85-32.7-7.26-36.34,3.63-4.21,12.62-30.11,130.28-30.11,130.28l5.19,32.18-38.4,144.28h-13l10.9-158.82Z"/><path class="cls-6" d="M812.43,664.83l-4-35.77L681.78,649.81l-3.64,42c11.42-2.48,32.41-7.34,74.22-21.28C777.28,662.27,792.85,660.72,812.43,664.83Z"/><path class="cls-2" d="M659.46,690.82s27.59-8,57.22-19.86c44.82-18,91.86-44,114.82-29.2,0,0-30.07-55.17-31.67-121s-24.1-89.18-50.6-90c-20.73-.61-51.76-1.38-63.74,68.52C682.82,514.87,676.55,642.79,659.46,690.82Z"/><path class="cls-6" d="M799.84,520.75a240.48,240.48,0,0,0-1.76-24.34l0-.22s-19.72-59.7-31.14-59.69-12.46,11.95-12.46,11.95,21.72,1.85,27,25.95c7.27,33.22,10.17,133.13,36.42,136C809.67,588,800.69,555.92,799.84,520.75Z"/><path class="cls-6" d="M803.75,637.88c0,.17,0,.32-.05.49,11.09-1.86,20.63-1.23,27.82,3.39,0,0-30.07-55.17-31.67-121-.11-4.46-.32-8.71-.62-12.79C795.58,540.38,804.2,628.82,803.75,637.88Z"/><path class="cls-6" d="M675.29,606.65c-3.84,32.64-9,64.86-15.83,84.17,0,0,9-2.6,22.23-7C674.87,679.39,674.69,635.08,675.29,606.65Z"/><path class="cls-2" d="M701.89,421.45s24.91,14.2,45.74,13.43c11.68-1,36.78-8.67,36.78-8.67s-18.29,27-44,27.35S701.89,421.45,701.89,421.45Z"/><path class="cls-1" d="M721.61,407.42s10,7.66,9,25.7l31.79-2.59s1.17-15.18,3.21-23.87c3.19-8.1,8-19.57,15.61-29.34Z"/><path class="cls-1" d="M766.09,398.8c-6.78,12-28.51,18.78-42.27,13.48-22.1-9.81-3.42-45.52-2.49-70.31l8.07-24.12,60.36,21.67S772.38,387.71,766.09,398.8Z"/><path class="cls-1" d="M726.8,327l-5.39,16.1c-.92,24.69-19.45,60.21,2.24,70.18a15.11,15.11,0,0,1,1-8.53,4.07,4.07,0,0,1-.06-3.78l7-21.11c-1.82-1.77-4.5-7.85-4.5-7.85,17.69-10.45,14.56-26,14.56-26l2.78-12.87Z"/><circle class="cls-1" cx="784.41" cy="374.59" r="10.48" transform="translate(73 874.1) rotate(-60.6)"/><path class="cls-1" d="M741.56,346c.45,12.56-8.34,22.3-17.48,24.37,0,0,2.23,7.31,8,9.65a34.22,34.22,0,0,1-4-7.45S745.34,361.9,741.56,346Z"/><circle class="cls-1" cx="775.86" cy="384.59" r="3.96" transform="translate(93.48 917.72) rotate(-64.37)"/><path class="cls-4" d="M725.13,332.78S704.21,321,721.18,305.4A8.18,8.18,0,0,0,727,311c11.42,3,45-27.49,62,10.38,19.81,3.73,17.6,33.44-.32,51.94l-9.51,4.38s-5.73-3.19-8.89,3.95l-2.82-.24S778.79,355.54,774,348c3.54-2.55,4-8.1-10.56-7.44C740.8,341.59,725.13,332.78,725.13,332.78Z"/><path class="cls-4" d="M721.18,305.4s-13.42,20.68,14.6,25.9a16.43,16.43,0,0,1-4.25,1s23.25,10.9,45.63,3.3c20.13-6.84,3-25.89-.21-28.3-2.31-1.73-14.89-9.08-34.19,2.09C719.63,322.53,721.18,305.4,721.18,305.4Z"/><path class="cls-4" d="M777.18,339.89S789.56,335,790.05,324c0,0,13.67.37,9.07,21s-22.83,3.55-22.83,3.55S782.61,346.33,777.18,339.89Z"/><path class="cls-4" d="M802.65,338s.57,11.71,3.6,14.54c0,0-3,0-4.6-3.68Z"/><path class="cls-2" d="M716.69,667.85c-26.07,10.46-50.55,17.88-56.06,19.51-.38,1.19-.77,2.35-1.16,3.46,0,0,27.59-8,57.22-19.86,44.82-18,91.86-44,114.82-29.2,0,0-.84-1.55-2.23-4.39C805.6,625.49,760.1,650.43,716.69,667.85Z"/><path class="cls-2" d="M662.58,461.93l.77-7s17.91,9,24.14,20.64l-2.34,26.07S680.09,479.45,662.58,461.93Z"/><path class="cls-2" d="M686.27,499.34l-1.56-.07c0-.5,2.57-50.71,18.05-77.43l1.35.78C688.82,449,686.3,498.84,686.27,499.34Z"/><path class="cls-2" d="M669,431.84c1.76-5.28,8.62-18.68,10.57-22.44l-2.24-1.19s-8.55,16.36-10.5,22.2-3.89,19.86-4.28,31.53c.68.68,1.34,1.36,2,2C665.06,451.89,667,437.82,669,431.84Z"/><path class="cls-2" d="M758.34,445.07l2.53.71.19-1.76s11.54-4.19,13.27-9.78C774.32,434.24,765.54,441.79,758.34,445.07Z"/><path class="cls-8" d="M715,697.57l10.39,5.71-2.08,25.95.69-.09c2.57-10.82,4.6-18.89,5.54-21.71,3.63-10.9,33.9-11.48,36.34-3.63l4.49,19.29L771,723l-3.62-28,8.82-10.38C756.52,693.42,715,697.57,715,697.57Z"/><polygon class="cls-22" points="650.51 1015.66 668.16 1014.87 663.35 1036.12 620.04 1036.12 651.72 1023.28 650.51 1015.66"/><polygon class="cls-23" points="852.84 1014.48 870.99 1014.48 871.67 1021.17 887.52 1031.39 853.76 1031.39 855.81 1021.17 852.84 1014.48"/><polygon class="cls-8" points="704.62 869.88 666.21 1014.16 653.23 1014.16 654.79 993.41 656.87 1007.43 663.1 1004.82 704.62 869.88"/><polygon class="cls-8" points="798.56 842.38 855.66 1014.16 867.59 1014.16 850.98 861.57 831.26 832.51 846.83 861.57 862.4 1000.15 855.13 1002.75 798.56 842.38"/><text class="cls-5" transform="matrix(1, 0.02, -0.02, 1, 691.65, 491.54)">ꜩ</text><path class="cls-1" d="M431.57,1067.35l-21.87-4.19a17.8,17.8,0,0,1-12.36-9.09H368.22l-1.47,23.52,81,4.45h0A21,21,0,0,0,431.57,1067.35Z"/><path class="cls-24" d="M366.75,1077.59l81,4.45a21,21,0,0,0-16.17-14.7l-21.87-4.19a17.75,17.75,0,0,1-7.22-3.17l-1.08,1.08a20.76,20.76,0,0,1-17.27,5.89l-16.58-2.1Z"/><polygon class="cls-1" points="368.22 1054.07 346.27 1002.11 382.4 1002.11 397.34 1054.07 382.05 1060 368.22 1054.07"/><path class="cls-1" d="M349.2,206.9l.48-7.54a2.2,2.2,0,0,1,3.85-1.32L357,202l9.52-4.4a8.5,8.5,0,0,1,9.19,14.1l-12.2,10.74-6.85,33.34-24.43-10.27Z"/><path class="cls-1" d="M46.81,909.32,0,949.89l53.58,60.9h0A21,21,0,0,0,52.73,989L40.39,970.42a17.87,17.87,0,0,1,5.76-25.27c11.34-6.73,24.23-14.78,23-15.93C67.09,927.21,46.81,909.32,46.81,909.32Z"/><path class="cls-25" d="M0,949.89l53.58,60.9A21,21,0,0,0,52.73,989L40.39,970.42a17.75,17.75,0,0,1-2.8-7.37l-1.52,0a20.76,20.76,0,0,1-16.3-8.19L9.64,941.54Z"/><path class="cls-1" d="M240.47,352.37l13.22,28.41a17.93,17.93,0,0,1-6.1,22.35l-14.84,10.2,4.35,28.76-42.81,8.67,2.39-46.65L178.95,382l25.13-24.1Z"/><path class="cls-4" d="M224.88,331.32l.54-.56a13.07,13.07,0,0,1,15.87-2.37h0a13.07,13.07,0,0,1,6,15.43l-.5,1.54a13.08,13.08,0,0,1-6.08,7.39l-29.59,16.47h0a20.45,20.45,0,0,1,5.73,21l-.57,1.87-11.82-3.58,1.85,12.27a13.06,13.06,0,0,1-2.72,10.12l-5.17,6.45-7.84-12.11a15.68,15.68,0,0,0-5.59-5.21l-13.69-7.55,9.13-27.7,44.44-33.51"/><circle class="cls-4" cx="216.66" cy="338.48" r="11.71" transform="translate(-48.14 36.17) rotate(-8.59)"/><circle class="cls-4" cx="199.9" cy="348.63" r="11.71" transform="translate(-49.84 33.78) rotate(-8.59)"/><circle class="cls-4" cx="185.34" cy="362.67" r="11.71" transform="translate(-52.1 31.76) rotate(-8.59)"/><circle class="cls-4" cx="182.76" cy="380.13" r="16.87" transform="translate(-54.74 31.57) rotate(-8.59)"/><path class="cls-1" d="M213.18,403h0a7.86,7.86,0,0,0,.54-11.07l-1.62-1.79a7.86,7.86,0,0,0-11.07-.54h0a7.86,7.86,0,0,0-.54,11.07l1.62,1.79A7.86,7.86,0,0,0,213.18,403Z"/><polygon class="cls-1" points="218.02 421.2 232.76 413.33 233.59 418.84 218.02 421.2"/><path class="cls-2" d="M260.36,424.73l-113.9,41L78.65,568.47a17.82,17.82,0,0,0,1.3,21.36h0A17.82,17.82,0,0,0,104,592.7l49.29-35.84,4.56,108.65,156.54-13L298.71,471.76,364,240.21l-28.48-8Z"/><polygon class="cls-7" points="168.06 664.66 158.98 806.3 40.53 911.09 58.75 942.98 217.64 838.19 244.41 710.62 352.62 1026.13 392.48 1026.13 304.84 653.32 168.06 664.66"/><text class="cls-5" transform="matrix(0.99, -0.11, 0.11, 0.99, 168.98, 502.23)">ꜩ</text><path class="cls-1" d="M179.93,500.42l4.53-6.05a2.2,2.2,0,0,1,3.94,1l.74,5.17,10.37,1.52a8.5,8.5,0,0,1,0,16.83l-16.08,2.32-24,24.17-14.83-22Z"/><polygon class="cls-6" points="193.3 448.87 219.85 458.25 221.69 438.65 236.87 454.67 235.82 433.56 193.3 448.87"/><path class="cls-2" d="M506.22,463.75c-2.46,11.84-1.92,23.81-1.54,35.78.21,6.52,0,13,0,19.57q0,70,.09,140.08c0,3.78-1,5.71-4.83,6.09a29.68,29.68,0,0,0-5.26,1.49c-1.43,2.15-3.81,2.43-6,2.73-12.34,1.65-24.62,3.75-37.1,4.43-7,.38-13.92.23-21.36.63a52.94,52.94,0,0,0,7.32,6.11c7,4.63,13,10.53,19.92,15.18,1.64,1.1,4.21,2.78,2.18,5.2-1.84,2.2-3.68.12-5.28-1.1-9.37-7.14-18.65-14.38-27.92-21.64a20.82,20.82,0,0,0-15.07-4.75,7.59,7.59,0,0,1-1.71-.15c-11.21-1.38-22.45-2.61-33.4-5.51-2.09-.55-4,.77-6,0-.25-1.36.24-2.92-1.88-3.52-1.75-.5-1-2.35-1-3.6-.54-28.83-1-57.66-1.52-86.49q-1-53.54-2.1-107.08c0-1.14.08-2.28.12-3.42.06-.68.31-1.58-.15-2-2.72-2.54-2.14-5.84-2.13-9,0-3.9-.89-7.72-1.11-11.53-.59-10.2,1.86-19.56,10.54-26.2,1.27-1,2.43-2.08,3.74-3,2.06-1.47,1.85-2.92,0-4.38-2.81-2.17-5.5-4.47-8.22-6.74-1.28-1.07-2.06-2.32-.95-3.83s2.56-1,3.9,0a71.6,71.6,0,0,1,8.19,6.22c3,2.81,6.13,4.79,10.41,2.9.73-.32,1.61,0,2.34-.38a10.56,10.56,0,0,1,4.88-.93c1.83-.51,3.19.14,4.63,1.35,4,3.37,7.73,7.08,11.75,10.44,2,1.69,3.29,1.45,4.62-.75.85-1.4,1.15-3.33,3.1-3.88a3.8,3.8,0,0,1,3.5,1.68c1.16,1.55,2.57,2.87,3.82,4.33,3.19,3.71,3.87,3.7,7.53.23,2.22-2.11,4-5.23,7.9-4.19a.87.87,0,0,1,.29.17c3.81,4.9,3.77,4.85,9.16,1.36q7.74-5,15.52-10a13.69,13.69,0,0,1,6.69-2.07,15.8,15.8,0,0,1,4.68,2.67c1,1.53.13,2.83-.52,4.15-2.27,4.6-5.14,8.92-6.27,14.05a45.65,45.65,0,0,0-.12,17.3c.88,5.48,3.32,10.16,6.1,14.77.12.2.21.41.33.6,4.2,6.83,18,10,24.73,5.7C504.31,461.82,505.64,461.19,506.22,463.75Z"/><path class="cls-7" d="M410,671.36c10.21.91,3.16,0,14.14,1.94,1.34-1.26,4.36-.58,5.5-.55,19.52.56,38.8-1.88,58-4.83,2.35-.36,4.57-1.47,7-1.17-.15,11-2,21.86-1.38,32.89.45,8.22.44,16.46.64,24.69a49,49,0,0,0,.52,13c.73,22.63,1.52,45.26,2.18,67.9,1.24,42.42,1,84.87,1.38,127.3,0,.91.22,12.16-.09,14.43-.82,1,.49,19.9.46,23.24-.07,9.23-.38,18.47.17,27.7.06,10.63,0,23.19.22,33.82.05,3-6.83,2.55-13.94,2.56-10.67,0-13.94,1.22-15.33.14-4.78,0-4.82,0-5.44-4.81-1.36-10.55-2.66-21.11-4-31.67-.58-2.35-1.8-17.06-2.56-20q-8-63.12-16-126.24-5.18-41-10.34-82c-.12-1,0-2.13-1.22-2.59-2.23-1.36-2.07-3.67-2.07-5.75,0-7.45-1.23-14.72-2.56-22a116.28,116.28,0,0,1-1.8-14.53c-.89-16.53-3.67-32.6-10-48a6.71,6.71,0,0,0-2.22-3C410.5,673.22,409.59,672.65,410,671.36Z"/><path class="cls-7" d="M410,671.36c3.84.5,4.95,3.09,5.79,6.53,1.33,5.41,3.86,10.46,5.4,15.86,2,6.89,2.26,14,3.18,21,1,7.33,1,14.82,2.34,22.05,1.23,6.41,2.07,12.85,2.82,19.3.42,3.61,1.13,7.29.46,11-2.11,12.17-4.07,24.37-6.37,36.51-7.76,40.82-13.91,81.91-20.51,122.93q-8.67,53.9-17.32,107.8a3.79,3.79,0,0,1-3.24,1.62c-5.7.43-11.42.16-17.13.42a4.87,4.87,0,0,1-3.86-1.9c-7.4,0-7.3,0-7-7.44q1.7-43.88,3.28-87.76,1.4-37.54,2.81-75.07c0-1.13-.05-2.27-.09-3.41.35-3.29.89-22.74,1.23-25.77L366,752.64l4.27-84.73c.55-1.87,1.8-2.43,3.65-2.07,5.93,1.14,11.87,2.22,17.8,3.35A143.23,143.23,0,0,0,410,671.36Z"/><path class="cls-6" d="M506.22,463.32c-.91-1-1.37-.39-2.19.4-4.1,3.94-8.82,4.4-13.8,2.52-1.94-.74-3.75-2-5.72-2.55-5.82-1.75-8.57-6.82-10.92-12.33-5.87-13.77-6.73-27.63-.48-41.58,1.59-3.54,3.25-7,4.88-10.55-1.33-1.38-.7-2.77,0-4.17q8.73-18.33,17.9-36.38c4.28-8.48,8.26-17.15,12.48-25.67a10.32,10.32,0,0,0,.6-6.72c-3.16-17.08-6.82-34-10-51.1-1.38-7.39-3.35-14.66-4-22.22-2-8.94-2.46-14.77-3-15.3-.83-6.39-2.38-10.37-3.51-15.57-1.85-8.46-3.34-17-5.15-25.48-.45-2.12-.92-4.25-.11-6.4,2.11-4.24,5.9-5.7,9.6-7.33,3.27,1.06,3.51-2.77,5.29-4.12,1.75-.91,3.34-2.41,5.48-1.83,2-.44,1.86,1.52,2.28,2.64q22.05,59.05,44,118.14a16.78,16.78,0,0,0,1.07,2.83c7.58,12.52,5.06,25.48.75,38.08-12.89,37.7-26.16,75.22-39.18,112.86C511,455.88,508.6,459.57,506.22,463.32Z"/><path class="cls-6" d="M390.9,407.14c-5,2.51-9.44,2.64-13.74-1.86-2.93-3.07-6.71-5.33-10.59-8.32-.16,2.51,1.35,3,2.28,3.77,3.25,2.71,6.57,5.33,9.89,8,1.67,1.33,1.45,2.43-.32,3.38a37.13,37.13,0,0,0-6.94,5c-8.37,7.37-10.64,16.58-8.54,27.27.48,2.44.19,5,.37,7.52.24,3.35-.92,6.85,1.08,10,.37.6-.1,1.32-.49,1.91-.91-3.42-4.12-5.28-5.51-8.51-5.47-12.72-11.26-25.3-16.93-37.94q-13.77-30.7-27.52-61.42c-2.9-6.51-4.09-13.57-6.22-20.33-.49-1.57.25-2.92.75-4.31q22.13-61.18,44.27-122.35c.16-.43.26-.88.39-1.32a10.79,10.79,0,0,1,7.45,1.63c3.85,2.26,7.82,4.28,11.81,6.27a5.38,5.38,0,0,1,2.91,2.76,7.35,7.35,0,0,1,.42,4.71q-3.22,19.48-6.66,38.92c-4.71,26.41-9,52.89-13.64,79.32a10.13,10.13,0,0,0,1.74,7.47C368,365.82,378.47,383.16,389,400.45,390.21,402.36,392.83,404.22,390.9,407.14Z"/><path class="cls-26" d="M361.6,1034.42l24.22-.14,1.5,10.34c-.27,4.46-.26,4.51-5.07,5.46q-13.64,2.69-27.11,6.13c-3.75,1-8,.32-11.49,1.77-5.73,2.35-10.89-.68-16.32-.73-1.52,0-3.13-.57-4.72-.75a4.55,4.55,0,0,1-4.21-3c0-2.14,1.81-2.4,3.26-3q18.47-7.27,37-14.51A6.63,6.63,0,0,0,361.6,1034.42Z"/><path class="cls-27" d="M492.62,1034.42l-24.22-.14-1.5,10.34c.27,4.46.26,4.51,5.07,5.46q13.64,2.69,27.11,6.13c3.75,1,8,.32,11.49,1.77,5.73,2.35,10.89-.68,16.32-.73,1.52,0,3.13-.57,4.72-.75a4.55,4.55,0,0,0,4.21-3c0-2.14-1.81-2.4-3.26-3q-18.47-7.27-37-14.51A6.63,6.63,0,0,1,492.62,1034.42Z"/><path class="cls-3" d="M357.66,199.19c5.37,1.45,10.41,3.91,16.15,4.31a46.14,46.14,0,0,0,12.2-.92,2.82,2.82,0,0,1,.87,3.36c-1.63,5.23-5.29,8.9-9.41,12.19a3,3,0,0,1-3.23.26c-7.22-3.24-13.78-7.77-21.12-10.77C356.77,206,357,202.48,357.66,199.19Z"/><path class="cls-28" d="M318.41,1053.49c4,1.52,8.2,1.84,12.4,2.18a4.5,4.5,0,0,1,.68,0c10.46,2.55,20.3-1,30.29-3.07,7-1.41,13.86-3.08,20.84-4.32,2.46-.44,4-1.36,4.7-3.7,1.82,6.72,1.82,6.69-4.82,8.14-10.26,2.23-20.49,4.58-30.77,6.73a70.9,70.9,0,0,1-30.25-.45C318.1,1058.29,317.11,1056.64,318.41,1053.49Z"/><path class="cls-6" d="M453.34,372.41a81.64,81.64,0,0,0-.65,13.88c0,.94.21,1.89,1.21,2.28,5.11,2,7.93,6.73,11.79,10.2,2.45,2.21,4.56,4.81,7.55,6.38a5.47,5.47,0,0,0-4.15,1.17c-7,4.58-14.05,9-20.93,13.7-2.57,1.76-4.1,1.88-5.15-1.33-.38-1.18-1-2.3-1.46-3.45-4.79-3.09-8.41-11.12-7.31-16.18,3.2-3.28,7.69-4.31,11.49-6.55,4.48-2.63,5.53-4.6,4.5-10,0-3.22-.22-6.48,1-9.57C451.8,372.14,452.44,371.72,453.34,372.41Z"/><path class="cls-6" d="M395.59,405.85a4.16,4.16,0,0,1,1.49-4.48c3.43-3.16,6.68-6.52,10.12-9.67,1.56-1.43,3.12-3,5.6-2.9s4.3-.5,2.54-3.59c-.11-.2.57-.85.89-1.29a1.12,1.12,0,0,1,1,0,4.45,4.45,0,0,1,1,1.15,3.61,3.61,0,0,1,.09,2.95c-1.22,3.47.28,5.73,3.05,7.73,1.92,1.38,4.64,2.08,5.18,5-.27,3-1.59,5.76-2.71,8.53a6.27,6.27,0,0,1-4.14,3.8c-1.12,2.24-2.37,4.42-3.33,6.72s-1.87,1.95-3.39.54c-4.58-4.26-9.27-8.41-13.91-12.6C398.06,406.78,397.18,405.65,395.59,405.85Z"/><path class="cls-29" d="M419.69,413c1.49-2.77,2.91-5.57,4.48-8.29a7.78,7.78,0,0,0,1-4.21c2.12-.69,2.65.79,2.9,2.3.41,2.49,1.19,4.9,1.6,7.73.76-3.17,1.17-6.1,2.13-8.91.63-1.85,1.49-3.17,3.69-1.84a3.6,3.6,0,0,0,.1,3.85c2.59,3.56,3.51,8,6,11.59-1.41-.77-2.07.42-2.87,1.14-2.2,2-4.47,3.91-6.5,6.05-1.73,1.83-2.8,1.43-4.3-.32C425.21,419,422.9,415.63,419.69,413Z"/><path class="cls-1" d="M484.26,219.73c-8.64-4.83-13.5-11.72-12.48-22.07.38-3.84-.33-7.76,1.1-11.54.88-2.32,1.78-4.47,4.32-5.4.74-.27.49.36.39-.43,8,6.24,15.59,11.86,14.94,23.2a43.42,43.42,0,0,0,.7,10.82Z"/><path class="cls-1" d="M360.54,190.15c2.2.15,2.85-1.59,3.67-3.08,2.09-3.81,4.56-7.05,9.22-8.05,5.35-1.15,7.91,0,10.16,4.89a16.14,16.14,0,0,1,1.73,5.9c.08,1.75,1,2.45,2.67,2.33a25.94,25.94,0,0,1-16.83,1.56C367.52,192.91,364.07,191.36,360.54,190.15Z"/><path class="cls-4" d="M417.75,385.74l-.61,0a13.39,13.39,0,0,0-5.41-.9c-3.59,0-5.55-1.92-7.71-4.59-4.62-5.74-6.64-12.1-7.41-19.35A473.87,473.87,0,0,0,386.31,302c-.28-1.2.53-2.31.78-3.48.92-4.21-2.45-21.67,1.54-27a3.29,3.29,0,0,1,3-1.4q27,0,54.06,0a7.09,7.09,0,0,1,3.59.94c5.74,3.23,11.48,6.45,17.27,9.59a3.39,3.39,0,0,1,2.06,3.4c-.06,11.82,0,23.64,0,35.46,0,4-2,7.67-2.6,11.58a2.42,2.42,0,0,1-2.51,1c-3.23-.25-4.77.75-6.18,3.66a11.32,11.32,0,0,0-.61,7.67,92.08,92.08,0,0,1,1.84,13.94c-.58,4.09-1.34,8.16-1.67,12.27-.2,2.45-1.06,3.86-3.44,4.52a48.92,48.92,0,0,0-4.82,1.88l-1.16.53a6.29,6.29,0,0,1-3.06,2.52c-6.87,2.55-13.64,5.36-20.5,7.92A5.29,5.29,0,0,1,417.75,385.74Z"/><path class="cls-1" d="M458.47,357.3c-2.11-5.54-2.94-11.4-3.8-17.19-.39-2.64.89-5.27,2.6-7.49,2.43-3.15,5.51-2.48,8.65-1.58,4.09,8.21,2.92,13.12-4.39,18.68a10.71,10.71,0,0,0-1.19,1.25,5.4,5.4,0,0,0-1.36,5.12Z"/><path class="cls-1" d="M459,356.08c-1.27-1.77-.28-3.58.09-5.29.26-1.21.91-.5,1.27.18Z"/><path class="cls-1" d="M435.45,399.81c-1.63.4-2,1.75-2.29,3.12-.76,3.23-1.49,6.47-2.32,9.68-.26,1-.13,2.34-1.7,2.94-1.89-4.89-1.43-10.38-4-15-2.49-2.29-5.64-3.72-8-6.24-1.37-1.46-2.18-2.68-.86-4.59.88-1.27.55-2.84.67-4.29.21-.11.5-.27.64-.17,6.34,4.45,13.18,2.28,19.86,1.37a31.71,31.71,0,0,0,11-3.72c1.24-.68,2.51-1.42,3.46.41,1.14,5.53-.17,9.41-6.22,11.29C442.08,395.7,438.85,398,435.45,399.81Z"/><path class="cls-1" d="M451.9,385.32c-2-.15-3.15,1.61-4.81,2.29a56.61,56.61,0,0,1-24.35,3.83c-2.7-.13-5.22-.71-5.79-4q0-.73,0-1.45c4.13.79,7.83-.54,11.6-2,7.75-3.1,15.61-5.93,23.43-8.87Z"/><path class="cls-1" d="M451.28,321.21c-.61,9.35-.58,18-2.75,26.43a12.87,12.87,0,0,1-4.35,6.8c-3.74,3.34-7.25,4.29-11.51,1.24a8.58,8.58,0,0,0-5.29-1.19c-3.78,0-7.56.07-11.33-.08-4.69-.19-9.29.07-13.68,1.89-1.56.65-2.49.5-2.92-1.39-3.49-15.08-7.8-30-5.65-45.83.43-3.18,1.14-5.58,4.46-6.53a9.68,9.68,0,0,0,2.09-1c6.47-3.74,13.39-4.66,20.86-4.8,8.77-.17,16.83,1.78,24.86,4.73,3,1.11,4.22,3.51,4.95,6.32C452.25,312.5,451.1,317.25,451.28,321.21Z"/><path class="cls-1" d="M431.7,364c-.2.29-.46.7-.76,1.08-2.22,2.81-4.49,5.59-6.66,8.44-.94,1.23-1.69,1.25-2.8.19-1.46-1.39-2.72-3.72-4.62-3.7-1.74,0-2.93,2.32-4.29,3.68s-1.85.88-2.57-.49q-2.37-4.49-4.94-8.89c-.84-1.43-.42-1.92,1.06-2.41,6.93-2.29,14-1.09,21-1.05,1.29,0,2.59,1.2,3.87,1.88A1,1,0,0,1,431.7,364Z"/><path class="cls-30" d="M279.49,195c1.7-4.68-.52-6.39-4.89-7.45-7.34-1.77-7.45-2.22-5.34-8.73Q289.33,117,309.45,55.14c2.12-6.53,4.16-13.08,6.16-19.65.89-2.91,2-3.94,5.28-2.39a21.71,21.71,0,0,0,10.53,2.5c6.14-3,10.18,1.73,14.89,4,17.21,6.47,33.23,15.37,48.91,24.8,10.51,6.32,19.43,14.77,27.79,23.72,1.31,1.41,2.38,3,4.44,3.26,3.63,6.6,9.91,11.78,10.75,19.9,2.74,11.11,7.47,21.7,8.6,33.24.21,2.11,2.32,2.9,4.19,3.5,26.91,8.72,54.15,15.27,82.78,14,13.91-.61,26.49-3.87,35.8-15.13,3.59,3.49,1,7.43,0,10.65-4.14,14.32-9.17,28.37-13.57,42.61-2.77,8.94-9.89,12.11-18.67,8.6-10.84-4.33-21.05-10.05-31.59-15.07-4.77-2.27-9.86-3.93-14.4-6.4s-9.51-4.51-14.09-7.07c-8.79-4.91-18.24-8.29-27.46-12.22-2.19-.93-4.1-1-5.3,1.5-7.09,4.49-12.21,11.37-19.26,15.92-3,1.95-5.76,4.38-9.41,5.18-7.3,3.46-14.63,6.89-21.39,11.35-1.91,1.26-3.51,2.18-5.7,1.07-5.18-1.92-10.17.35-15.17.91a116,116,0,0,1-24,.25c-10.32-1-20.72-1.08-31-2.77-7.54-1.24-14.85-3.74-22.54-4A25.24,25.24,0,0,0,279.49,195Z"/><path class="cls-31" d="M279.49,195c4.11-6.14,12.56-5.64,16,.94,3.35,2.29,1.32,5.19.65,7.72-3.15,11.93-3.05,12.19,9.09,15.36,4.6,1.2,8.94,3.17,13.48,4.53,8.92,2.66,17.43,6.86,27.18,6.13a53.56,53.56,0,0,0,14.94-3.61c9.81-4.8,17.92-11.5,23.61-21,1.16-1.93,2.54-4.06,5.47-2.69a64.59,64.59,0,0,0,9.86-3.67c3.27-1.46,10.84-5.61,13.3-6.4.14,4.56-.16,4.13-1.8,8.07-8.9,21.48-22.88,38.27-45.17,46.95a16,16,0,0,1-6.09,1.54A66.28,66.28,0,0,1,320.3,247a16.92,16.92,0,0,1-7.72-5.45c-12.72-4.22-25.37-8.67-38.18-12.55-4.83-1.46-5.25-3.62-3.7-7.87C273.85,212.51,276.58,203.72,279.49,195Z"/><path class="cls-31" d="M443.36,168.86c-1.82-1.32-3.49-2.79-1.66-5.15s4-1,5.78-.21c9.06,4.14,18.3,8,27,12.79,13.36,7.41,27.64,12.71,41.49,19,5.78,2.62,11.15,5.94,16.92,8.55C546.67,210,551.2,208.48,555,194c3.2-12.06,8-23.57,11.4-35.52,1.11-3.85,2.1-7.73,3.14-11.6,2.89-5.24,6.35-10,11.27-13.57,2-1.45,4.6-2.91,6.85-1.1,2,1.62.2,4-.41,5.83Q570.47,190,553.53,241.9c.15,4.81-.35,9.42-4.09,13a19.59,19.59,0,0,0-1.24,3.2c-1.09,5.41-3.5,6.72-7.81,2.7-3-.66-3.65-3-3.94-5.62a106.51,106.51,0,0,1-.57-13.78c.21-11-5.06-19.5-12.51-26.8-3.54-3.47-6.91-7.14-10.83-10.22a350.9,350.9,0,0,0-48-24.6c-5.48-2.33-11.18-4-16.72-6.15C445.68,172.81,442.71,172.45,443.36,168.86Z"/><path class="cls-31" d="M345.52,41.15c-5.09-.87-9.45-3.57-14.1-5.55,3.33-10.2,6.81-20.36,9.93-30.63,1.33-4.38,3.31-6,7.9-4.32,18.33,6.8,37.37,11.49,55.5,18.9a42.33,42.33,0,0,1,11.83,6.94c2.73,3.37,6.34,5.89,9,9.32,3.38,4.38,3.15,5.45-1.23,9.09-2.36,2-4.56,4.13-7.91,4.1-2.19.37-3.48-.94-4.88-2.37a48.54,48.54,0,0,0-19.91-12.17c-9.82-3.22-19.8-6-29.51-9.53-4.17-1.54-7.12-.33-8.73,3.85-1.17,3-2.36,6.07-3.76,9C348.78,39.61,347.9,41.27,345.52,41.15Z"/><path class="cls-31" d="M438.2,111.3c-4.89-5.45-9.91-10.81-11.9-18.16-1.41-1.28-2.52-3.1-2.39-4.73.57-7.13-3.1-20.05-2-27.17,4.94-3.76,9.11-8.33,15.07-8.85C440.16,69.08,443.59,95,438.2,111.3Z"/><path class="cls-31" d="M434.35,46.87,437,52.41c.4,3.45,1.94,7.27-1.71,9.83-4.59,3.22-9.07,1.58-13.36-1a5.23,5.23,0,0,1-1.43-1.7c-1.06-2.2-.28-4.48-.23-6.72.08-3.63,1.26-6.52,5-8.22S431.72,44.44,434.35,46.87Z"/><path class="cls-31" d="M434.35,46.87C424.27,45.12,420.79,48.78,423,58.8c-5-.5-8.6-6.17-7.19-11.35a28.37,28.37,0,0,0,4.55-2.24c6.58-4.81,6.65-5.8,1.25-11.88-1.89-2.13-3.92-4.14-5-6.83C424.61,31.45,430.05,38.66,434.35,46.87Z"/><path class="cls-31" d="M549.44,254.92c0-4.76,2.61-8.71,4.09-13"/><path class="cls-31" d="M326.68,151.21c-7.33-12.65-7.26-25.42-.8-38.38,9-18.14,26.86-26.89,47.72-21.23,15.28,4.15,28.4,17,29.79,38,1.37,20.77-17.85,46.31-46.85,42.18-1.89-.27-3.81-.29-5.72-.43-5.45.3-10.28-2.22-14.89-4.32-5.27-2.4-6.81-7.85-6.18-13.57.33-3,.72-6,2.31-8.73,2.21-1.91,4.19-1.34,6,.61.91,1,1.77,2,2.7,3,9.51,9.81,22.1,12.44,34.14,6.86,9.72-4.5,14.3-12.93,14.68-23.05.41-10.77-5-18.92-14.17-24.72-9.8-6.18-19.4-4.47-28.12,1.32-8.2,5.45-13,13.51-11.8,24a13.47,13.47,0,0,1-2.91,10.77,11.84,11.84,0,0,0-1.94,4.73C330.18,150.43,329.15,151.81,326.68,151.21Z"/><path class="cls-31" d="M331.42,71.86c-5.84.82-10.13-4-15.82-4.26-1.88-.09-1.47-2.85-1-4.5,2.07-7.48,4.18-15,6.41-22.39.89-3,3.75-2.16,4.35-.69,1.88,4.62,6.22,4.72,9.77,6.21a450.08,450.08,0,0,1,41.42,20.19c7.15,3.9,13.82,8.59,21,12.41,5,2.64,11.08,6.87,10.32,14.7-.29,3-.93,6-3.58,7.45s-5.54.09-7.38-1.8c-5.27-5.44-12.5-8.36-18.67-11.71-6-3.27-13.9-4.74-20.61-7.81-7.19-3.29-15.09-4.2-22.27-7.4C334.21,71.76,332.74,72,331.42,71.86Z"/><path class="cls-31" d="M326.68,151.21c2.4-2.16,3.46-5,4.33-8,.33-.94,1-1.93,1.94-1.33,1.36.84,1.27,2.12.06,3.23-3.59,14.42.75,20.83,17.81,26.32-1.78,1.46-3.63.57-5.47.16-14.11-3.13-19.29-.5-25.24,12.76-.44,1-.53,2.29-2.38,2.75.48-6.73,3.41-13.43-.57-19.88-3.79-6.16-10.82-7.39-17.49-11.35C309.9,156.51,319.91,162.4,326.68,151.21Z"/><path class="cls-29" d="M334.52,146.25c0-1.31-2.09-11.91-2.12-16.55-.12-17.32,17.47-30.57,33.91-29,13.61,1.32,27.12,17.75,26.46,31.68-.75,15.85-12.2,26.73-27.88,28.28-12.08,1.19-20.68-3.65-28.08-12.22C335.68,147.16,336.28,146.83,334.52,146.25Z"/><path class="cls-32" d="M506.09,238a29.85,29.85,0,0,0-8.55-9.19c-.56-.4-5.56-3.1-8.62-4.44a23.92,23.92,0,0,0-8.5-15.08,31,31,0,0,0-8.39-4.88c-9.55-3.79-20.7-4-30.75-2.94-10.26,1.06-20.66,4-29.22,10.15a39.16,39.16,0,0,0-10.36,10.83c-.25.39-.44.78-.67,1.17l-.71.4c-.57.37-1.14.72-1.72,1.06-1,.58-2,1.14-3,1.67a35.12,35.12,0,0,1-6.84,2.72c-5.47,1.54-10.76,1.36-16.33.72-8.31-1-17.75-2.06-23.67,4.13a15.62,15.62,0,0,0-4,10.44,27.56,27.56,0,0,0,8.19,20c7.83,7.93,18.66,10.63,29.32,10.23.26,0,1.66,0,2.91,0l0,2.22.19,8.87.33,15.25,2.5-1c38.23-14.73,78.17-1.81,78.57-1.68l2.53.84L469,284.32l-.27-12.78c3.93.7,10.88,1.57,11.69,1.6q1.55.06,3.11,0a36.14,36.14,0,0,0,11.38-1.94,22.32,22.32,0,0,0,10.66-7.67C510.85,256.26,510.56,245.66,506.09,238ZM361.57,266.37a27.15,27.15,0,0,1-10.16-16.47,12.67,12.67,0,0,1,1.23-8.78c2.77-4.59,8.54-5.66,13.35-6,6.19-.43,12.43,0,18.56-1.15,5.65-1,10.1-3.76,14.7-6.91a39.13,39.13,0,0,0-2.11,6c-.77,3.13.22,3.31,1.27.42a37.07,37.07,0,0,1,5.36-9.49c14-18.06,40.53-20.28,60.75-14.71,6.21,1.71,13.62,5.28,16.74,11.46,4.21,8.37-1.29,16-7.6,20.9-13.45,10.39-29.92,16-46.54,18.3s-33.5,1.58-50.24.29c2.63.86,5.3,1.59,8,2.26l.21,9.6C378,271.69,366.35,270,361.57,266.37Zm27.12-2.91a117.92,117.92,0,0,0,75.85-9.14l.23,10.71.3,14c-9.33-2.55-43-10.17-76,1.55l-.07-3.37Zm.69,32.33-.24-11.09c34-12.55,69-3.65,76-1.61l.24,11.15C456.06,291.7,422.42,284.07,389.38,295.8Zm110-34.2a22.52,22.52,0,0,1-11.52,5.82,59.25,59.25,0,0,1-11,.94c-.62,0-5.55-.32-8.22-.71l-.06-2.71-.27-12.58c.63-.34,1.27-.65,1.89-1a48.89,48.89,0,0,0,12.33-9.17,24.29,24.29,0,0,0,6.41-12.89c2.34,1.21,5.08,2.83,5.44,3.11a25.47,25.47,0,0,1,6.95,8.19C504.87,247.37,504.93,256,499.37,261.6Z"/><path class="cls-33" d="M427.12,260c16.62-2.34,33.09-7.92,46.54-18.3,6.31-4.88,11.81-12.53,7.6-20.9-3.11-6.18-10.53-9.75-16.74-11.46C444.31,203.76,417.8,206,403.78,224a37.07,37.07,0,0,0-5.36,9.49c-1.05,2.89-2,2.7-1.27-.42a39.12,39.12,0,0,1,2.11-6c-4.6,3.15-9.05,5.87-14.7,6.91-6.13,1.13-12.38.72-18.56,1.15-4.81.33-10.58,1.4-13.35,6a12.67,12.67,0,0,0-1.23,8.78,27.15,27.15,0,0,0,10.16,16.47c4.78,3.6,16.41,5.32,23.51,5.78l-.21-9.6c-2.68-.67-5.35-1.4-8-2.26C393.62,261.58,410.5,262.34,427.12,260Z"/><path class="cls-32" d="M389.14,284.7l.24,11.09c33-11.73,66.68-4.1,76-1.55l-.24-11.15C458.11,281.06,423.14,272.15,389.14,284.7Z"/><path class="cls-33" d="M501.31,240.61a25.47,25.47,0,0,0-6.95-8.19c-.36-.28-3.1-1.89-5.44-3.11a24.29,24.29,0,0,1-6.41,12.89,48.89,48.89,0,0,1-12.33,9.17c-.62.35-1.26.66-1.89,1l.27,12.58.06,2.71c2.67.38,7.6.72,8.22.71a59.26,59.26,0,0,0,11-.94,22.52,22.52,0,0,0,11.52-5.82C504.93,256,504.87,247.37,501.31,240.61Z"/><path class="cls-33" d="M388.69,263.47l.29,13.71.07,3.37c33-11.73,66.68-4.1,76-1.55l-.3-14-.23-10.71A117.92,117.92,0,0,1,388.69,263.47Z"/><path class="cls-34" d="M459.41,284a7.42,7.42,0,0,1-5.86,4.07,20.82,20.82,0,0,1-7.31-.66c-7.12-1.52-14.32-3.14-21.58-2.79-11.46.55-22.4,6-33.87,5.81l-1.49,1.82.08,3.52c33-11.73,66.68-4.1,76-1.55l-.24-11.15c-1-.3-2.69-.75-4.84-1.25A17.35,17.35,0,0,0,459.41,284Z"/><path class="cls-32" d="M465.39,294.25l-.24-11.15-.1,0c-.27.42-.51.86-.78,1.29-2.4,3.85-7.1,5.54-11.52,5.6s-8.74-1.26-13.08-2.14a70.26,70.26,0,0,0-33.79,1.42c-3.67,1.08-7.42,2.47-11.2,1.89a8.92,8.92,0,0,1-5.47-3.23l.17,7.92C422.42,284.07,456.06,291.7,465.39,294.25Z"/><path class="cls-32" d="M465.06,279l-.3-14-.21-9.68c-3.2,1.45-4.14,5.61-5.93,8.74a13.88,13.88,0,0,1-6.9,6c-5,1.95-10.5.75-15.78.17-12.18-1.32-24.49.88-36.27,4.29-3.53,1-7.55,2.09-10.66.08l-.07.1.05,2.42.07,3.37C422.1,268.82,455.74,276.45,465.06,279Z"/><path class="cls-34" d="M465.06,279l-.3-14-.23-10.71a117.92,117.92,0,0,1-75.85,9.14l.05,2.44c13.41.75,26.84,1.43,40.24.83,10.71-.48,21.8-1.91,30.84-7.87a2.38,2.38,0,0,1,1.37-.54c1.26.07,1.52,1.87,1.39,3.17-.3,3.15-.68,6.51-2.63,8.95a10.51,10.51,0,0,1-7.8,3.52,39.08,39.08,0,0,1-8.68-1,94.63,94.63,0,0,0-42.42,2.16c-2.76.79-5.64,1.71-8.43,1a6.4,6.4,0,0,1-3.72-2.68l.08,3.72.07,3.37C422.1,268.82,455.74,276.45,465.06,279Z"/><path class="cls-33" d="M499.37,261.6c4.85-4.9,5.43-12.08,3.13-18.33-.34,1.32-.68,2.64-1.14,3.91a21,21,0,0,1-16.74,13.7c-1.87.23-4,.1-5.29-1.31-1.52-1.65-1.24-4.42-.1-6.37s3-3.36,4.49-5a22.33,22.33,0,0,0,5.12-8.88l-4.17.2a28.15,28.15,0,0,1-2.16,2.67,48.89,48.89,0,0,1-12.33,9.17c-.62.35-1.26.66-1.89,1l.27,12.58.06,2.71c2.67.38,7.6.72,8.22.71a59.26,59.26,0,0,0,11-.94A22.52,22.52,0,0,0,499.37,261.6Z"/><path class="cls-32" d="M487.85,267.42a22.52,22.52,0,0,0,11.52-5.82,15.69,15.69,0,0,0,4.43-11.44,25.4,25.4,0,0,1-2.9,5.9c-4.1,5.83-11.31,8.19-18.1,9.79a18,18,0,0,1-7.11.65,6.86,6.86,0,0,1-5.48-4.26,7.2,7.2,0,0,1,1.33-6.35,17.88,17.88,0,0,1,5-4.23c5-3.15,10.43-6.08,13.59-11.17a21.71,21.71,0,0,0,2.9-8.88c-1.1-.65-2.7-1.55-4.15-2.3a24.29,24.29,0,0,1-6.41,12.89,48.89,48.89,0,0,1-12.33,9.17c-.62.35-1.26.66-1.89,1l.27,12.58.06,2.71c2.67.38,7.6.72,8.22.71A59.26,59.26,0,0,0,487.85,267.42Z"/><path class="cls-34" d="M470.21,211.38c-3.49,15-15.84,26.21-29.13,33.19a96.08,96.08,0,0,1-38.65,10.83c-5.59.34-11.2.19-16.8.48-2.8.14-5.69.43-8.13,1.84-1.58.92-2.9,2.26-4.47,3.19-5.58,3.3-12.57.63-18.34-2.37a26.71,26.71,0,0,0,6.88,7.82c4.78,3.6,16.41,5.32,23.51,5.78l-.21-9.6c-2.68-.67-5.35-1.4-8-2.26,16.73,1.29,33.62,2,50.24-.29s33.09-7.92,46.54-18.3c6.31-4.88,11.81-12.53,7.6-20.9C479.08,216.44,474.75,213.41,470.21,211.38Z"/><path class="cls-32" d="M469.11,210.89c.44.79,1,1.56,1.45,2.24,3.35,4.81,2.71,11.71-.23,16.8s-7.74,8.69-12.63,11.76a114.63,114.63,0,0,1-72.21,17c-3-.31-6.33-.68-8.87,1,.14.17.25.37.38.55,16.69,1.28,33.53,2,50.11-.3s33.09-7.92,46.54-18.3c6.31-4.88,11.81-12.53,7.6-20.9C478.9,216.09,474,212.91,469.11,210.89Z"/><path class="cls-32" d="M384.87,262.55c-2.63-.66-5.25-1.37-7.83-2.21a10.37,10.37,0,0,1,2,6.32c-7.12-.37-14.4-2-20.25-6.23a23.81,23.81,0,0,1-6.52-7.19,27.15,27.15,0,0,0,9.28,13.13c4.78,3.6,16.41,5.32,23.51,5.78Z"/><text class="cls-5" transform="translate(379.82 466.98)">ꜩ</text><path class="cls-1" d="M798.32,438.61s-56.14-7.38-127.11-32.54c0,0-106.73-50.81-139.74-69.75l-6.16,6.6s87.56,75.19,130.51,90.59,140.43,49.75,140.43,49.75Z"/><path class="cls-3" d="M655.76,427.69c40.34,12.93,128,40.52,141,44.61l-.51,11s-97.48-34.35-140.43-49.75c-28.48-10.21-76.57-46.71-105.75-70.14C580.44,385.82,627.78,418.72,655.76,427.69Z"/><path class="cls-1" d="M532.66,337.08s-13.07-22.25-21.41-19.27-10.74,14-8.37,15.67c14.12,10.19,22.43,9.45,22.43,9.45Z"/><path class="cls-1" d="M520.38,321.5c-2.76-2.09-21.3-19.09-24.33-16.44-1.7,1.48,16.47,16.74,21.19,19.28C518.55,324.9,521.21,323.06,520.38,321.5Z"/><path class="cls-1" d="M514.35,323.38c-3-1.85-23.38-17.21-26.06-14.3-1.37,1.49,18.24,15.24,23.23,17.37C512.87,326.91,515.34,324.86,514.35,323.38Z"/><path class="cls-1" d="M512.77,328.61c-3-1.78-24.8-16-26.48-13.72S505,329.72,510,331.74C511.4,332.16,513.81,330.06,512.77,328.61Z"/><path class="cls-1" d="M514,335.57c-2.84-1.29-20.91-12.65-22.78-9.82-1.35,2,16.18,10.19,20.57,12.23C513,338.22,515.06,336.73,514,335.57Z"/><path class="cls-1" d="M532.58,337.16a140.22,140.22,0,0,0-2.26-14.55s-2.39-9.78-4.46-9.79c-2.29,0-.77,6.63-.25,8.32s.62,5.4-1.39,4.54Z"/><path class="cls-6" d="M776.29,426.13l-8.6,7,4.55,45.15,26.08,10.59S831.24,430.39,776.29,426.13Z"/><path class="cls-6" d="M146.45,465.73l46.84-16.86s-44.71,26-51.27,37.45S115,513.44,115,513.44Z"/><path class="cls-6" d="M110.64,349s-57.81,6.57-47.51,48.12L113,376Z"/><text class="cls-35" transform="matrix(0.29, -0.96, 0.96, 0.29, 368.61, 149.53)">ꜩ</text></g></g></svg>